<mxfile host="65bd71144e">
    <diagram id="5tg-pSr6rg7_38zQn1m2" name="PÃ¡gina-1">
        <mxGraphModel dx="2142" dy="789" grid="0" gridSize="10" guides="1" tooltips="1" connect="0" arrows="1" fold="1" page="0" pageScale="1" pageWidth="827" pageHeight="1169" math="0" shadow="0">
            <root>
                <mxCell id="0"/>
                <mxCell id="1" parent="0"/>
                <mxCell id="15" value="" style="shape=image;verticalLabelPosition=bottom;labelBackgroundColor=default;verticalAlign=top;aspect=fixed;imageAspect=0;image=data:image/png,iVBORw0KGgoAAAANSUhEUgAAA1sAAAHjCAYAAADVOgU0AAAAAXNSR0IArs4c6QAAAARnQU1BAACxjwv8YQUAAAAJcEhZcwAADsMAAA7DAcdvqGQAAABhaVRYdFNuaXBNZXRhZGF0YQAAAAAAeyJjbGlwUG9pbnRzIjpbeyJ4IjowLCJ5IjowfSx7IngiOjg1OSwieSI6MH0seyJ4Ijo4NTksInkiOjQ4M30seyJ4IjowLCJ5Ijo0ODN9XX00m8YSAACCUklEQVR4Xu39C3RU9b3//7967Ld6CIRLASlCEyBaUUAQxSIKpTGnsvBXl6ZeCq3oOiBez7e1reV4Wy5vpbbannpFOKtqC63VyLJ/WXBOoBxRpGIVBBSrARNBDJdiCJdqv/X0//ns/ZmZvfdcMklmJxl4PtYamb1nZ8+ePTNxv/L5fN6fz5SVlf1DAAAAAICC+if3LwAAAACggAhbAAAAABADwhYAAAAAxICwBQAAAAAxIGwBAAAAQAwIWwAAAAAQA8IWAAAAAMSAsAUAAAAAMSBsAQAAAEAMCFsAAAAAEAPCFgAAAADEgLAFAAAAADEgbAEAAABADD5TVlb2D3c/Hv1u0IILT1E3NWjJvNu00K0+ks26fbdu/vIhc6+bXv5JP01b4a8/YlxTq1urK9yCseUp3XnlHLcQNUtTnr1Jp/WU6muG6FcPu9VFILb3efgdWjSxzC1YRfTdGnCyfj1tlEqaN+hnC97UKrc66vLqb+r85Evcpufuf0mPu6WuLHzc0tba3+h7G91CB/KOo3fuc3zEGHmWFlf11GuLluiuRrtisO674Swdu26JvrWy2duk6/GPcWgRffYBAJnRspXTpbpn9hNaMGG8Wy6A2fvMBbjMxXeZys+NP2iNeew93frsQg1wyxlVLdT1K97Tt69xy3F7uEp3Vg4xt3v0p31uXReS1znLw/zb+5n3uEx3/1E68we7tajSPdAeLmgd2vSops2b4W6H0x8xSnXLTBMU9JIuuP83/q1WOt9ceF7utujKHq9xx7xogw66dR1vsEaawLf1FYKWdfkJg6WGDS5otZYNPd/UryeXuuUs7B8RzHb3jXTLAAA48Yet3fdr5mF3Qdh2Pz6lyVwFlbY5ZA246w3duqJWY9xykgtM1981y63oPP4xmsCSvGU43rzN19ILbTArrlatoPm3l6pOh9Q/0JjXVtOH2maTBq1cvcZfUWwam7XT/vtRc8YgcHn1VI39yAStmm1ujbHxJT3XMFjnV5uLZrRo4uRRXovIxk5oUetyTAg6xwbPdwKfp6Kwz35FpOaPtNVfAQAoUrRsdahPNfjz7u5hyXb5e0+zxkt/musHJP/2mkY8Ntdtc+Tq/4VP3b122t+kenf3sOJdGDfrtdXpF8aP24vl3qWa6JaRjTlHw0pNHm+g65kxcXi5SgieAIBOFN+YreRYLWf/G3po0f1a7Rat6VOf0FQt1UNNk3TtCLPl9qWatnZg8ufqV83QTZvNHW9fx+udZ6/WB+PMzwzyfjzjPtOeN208y3jdOO0qjd4Xfi7Lds2auXqNJkx4xD+eLBLbtd6nWvTUdp35lwEqv+Zot651bKvRrPG79Hxllda5dR7bsjXnTGnNPXrgha9493u5h9Lse1nzL5yuLzz2ns4b5tZlkBojNVffXnGJZJZrB9rnT3SpqQsdh39sNmidoqW1bmVObjzWnkxjtlJjtXzNOfbb0rZ5HL87fy2dszb1RNInWr6sUf3/OEijbj/KrWsb7zvTM8Pn3mO7vU5Rf/v53DslNK4r+V1K8rctd0vmU6315vt1725/Ke/vZgFNnDxV3+2zIdyqleCN9SrX24lxN4mxX/6jhglpyTE5Pm/cku2OuLo0tG36OCrbdXGqxmboKXbQjevxjm3Mvsj4mRxjf9zx7cw6Ziv9ORPPlZB6zg0aFNw213i3tPFJEd7jgRbChkgropV2boPjhvzjPnHLEi3vM9Ubn+Yd955Rbr/ufVDi/dqg3tPs2CN//fYJbkxb5DX4rzVwMqLHFXj/k/uwco79y/b+pNY/prMDz5t6nWnHE5F4r6Jj9KKSn7U2HX/LZtxXo6+XH9Trv7hMd7/gVgIAupT4WraS3QdnaMl2ty6TnpN0Ra8XNG1VgzRokhZU2VD1qNbvl8qHXuo2srpp9IX+BaA/TmWp6nucomunpraxIWmRuRjcZS4EE+NZlmwv09TZj+jGfm6jhEHmYtQLcG5b8/zdRlyle4ZLq1dfnXoOs2l4fMyMNgatDlQ7XQ+4VqXnt5hlGxSSrUzm5kLDuivd8tyX1WSWbbhKbmNu0W575dXvadZJm9y+7HirCp2XHNs0S2NOMhcn+zZpXV5BqyWp7oN31tS5dZnYIOUCmzvu+ebtOW3OG5pS5TZxvOPvv9RtFzn+PM9ZZ/A+17Of8G7eHxrs594t21t0TKH9HC+aKC1xn9eHNh1S+cTAd8CO+3KhLPGZfmiTvO+X/fwn5f3dLAS/RSbR3cte7C6+4ZvudpYuT3Q/9JiL5fOkxxJjusztuYZSjZ02VbdEB9qVmXAxrbeWu+1+tq5ZQ6uC27nQI3PRG9jGshfKaSGqQC6vPlt6PnX8F9RuU8mYqRnGBg3W+Tf44cbf9iVtLR2l72bpUumNT2qu16oMH1YbDGwgsq8r+bzvlIXGGXnn3YXExDZeF05zDKFzO+xsnbN3iXeuSsz9X5vvmg0qW835PHF46jWceN4ofWQCxmvNZv15JpzZ8Gteq0rLNdHbnz9Gzw+Viec0+7Hv28yTIy2Z9j3+pve8ye1ynAs7cM2GvLc3Z34P7fn+7rB6977bY0x1VV21MvAcZtmGq8T5sLfE5yI6Ri90bs0tGurt8afGI7Zw/C2aoZHeX0tK9KXx5vMEAOiSOr8bYQ/pnbW/dQvdpIYnk39dV8+BmuDueuxf15cktv2tlpiLSA06SdO95Us1dUQ3LxgF/+K+cIkNTCaojYteHNoWr9Rf8rX5LS9Y9e9TwGIYh5tQ644JQ8tNCOo5QmNsqKn6iip6Sk1v/U+HhpIBd9nWmTo9H2gZa7zlQROkSnXaRZGui/b4k9vN17q3zAVTz/76glsTn89qVzsKgaTCv/vDhW3Rdcv2lhb+vcdTrbmr33lXh8x3oFdfuzReN44p875LwZ9bvfpJP0SNuSH1nWvNd7Pdeqp3abM+svsfeVby4tsLPmnjVrbpe5HWgMdX24vd8IW+z7aopFqjVm2u97brnQieAwbrRPMjwWISq1Zu8J5vqA0uMXm8JtLytHGDudg3l83DBqd1lQyHvm3aaLJv5i6VOQpjDHBjl8y+QgFg40uBZRM2xpR6wSK4zeM1fogaOyF1PkpK92l54phKS004S53jkj6JJuZSlXyUKkxhf+a5ZGuVew9GjtJY874H3yPv/fUC2SidHy040fBSnufCBc9chTFCrUrNWrXF7LesLN5CLKEWu216zn6+2/ycT2ij15/4oP685kVvDQCg6+n8sLX/Xa1OXMAZu/ZmbzWq35q48POt3mt/sJ+Os//THn6S1yUq/ed/qzftBWr04jBt3MtvdVOmC9dCqvxYI8x1SN0bbetCmFKh80IFKMwtVxe4AkkLUu/uUpO5aOp7vFvucK41bctr4S6VJkg17jH/9B0cqijY0UEw5Sht+4u5dvzyAf3YrYnVvh3hLoauldnvkjteJ5gQdajJXqUGrdHqhkMmYPVKdS1sxXez3QaU6ljt03bzBvkXyf6Yo6F9zPubpZhGSKjlKyBLK09Sv96B7nJhB/d2ZKnMZm3/yN0NcQE0wGtNydD1LFdhjLzGLnktQdLOPYkwk5Ah1ITGhKUfY0KoMEWGYg/ee+3e9xDzhHbbY/uGw3PehS4S4TLH9ge3bGv5c1Vg0eNZtcd+xnpqULRFNk9PfK9a1dV0IQSAruwwK5BxSE32IjuT4EVkR6s8qA3LGlR/pfTAuWU6Z55b32Z2rFGgi5u9ua6AR5Zh6mv/iD7sknDwNLdcY9E6ww+vKVP5Tz6rKfZzsGxfx4SuHLIHJ/fHi45mQ493Me63zvhBp1SDemcOPeFuhn5XQxsUWs21KA09I9VlzQ8t2bufFYQdwxM6/txjf1rmd8M8uG5DIASleKE1r8p22YOTSnu37Ry3JMdxpVrJWscLl80b9FyucAkAQAc4cqoRdmYFtxUlGmVCVvlj0vXmYnv5bLf+cFK7zQt7vU76Srvnp8rfFnl/GLaTIkfDp7114jirqB8/nArb5ef21A/d+q5ntz7IdrHdgfzWFdu10F/2+S0gieIF4fEx/tia1nPPYcfOuNDz3THKXmCiELxiCaNUYruUJY/fjo1yj7eF646XLSBu3WvWtzcs5RXWCqttrYuuO2QntFwBABBV1GHLm3Mo0dXJG3PVTSecEB1zdalOHiQdaliToXpbSxrUtF/q1qtdf3JOWXGMNplrh4pTPnEr4vfhLnOR1dK4pERQGti6OboGTBqhXqrTJq+QxhxtsoUlEmO4OkTm7oLtldc5a5VPNNZc5TZvPsYccSfbvUbvZCxwMV4TymzVwbe63Hx4XvCy3Qy9i32/BceOtylEq0Wi612qOIO95Rm0XLe71vK79DVnLHHfVrkKY1h+d7XBGplr0l2v616mcW+utTGG8OKV9E8Wywjwzm0bWxfb87Np/PmuWmxhc91Yo90eW9LS+9aSs+c8qZqaGj05hwIZANBVFW/YGn6HV5mtfl2iBLZfMKPbiMtClQenT7UFFNo6CewafWCvUQZNSq9mWCQad+wy/63QWTknO/ZbiHqNvzj/yYerFuqi8aVqWvO75HipdVc+ZQJvaYZKgHP17Zjm2Vr39Mtq6nmmZhVw//mds2K1Rveua/CqcQYrD06YcJlG9zik9cmCGJ3LXrT6QchnA4q8i303til4ge51yWtbN8J8x8ykhZVoCfVW8PcVDDV+Rb42dyNMjE/KVBgjIdFdMlSJ0TCvI1WN0C/YUDLm7NA2l1fbc7stVRCjkLzjKtXY84KVBwfrPntucxW3yMqcyzPa+rOZuM9b2aj0SpchLpSNGZV/sQtz7u17nvN9y+lsTfySP+Kw5PTzNcO7BwDoamILW7nKVUdLVeerfGKq3PWiif20/tnwXD+2aluihHXyue2cRKF5tlpn4RJb6tovO5/YZ1uPv1M8XKX5a5pNkLopNaYpWa49wZZZt0EpXHjj29e4h53QPuacqaaaIXrglmBbzRz9qtKWTreBK7WfW1eM1aZAtcAxjyXWu7mxAmOuks9p571K/Hx1hVkR2Gfw+L2S7ebYM4zbih5/3vI6Z0Vs821eOffg9+naEbvD1Tk72u6PdNDr5pa44J/qzbnll2r/plei+7FkuW2/lLgto+2Nd/JKu7exG+HGl1zZ+NTYqeQtWJLbbJc4Fu8xr9S5PQ73uMfO3+Qed/NUJbe35ev9jZL7sq/Rf2yqer/S9m6E+U3c26y7FiRK5CeOydxOaAhVHrQlz3+2TqFtzu9ty+IHqwUWkj0ucx6V6sZpz5WdAyvjfGstSVSXzLeQRh7SPm/mll6i374O+xm0ZfJT2wXL6lupz4O5efOhZZuHLR8v6u5V77n7/e3fBAEAXVB8kxoXkpuo2M6fVeiJVDtW+yc17hz+pMC97ITJoXCF/BRuUuPDlw0q/pxMsY2VysCflNafcDf0vK7lKjrRcNeTmmS4ax9nx/DG89m5s9oxUXAs3Di97JNct9UM/bTm6xrS/Lp+fsXdJn4BALqaI6dARpfglwAHEGXLi5eG5nKKn1/tMOOYGdvS5u52aS0UxjiyHHmFMc6eU6kh5t/3VhG0AKCrImx1sLpd3aShzVpU6VbgsDfr9mZVqJs2vUirVi7exMRlZ0W6aA3WfTOD43kKKcP4L0+pbjnPdgMsghCz0VY07NjWwK5rm753f3AC6MPYFT/1CmN85/Rd+n11tb7/S7ceANDl0I2wE8y6fbdu/vIhc6+bXv5JP01b4a/vuuhG2Bap99mE7MWFmF/tCJAoi+4WLVvivbBdr8L8roRuIaF5Q9friobiFVs3QgBAV1ccYQsAAAAAigzdCAEAAAAgBoQtAAAAAIgBYQsAAAAAYkDYAgAAAIAYELYAAAAAIAaELQAAAACIAWELAAAAAGJA2AIAAACAGBC2AAAAACAGhC0AAAAAiAFhCwAAAABiQNgCAAAAgBgQtgAAAAAgBoQtAAAAAIgBYQsAAAAAYkDYAgAAAIAYELYAAAAAIAaELQAAAACIAWELAAAAAGJA2AIAAACAGBC2AAAAACAGhC0AAAAAiAFhCwAAAABiQNgCAAAAgBgQtgAAAAAgBoQtAAAAAIgBYQsAAAAAYkDYAgAAAIAYELYAAAAAIAafKSsr+4e7H49+N2jBhaeomxq0ZN5tWuhWH8lm3b5bN3/5kLnXTS//pJ+mrfDXd75ZmvLsTTqtp1RfM0S/etit7sIG3PWGZo3fpecrq7TOrctkzGPv6bxhbsHocq+vaqGun3OmeqmuxdeSt2tqdWt1hbTvZc2/cLoa3equLLbvxvA7tGhimVuwiuj30YCT9etpo1TSvEE/W/CmVrnVUZdXf1PnJ1/iNj13/0t63C11ZeHjlrbW/kbf2+gWOpB3HL1zn+OuZuLkqfrumFIdXLdE31rZ7NYCALoSWrZyulT3zH5CCyaMd8sFMHufuZiUuZAsU/m5XSlodTAbLla8p29f45Zjtu7KIbqz0tzmvqwmtw6FY8Psrc8u1AC33Fbzb+9nvhdluvuP0pk/2K1Fle6B9nBB69CmRzVt3gx3O5z+8FOqW2aaoKCXdMH9v/FvtdL5N5yly90WXdnjNe6YF23QQbeu4w3WSBP4tr5SPEELAFAc4g9bu+/XzMPu4qbtfnyKudTfWtqOkDVX3zYh5dZMt3Zf7M7X0gv9UFIMrVqHldrpesCGwUK1alkPV/kBs0hatYLm316qOh1S/wq3oh2mD7XNJg1auXqNv6LYNDZrp/33o+aMQeDy6qka+5EJWjXb3Bpj40t6rmGwzq8e7FYgl4mTR2motmljJ7SotceqPfu8f3fuoVULALoqWrY61Kca/Hl3t83m6FfeRbm51dSZ5Wb9aa5bLsKLaiCX/l/41N1rp/1Nqnd3DysDTtY5Zc16bXUgaDmPv2PW9S7VRLeMbMw5GlZq8nhDUXS7BAAUl/jGbCXHajn739BDi+7XardoTZ/6hKZqqR5qmqRrR5gtty/VtLUDkz9Xv2qGbtps7nj7Ol7vPHu1PhhnfmaQ9+MZ95n2vGljM8brxmlXafS+8HNZtpvRzNVrNGHCI/7xZJHYrvU+1aKntuvMvwxQ+TVHu3Xt4I3J6W/C1ilaWuvWJXhjgEaozjzWeFFgvFJk/E50LJPPBrgM+0yMAUrY8pTuvHKOWwjIsV3m50sJj6VKjSFLaFpzjx64Zb5bCo7Zek0jVlyicrc+ul2SGxvVlGPMlr9Pc/HlZN1XISTHajlZxld5503mPD49OLR96HxF95WQ8X2Kntss73mu7bI9X0K7xop9ouXLGtX/j4M06vaj3Lq28X7P9Mzwu8JjuwpPUX/7nd47JTSuK/n7J8nfNvEZM78JtN78Trp3t7+U9++zAvLG7PTZEG7VSvDGepXr7UVLdJd9ExJjv/xHDRPSEo853rgl2x1xdWlo2/RxVLbr4lSNTX1NkhLjh/zxRPsiY8cG674bztKxmcYYuePbmXXMVvpzRscqpZ5zgwYFt8013m3kWVpc1TPtXCR5jwdaCBsirYhW2rmNjpkLvO49o0L7a/ncpr9PrXO2bv7ld3Rq6Xv6ffX39YRbCwDoGPG1bCW7D87Qku1uXSY9J+mKXi9o2qoGadAkLaiyoepRrd8vlQ+91G1kddPoC/2LGX/MxVLV9zhF105NbWND0iJzYbPLXNQkxmYs2V6mqbMf0Y393EYJg8yFlRfg3Lbm+buNuEr3DJdWr7469Rxm0/BYjxltDFqdoVSnzXlPZ+26x2/5qnxK9T3P1KzH5rrHA2OZQq1l6WwA8YNdYluzr2GX6NbAvixv7I4JWjYEJPe5fmxybFZ07FRoO3MLBqAxj10nPRJ43Bxbr/E36fq7ZrktnH39dZYJWkrsy23XlvFg9vj98Ob2ZY5TmZ6zUJLdB4fo+S1uXTb2fM/pr5fc9vPXNKu8+g1NqXKPB/bl3+7Rn/xeRhG2K6oJUHtMCEvuS+azEtiXZcOU3U4mNCX3+aB0keuuGj12G66S25lbJ7a0er8LZj/h3bw/ztjfFW7Z3qLjMO13f9FEaYn7jj+06ZDKJwZ+b9hxXy6UJX4PPLRJ3u8k+zsjKe/fZ4Xgt8hstS1Yhg0ai2/4prudpcsT3Q895mL/POmxxJguc3uuoVRjp03VLdG+x2UmXEzrreVuu5+ta9bQquB2LgzIBJjANpYNDnEVari8+mzp+dTxX1C7TSVjpurXk6OJb7DOv2GqTtyyxG37kraWjtJ3s3SpvPwEs765XqsyfFht+LTByL6u5PO+U6b7RroNDO+8u5CY2MbrwmmOIXpu7fEuNt+x59x26efWhjJzbm230OQ2yvw+5WvSRH3JO0VDNPIKbw0AoAN1fjfCHtI7a3/rFrpJDU8m/1KsngM1wd312L8UL0ls+1stMRdEGnSSpnvLl2rqiG5eMAr+9XjhEhuYTFAbF73QsS1eqb9Ka/NbXrDq36eAxTC6gi1PBVpl5miTvSjuO7iVY7vmqmp8qZrWPBho+ZijX9lgNmxK6gLdXJyfNSzaOmU8XJW1FSmXdVdGWloe/p0XHnqd9JXw8fc0xxZ8Trdd+TmtHMOWPP7AuCkTKJ42oabX+Is1xq3qPLZVKXVsjS9sMoG1VH2PdyvyNOAu2zpTp+cDrV2NtzxozpkJ5xelwvOYi85Ur7TWqflaemVHhKjPalfGoJif1B9M3B97bCu4W7a3tD+YeI+nWsBXv/OuDpnfG7362qXxunFMmff7J/hzq1c/6YeoMTekfk+15vdZu/VU79JmfWT3P/Is16Ljgk/zR9rqb+Rs0/ciLTuPr7YFKUp14vBoWLEtKalWmVWb673teieC54DBOtH8SLCYxKqVG7znG2qDS0wer4m07mzcoNfMSy0ZNjitq2Q49G3TRpN9M3epzFEYw+uimaHlaeNLgWUTqlw1wOA2j9eYgGfO2dgJkfNhW9gCLV7Rc5sYO/ZcoOVs1coXzevMsK98vbBKf/ZOxXva+EtvDQCgA3V+2Nr/rlYnLkaMXXuztxrVb01cxPhW77U/2E/H2f9RDT/J696T/vO/1Zv2Yit6oZM2huO3uinTRVghVX6sET2lujcK0IUwT/XrM3Tza61rxppz26y6FyJd6d7dFbrYHzBphFe6fFMbglV+5qtxj7sbEn1Ot13P/vqCvyIv2Y6/cccu89/+GhBs9ekM+zZpXVo3v9aapTEnmSvlLa9FCnG4c5YM4nM1wgTPprf+p5Nap47Str9IpV8+oB+7NbHatyPcxdC1zPvdmMfrBBOiDjXZK/agNVrdcMgErF6proWt+H3WbgNKdaz2abt5g7zWGTfmaGgf8/5mKaYREmr5CsjSypPUr3egu1zYwb3tSMit1qztH7m7IS6ABjxuKx5m6EaYqzDGxOHl5nW2UDTDJLWh5p/0AhVZAl70fWl8U98yAdkPatnGjrnX2ebxdy/q7iuqVU0XQgDoFIdZgYxDasp4MW4EL4g6WuVBbVjWoPorpQfOLdM589z6IjFgYH/zX79LYqj6YWS8zhf6mwuFfbv0oVtuN68bW/g5c433CvpwV/Tip2Xe8atC50WeMzT+rOgNU187/sp2SYy8ztC5rRrsvbdNO2Iaq5aHH15TpvKffFZT7Hdn2b6OCV05ZA9O7g8+Hc2GHq8Fy2+d8YNOqQb1zhx6wt0M/a6GNii0mmtRGnrGycmLfz+0NOvtza3/3uXNjosKHX94fq7W88PNwXUbIuHG54XWtBbCTNLDXVJp71acY9tSaf6x3TgL+joBAJ3pyKlG2JnVyFaUaJQJWeWPSdebC8fls936IuG37ASqHkZuie57XsBpZWtSVoniC7a4Q+C5WhzX5LQl+PkBzU4qHH59/i1T8YhitEVetejIeU3eEl0Ga7d5Y+p6DYxprFoefvxw6g8U5ef21A/d+q5ntz7IdrHdgfzWFXfBnuS3fPmFI0rDY4/sWCa3Veu457DjoFwY+O4YtbOIQwsSBShscYrk8duxUe7xthg5SmNLswfErXvN+laFpQzyCmsJ+2zDl7wCHIHXmLwV0WTLAICUog5b3vw5iW473pirbjrhhOiYq0t18iDpUMOaDJXIWtKgpv1St14F+rPiimO0yVzoVpzyiVtRJCLdBbPxQ1mFRuRTmKKFi3m/S58JeE+3pRuk3wVOe7a1qgtcq7sLXvFT1dTUqOaXN+tst6rri3YXzMYPZWnj47IoaND2fKKx5iq3efMx5og72e41eidjgYvxmlBmqw6+1eXmEPSCl+1m6F3su+5pzRv0XK4ucXlKjisKhYE8g5brdtdafpe+zCXu2ypXYQzLn8NqsEYGimGk2djgnd/0cW+utXHLtlYEpPZ2F8xuxn3m95T5XfVTCmQAQIcr3rA1/A6vylj9ukQ5Z79gRrcRl4UqD06faosBtHVC0zX6wP7/dtCk9GqGR5La6Xppi7nYDFa+yyRRmCK63TW1GSoDuov5LIUn/OBTqopJiTBmS5Dn141wzGO2BHy4AERevOO33SVr8yqGcfaxtnulUXqqzi+ii5h1T7+spkhVynTztXR5nQlQ0e3M+/BYeuGRRNA+K66qjZ1qje5dZ6sLTglVHpww4TKN7nFI65MFMTrXsX3NRboXhHw2oMi72HcX8aXlmph447wueW3rRuiHkJ4a1EIKTwsr0RLqreDvKxhqbEXEdnSvSxS/yFQYIyHRXTJULdAwryNVjdCEznXNKhlzdmiby6vtud2m5a2szOgVLclRObFtZmik60M/ZGIx/WEIAA4Psc2zlWuuqsQ8VaH5b2xp5Yllbi4aNxeW3GNpc2dZ4TluEtKeN20ursi+3drs3PY93KLRufNs2bLdqfmkQoKV41w3vOh8Ut58TX1zzH+UY+6u6PxTngxzKaXNpZVxnicr/bUEKxlGn88+tml05PgT3Q29LZy0Y8pxzrxug4Hqg0ba8VsZX8MM/bTm6xpi7r33fLW+34ZKXxnPqROc3yvj+5blPU5xc2TZEu9px575nKRVkkw7v9nm48rwWjJ8NvLXsfNslYcqnWbhfkelhOfwy/v3mdu+3byudbZE+0va6roJ2i5oP9trLtbt/dDcUtG5m2zLVINGRua88ubZ6h2Zk8p14QvOf+VtlynoROagSnRf9Nnn9Oe/smXZ/ef055/KHPrs9qnKfeF9+VUCN54QPl5/m5a7NPrbRecAyyzttWaYZyt6bOnzernXmeFn02U+J2lVEVvh7DlP6jun27ImzLUFAB0tvkmNC8mFLTt/VqEnBe1YBZ7UOA65JkpGGts95+vlB/X6Ly7T3S+4lV1GrrDV1RUubB2+7EX5KH0U51ipDPzwkWGiXddyFZ1ouOvxg2cq8B0BJt2sJ//tVJXU/17V3yNqAUBHOnIKZHQJfjnrrmzMaFt5b5caCVotu+KnJmhJB1+d3wWDllH1FVX0lJp25VlVBEXGlhdvx/xLbeJXO8w41mn3Rzro7nZpLRTGOBzN+LoJWubdef33BC0A6GiErQ5Wt6ubNLRZiyrdik41V98OjsepWuhN6tu05neROZgQZrsP1qjmvCFe98HL5r7o1neuAXfVhsbKeZMSq04vJSe1Lh6zbm9Whbpp04u0auXijfEpO0u/nhzowmZbvGamyrIXVobxX55S3XLeKK+IRZcPMRtttb+ObQ3sLLb7oC2M8fU+r+vn1V2x9R0ADn90I+wEs27frZu/fMjc66aXf9JP01b46zuF120wNY9UcJwQio3rNmjn0fKkj0fr6lLfDXP0i4tvTrpOkSiL7hat9ozvyUfGMVtp45QAAEBxhC0AAAAAKDJ0IwQAAACAGBC2AAAAACAGhC0AAAAAiAFhCwAAAABiQNgCAAAAgBgQtgAAAAAgBoQtAAAAAIgBYQsAAAAAYkDYAgAAAIAYELYAAAAAIAaELQAAAACIAWELAAAAAGJA2AIAAACAGBC2AAAAACAGhC0AAAAAiAFhCwAAAABiQNgCAAAAgBgQtgAAAAAgBoQtAAAAAIgBYQsAAAAAYkDYAgAAAIAYELYAAAAAIAaELQAAAACIAWELAAAAAGJA2AIAAACAGBC2AAAAACAGhC0AAAAAiAFhCwAAAABiQNgCAAAAgBgQtgAAAAAgBp8pKyv7h7sfj343aMGFp6ibGrRk3m1a6FYfyWbdvls3f/mQuddNL/+kn6at8NcXmzGPvafz+r6s+RdOV6Nb11XFds6H36FFE8vcglVMn/PBuu+GszRU2/Tc/S/pcbe2w4w8S4ureuq1RUt0V0d9gNr6nANO1q+njVKJW1TzBv1swZta5Rbbr1S3zJyqsR+9pAtqtrl1XURnvE9dlfsc7Kz9jb630a3Li3t/S92imls4n5383QQAFAwtWzldqntmP6EFE8a75QKYvc9c9Mtc8Jep/NziDVodxQa6W59dqAFuua3m397PnO8y3f1H6cwf7NaiSvdAe7igdWjTo5o2b4a78QeFfF1+wmCTTTcUxwV845v61v2/0QXm9lyDW1dIAwbrxFJzAb66iwWtDjJx8lQtNuHicrd8+GnWXQv8z88FtUfmewwAR6r4w9bu+zWTi9CkH5/SJG0tbXvIqlqo61eYABK9PTbXbYBc5t9eqjodUv8Kt6Idpg+1LVoNWrl6jb+i6OzTR83mn+aPtNVf0XEGnKxzzOnb+g4XntblE0appLleq470liM4nfjdBAAUFC1bHepTDf68u9tO9TVDdGelu819WU3DLjGhq1Zj3OPIrf8XPnX32ml/k+rdXeRv4vBylWibNraqK9bharBGmuB5cMu2AnZLBAAAXUF8Y7aSY7Wc/W/ooUX3a7VbtKZPfUJTtVQPNU3StSPMltuXatragcmfq181QzdtNne8fR2vd569Wh+MMz8zyPvxjPtMe960MTTjdeO0qzR6X/i5LNsdbObqNZow4RH/eLJIbNd6n2rRU9t15l8GqPyao926VrItW3POVJMJW7962K2zrqnVrdUValpzjx64Zb5ZMVffXnGJetnlHRd7jyXYoBb6WbfPXm5RqtPzlVVa55YSBtz1hmaNTw468O1LjdnyH98V+dnAcXjHlRLdX/LY044nIvCcrfeJli9rVP8/DtKo249y69rG+/z2zPAZ9LT8OUux3VWnqNwtmS203nzW793tFr3uitKSZ5s02duP/Uwv1XF2/z3M4/Z7s+S3/rZFwR+Pcuy6JfrWSvvne9/l1d/U+XpJP9s7St8dYz4XDS/pgtWlybFSW0PjZBJjWhKyjIGJjrXypG9ru7F5z+kcjBxbkHecvbOP2Yruy3sdOcZh+dvvSxubkzgfwXNghc9DYKxXZLv011Cgc5Zl3FLW8+KN+RrsFozk+YgeT1Qrxyt5zyM9t+gjneMdv/35DRqUGCsVeR/ye58yH2P4PbCi2+U49gKOgZtxX42+Xn5Qr//iMt39glsJAOhS4mvZSnYfnKEl2926THpO0hW9XtC0VQ3SoElaUGVD1aNav18qH3qp28jqptEX+uHMHxuzVPU9TtG1U1Pb2JC0yFyM7jIhLTGGZsn2Mk2d/Yhu7Oc2Shg0xWxrn8tta56/24irdM9wafXqq1PPYTYNj8mZ0cagFbN3d6nJ3Q3qNf4mE7RkApDfCjZ/TbPKq9/QFHNRYtnAc6sLb4mWsue3VOi8FaltLDt2yg9Swe3cg602S1OetfuT/jQ3tb+ndbH/nLXT9UDwOWy4csverRMLcnifsdlPeDcv9NvPoFu2t7TxfTk+Zx4bpEzQ6h/4jD20Sd5nPbmNp58mV/XSSu8zWabJ0y7TCQ2Pmm0Pmec4SdPdVkVhZJm5KG3W25szhJneo3Rlnw3+uJayUfr1eeV621yUvmY2HWrHeFn2YtVc2Nqw5o2BMbefmXQ/dto3dd9IfxOP3c6FgsR2mcbL2JDghx23zaIN5gM/Vb+eHLgQz5N/AS9zIZ16ThseQ8cVUqqJw8zzNDRkvjAvs6/BngO3r3XNGlo1VbdEBzFGtrOvs8S8huTzFvic5cueWxu0bDhJ7u+dMvec2/Q9t86+Lj+gBLZrU2GInjrnvN5abn52qwlA58w8WyduWeLvv6zMjQmzATXyntvt7TmcebImetsYNlRGzpn9bBx0Dydl2O65hsE636yLdwzaDI30/kJToi+NP9tbAwDoejq/G2EP6Z21ib/KdzMXHU+m/qLfc6AmuLue0F/wf6sloQvNSzV1RDcvGHmtYc7CJfbi1AS1ccHgZtnWgUDrwea3vGDVv08Bi2F0pOP7ey1BTTvCrUd+UEm1NDW+sMmEslL1Pd4uzVXV+FKvRSnY0rXuyqfMuSjVaRe5cWBVC3XWMNsilt7a1SbXXKzTejaboHWKlta6dUbjLVWh5Xh8Vrv2ubttkAri7o8ItnXVLdtbehDP9TkbrxvHlHmf6+DPrV79pP/HhjE3BD7/9ruxNNlC203v6pfJn+mn46J/TOjCchbGMLnj7WSRCLOw5cXUdr1NMLEXymfYn38p1GqzauWLfiA7I3GxnNouZ9U4c6HsjR2rDVzYN76px8zFecmYUa2+WB7axxxzZOzVqpVLsh9Di4Uxwq1Pq1ZuMCGiVCcOjwZBG1QCLSUbG7yxPsf2tdsV+JzlK3luI61AGwu0/4zsZ2ZD8r0sMd+2x5KvuacG2ZA6cpTG2nO+KBjmTPCzobJ0lM534dMfR7ch8POZZdru8RoX9toQ2PP3hDZ6fZgP6s9rXvTWAAC6ns4PW/vf1erEhaixa2/2VqP6reGuUqv32h90F5rDT/K6YaX//G/1pr0ojga3tLE2v9VNGS+WC6jyY43oKdW90cYuhNnYbne2m+CWp8LdA60928KtQK7VyNvumrHeOUsLaJqjTbZFqe9grwrggEkjTJCr06bovttozGhzrPs2aV3swSqTo7TtL+aa6ssH9GO3Jla5Pmf9xuuEHtKhpmh5uzVa3XBI6tEr1LXwnXcCn819OzJ0XSwCiQvwbIUxIkFl557Iha4XTszl5d5oYm7Wqi1m29Leflcut11LBTiyjR1btcfu312ct8LWvfYYRum7wRaSHFosjJH2mF84oaSP+UUSlFZIwW818sJVgc9ZvjpnXF6kxdScrGhXTy/sm/O4PXrOQwE133F02bbL8j4V2BPfq1Z1NV0IAaArO8wKZBxS0x53Nyp04drBKg9qw7IG1V8pPXBumc6Z59a3Q3l1oBJhohvglXPco63RrD3vurtRPfvrC+5u4czSgL7mn2gI7EA/vKZM5T/5rKbY92TZvo4JXTlk/wNDcbVY5cO7AG/eoOfaeQGeFsKSWheQvJYoc8F8/g3f1OLgLTjGqBVsK5bX7c4GrsS+qrPty79Q3/pKIefryq5Q5yxffitfF62ml+O4WhWQBpTqWPOP7bIZ+vzcEJxTCwBwJDtyqhF2ZtW4FSUaZUJW+WPS9eYCf/lst74dQtUIEy1VhbZvlz50dwtnvhptIHatZp3hxw+ngm/5uT31Q7e+69mtDwKtvsXPhJoxpTFX3cvQYpGD1xLldcFLjN0J3tpYwGDjS8l9eHNy2bFAGQLXxMmjZCet7fyKjK07Z/nyW/lcq1kRSW8BzKGxWTvNP7YYSfiz425dbYJqAECHK+qw5c1zlOiG6I2F6aYTToiOubpUJw+SDjWsaUO3qwY17Ze69TLPUwgrjtEm8//xilM+cSs62cOvmXNWqopJs9yKhLkaMUxqeut/vNanxh27zH/7a0CgYEZiHFeLXFfFoA93mYuwniM0Jri/LPxtC9nC9onGmqu/5s3HmNjXyXav0TtphWCs8ZpQ1k3a/laXmJvOK3JwwzdbKBjhFx2w22UtBpGrMEa+GrfpbfPjyWIZSZFCE+4i2O8SluDGJAW0tbtgvh6vcYHLG28W1EJhjGza0tWvwOcsM7+VLsg/t2Z9ts9DQP7vQx6fsxY8bs9dabkmRp8r9PnM3A3Q6/bp7vs6prtgNmfPeVI1NTV6cg4FMgCgqyresDX8Dq8aXP26RNltv2BGtxGXhSoPTp9qS2q3deLZNfrAXgMMmpRezfCwMEe1a5rVa/x1kcqDl5hzVqeXEqXaXShLFsyw5dznnGmuM+xFSYofyio04hp/OVGOPqrxFlu0xOxvTnhesAF31YaOw0rs86y7ooHwcLBG966zVTinhCoPTphwmUb3OKT1ycIxnSl1EV0ybHD2cUguBFjpF/VWovhClsIYeWvWXa+Yi+Wys0IX2xMnn+0XPUgWmthmh+CEilxcXj1VY83Ph6rJbdyg15pLNXZaISrH2SAQ3Y87f9GxQ4kiDVkLY2Ri9n+eX4yhdd0wC3zOXChLvc9ZSrh759ZsF62eODJ8HJ7dH5nnMO/DhBaCXYufszwk3vPzguPqzGuwXUeTn083nq1sVPLYbaXJ83tHzkXg3LalemX7nK2JX/KjX8np52uGdw8A0NXEFrZylchOK4+dp/KJqRLbiyb20/pn3Txcjq0UlyibnXxuOw9SaJ6t1lm4xJah98vOJ/bZ1uPvihpvOUXzTQ49bU5qDNh5fcMVDG0o+1Vy4mS7zRTtmTtET7/lHk54uMqVlnf78krO36M/2cAaYvbnrbcl5lPPe5F+l16N0O3TK2Gf2PbZhZ3WBbHgNt/mlYMPfravHbE7XMGwU/kX4FbO7n+u9cTK2OpSyOILtpte7TZzEZ8YH5Mo4x3u9vd4jS0ZnxqPdc7eJbrg+WhnYnOxvCBRqju1P+8W6PpnL7QT68+34SkwJit1kW331aCRbr1/cyXBI93JvCINuQpjJATHftlxQHY+rSzze+VU0HO2Td+zJdBNwEi8RtUmyrcHJc6tDbOp5118QkN6NcLGN/UtO9YtuU9/v2kBuKXPWV7scZnXqeC5TX+f7Pi74LF/105JsGCDFzRD7Ll10wWkjt3eAiHTKw/v1nvjAQPnJM9iKule1N2r3nP3+9u/CQIAuqD4JjUuJDdRsZ0/Kxiuik8BJjVGOxVuUmPkz5t/alh91omAjyx+S5ANKLlKoGedJBhImqGf1nxdQ5pf18+vuNvELwBAV3PkFMjoEvyy48CRpSMKYxSPrlMYA8Xu7DmVGmL+fW8VQQsAuirCVger29VNGtqsRZVuBTrUrNubVaFu2vQirVodJzDnE/zy8PcHJ9QFWumKn3qFMb5z+i79vrpa3/+lWw8A6HIIWx1s/u39dPcfpTN/YOd42k3o6iCzbt9tzneDbv7yIdUt7qdpK9wDAFBsfvl9VZuQVV39fT3hVgEAuqbiGLMFAAAAAEWGli0AAAAAiAFhCwAAAABiQNgCAAAAgBgQtgAAAAAgBoQtAAAAAIgBYQsAAAAAYkDYAgAAAIAYELYAAAAAIAaELQAAAACIAWELAAAAAGJA2AIAAACAGBC2AAAAACAGhC0AAAAAiAFhCwAAAABiQNgCAAAAgBgQtgAAAAAgBoQtAAAAAIgBYQsAAAAAYkDYAgAAAIAYELYAAAAAIAaELQAAAACIAWELAAAAAGJA2AIAAACAGBC2AAAAACAGhC0AAAAAiAFhCwAAAABiQNgCAAAAgBgQtgAAAAAgBoQtAAAAAIjBZ8rKyv7h7sdj0s168t9OVYlbPPjqz3XZ3BfdUpwqdM+zs3VGT6mu5gea/bBb3YVV3nWbbhq/V09XPqhH3bpMrnrsJ7pomFswCvv6PtHyZY3S4jKdM8+tihr4oGrP8A+g7pUpunqHdxcAAABAQLwtW1f8VDX/9iX9+RfVqq62t5/rz1/6jp6cc7bb4DBRNU3PrfiJ5l3jlmP26JU/UGWluc1dpwNuXWF8qkVPNapiX189lS1o9bhDi03QsiGrajFBCwAAAMgmvrBlW7TO66/Xf3GZ7n7BrdOLuvvx16XTZ+nmSf4a20qzwgSV9NttuqfK36Zt6nTThX4oKYZWra7gxw9v15k9e+mpS0o0362L+upxJ6n7/lf1NCELAAAAyCm2sDXj66eqpH5FIGg5L6zSn5tL1Huov5hspalcZuKRdGDNPLd8h26q9bdBB6g8qCnmPalb3FM/dKsyOb400SEUAAAAQC4xjdmaoZ/WVOqjUKtWyoz7avR1/V7V33vCrbEqNW/FuRpgwtb5t9jYFWC76c2p0Jtz79D7FwXGK+1bp3suXKQVbjE6lsm3X6+Yn0sLbtdcpxXVZW7B2LJMlVcm9hSQY7vMz5cSHkuVGkOWYINl8LWmxmxt1hhzLirc+uh2Sd55GaPGHGO2/H32cEvZ9/Xjhxt0yef76u4crVrW7HFL9Y3SV/Wj5bfpD24dAAAAgHTxtGxdMVJDmv+sVV7QssGrRjXuZsdrbd190NusdXrojDk/0ZRdiZavZarrOUY3PVbpHg+2krlbTYN7JMwGkBXVfUwIS2xr9jXsXK0I7MvyujiaoGVDU3Kf64cnx2ZFx06FtjO3YAC66rFp0iOBx82xdR8/W8/dlYhUzr4+mmKClhL7ctu1ZTyYPX4/vLl9meNUpufUJxo7VGrefEzOoAUAAAAgf7GErbOP7S/t3a4XdbZu/uXX1f/Vn6u6+vd6zzy2a2c7KhFuWRZolVmhdVvMP32PVTgitaRSF4/voQNrFgVau1Zotg1mwyakxolVTdOUYdHWKePhB9s0BuzRKyOtaw8v0yv7pO4njQsff88e4ZYqt13FOdNa9zqTxx+obFi7SL9Ys9+Et3N1lVvlmf2xKtRNm148yq0AAAAA0F6xhK2h/Up0cPdWadJEfan0oP68xgSsSYPUXwf1kVndVnXrM3Tza61rhptgsV9vvhDpSvfuXh1QD33+eH+xclKFuqtB69oQrPJTp/f3uLsh0ed02/XsI3doecl2/Ct27DX/7aMvBoqPzPrC38x/P6dtLZ7emRp9nHRg+0q6EAIAAAAtiCVsDerjt2CdPf5LKtEubbfdCYf2Tt3vRJUDzcG5Lomh6odzxphwknJ8/x7Svr161y23mysPH3zOXOO9gt7dtd/dy593/CrTRZHnDI0/y9tMPXLBUtVeMFrrF0/RBW+vdOsBAAAAZBNbNcKk5o9kG7O8roUBXstXJ/BbdmzRDDeOKXJLdN/zAk4rW5OycoUsutviGoHnetp2g8xDW4KfH9AaUuO1QrfWVnpcoKtNyKpavF6jTehafOJktx4AAABANvGHrSAXvGw3w3aN3WqPSHfBbPxQVqYx+RSmqN2pRvPPgIHRwhM+v0ufCXhPt6UbZKXG2BawPTuTVRfzkam7YDbzP/yc+e/fNLjFQWELtP4DqfugyfqqWwMAAAAgs/jDVmlvDdUMnX96Yn6mGRpZ/p42/tItdrTaRVq6RaqobmHS5ERhiuh211yXoTJgg/5ii11EC084fvDpoZNN6PLZMvD5dSO86jFbAr5BT2cqS5+Ld/y2u+R1GY8pZN4xqtMhjTj7U7cCAAAAQHvFMs+WnUercvfPddncofppzdc1RAf1+i9WqPe/2fvSe89X6/subGWfqyowP1aW+aS8n+0bnmsrxJsjy5Z4T+82F51/yhOZt8tKO75s83HJnycs2LYVrGQYfT772LrRkeNPdDf0tnDSjin9eVJst8FA9UEj4/nN8BqYZwsAAAAorFjC1tlzntR3+q2ITFrcCXKELURUHtSGH+yR/jhIo27PXgKesAUAAADkJ5ZuhC+u+bMOllfq5kluRSe5arStvLdX7xO0WraiREu3SqVf3qtFOcZuvdvclgmpAQAAgCNPPGO2XrhbK+pLdOq//VQz3CrLtnj99Aq3UHCVmvdYICW4SX0PrFkW6laH7H54zSC9vO+QzvzBPv3YrYv6Q3Oj1ON0XTTQrQAAAACQUSzdCBPs2K2vl7sFq/l1/fyKuxVbHUKv22BqHqkDa+bp/FsikxejBZ9o+TITqBaX6Zx5blXUwAdVe4Y/EKzulSm6eod3FwAAAEBArGELAAAAAI5UHTvPFgAAAAAcIQhbAAAAABCDWMLWkCFDdMwxx7glAAAAADjy0LIFAAAAADEgbAEAAABADAhbAAAAABADwlahXFOrW1e8p1ufXagBblVuszTlWbP9Y3PdcvuMeaw1z91FDDhZv77hm1o882RNdKuKSrEfPwAAAGJF2AIiLq8mQAEAAKD9CFuF8nCV7qwcojsvnK5Gt6pTVS3U9balLdOtQK1p7dbYrJ3234+atcpbUWSK/fgBAAAQK8LW4ap2uh6w4c/c5q9pNivq9LxbvvPKOf42AAAAAGLzmbKysn+4+wVj59n68MMP9fHHH7s17WRbaeaMUN3cU9R40Xs6b5hbv+9lzQ+0JA246w3NGr/LhIrfacCzN+m0nu6ByHaWv22pWzK2PJUKId7znSmtuUcP3DLfX+f4Pyf9yRzL0lqzwo7Vqq7wH7SC+4mw46qSx56Qtr0dyxU4djWnnisg7fitDK/TSp2XKq1z6xK8Y5I5hqcHe6+5l1tfXzNEv3rYLQQknjfb44UzWPfdcJaOXbdE39ozSourBrv10tba3+h7G92Cx992qFuy5+y1RUt0V+RETJw8Vd8dEzhnDS/pgppt/n07/mraKJX4S+maN+hnC96kBQsAAAB5K6KWrVKdNscFA6+F5inV9zxTs9K6xFXovBU3qeKte7Js5xem8MOHa+mx2wy7JFVgovZ/VLdP6nXSVyIFJ2ZpzEnmYn3L0lT4SXQfrLxHfzI/k5n/nOf1NWEo+ZyZtp+rb5tjP21P4jXaVimZ1/2GplS5TQwbkMLHP0TPb3EPtoV97XP666XkczarvDr8nD73+o3y0R3TFbFkzFQTtKTn7v+NLjC3n61r1tCqqbol8caMPEuLXSizj/vbSGOnfVP3jXTbmM/OLTO/aYLWvuR+Lrj/JW0tMz+bGJvV+Ka+5R57rsEs23CV3NbcCFoAAABopeLqRhhqBZqjWts9bthYjXFrEmyrS6pFao422SDSd7AfnK65WKf1tK1FwVaeOfpVTZ1kQlnVNXZ5vta9Zfbdc4TGBANH1VdU0dPsf30ru+ElnvOR3OO5Btw1ReW2u1+gpavxlgdNKDNB8yIXbqoW6qxh9jWmt1K1Xfh8NL6wSU0moPQ93q1IcufFaPU5aCsv9Lykx93iqs31OmiOrXc/u2RC1BmDvRaqb630j8tatfJFvWYWh57hgtTIURpbalu7UvuRtul7tdvMLkbp/GQoAwAAAAqnqMJW9AK/cccu89/+GhBqgWnWnnfdXWfdlUOShSvGjLZd/napMdItTw+/pnrzT6+Bs7zFxluWmuVSVUzyl60Bk0aolwlDm1rZfc57zn2btC76nCGJVrPXIiFqvhr3mH9cWGzrMeTU4rGlNN5yitf6FW8XwoBo8QnXAuV1IxwwWCeaU3Zwb7SJ0PzMFpO2Snt7XQsvP8F2Qdyn7dGku7FBW80/x/YNdC0EAAAACuTILJCxb5c+dHejevVPDKryW8RSXQn9MNS05ncFbFEKGqa+dpyW7dIXqR6YNs4LITv3pFq1wnpqUKK7YfNHXrDKpKRPcoAcAAAAUDBUI4xo2pUa/LRuve1a6LoSel0Im1X3QrhgRuFs0R7bQGO7SrqxU6FbVykpX1QytGZlkN4yBgAAALRfUYet/LrnhYUCVNA1Y1WuSJh6+HfeeCnbldDrvtfK50r4cFezec7++oJb9njjuNx9T7i7YDYZu066cVwdwVYjtK1t3/bGtnWyxm16247N8roJBpVq4rBSqaHBG6P1+Dt2bFa5JkZP7MgyDTXv+dubwy1jW/emuiACAAAAbVW8YeuaWq97Xf3yVrb4uAB12tWu8qBnrr5ty7cHqwx6/IIQvU66WFUnlbb+uRy/4ESFzrrLjf+ypeWr+6sp0qCy7umX1ZSxwmKAN7YsUDDDHrstU78vW1e6Qur4aoS5NeuuV0yQKjsrUHnQlng/2y+IsdqVdd+4Qa81l2rsea5ghmew7rPl5Bs2pJWIX+U1MQ7WOZMZywUAAIC2K6J5tlJzQPnS559KmwMrq+hcVlJThjm1PMnntpMCZ5mnKkurUmguqtB8XP6+lJjjKjTPli3/fonK3VJCaF+h8+Gfh3WTzGs/aVNqnq2M58wJVHX0jt+WpA92U3Q/25RhLq2OnmdraHAurGxs+ffAPFy20uBzgQqGPlv+faoJYW7ROGjn8ApUMQxKm5OLebYAAADQSkUVtjJd/AMAAABAV0SBDAAAAACIAWELAAAAAGJA2AIAAACAGBTHmC0AAAAAKDK0bAEAAABADAhbAAAAABCDWLoRAgAAAMCRjpYtAAAAAIgBYQsAAAAAYkDYAgAAAIAYxBi2ZuqRC5aq1t7GzXTrMvlUi55q0IbbP3XLAAAAAFD8OqBAhg1d1ar4oEZVaxe4dRGz96n+gibVLS7TOfPcOgAAAAAoYh3QjXCBnt58UCr9or7q1qSZ11N3/7GbKi7YrUWVbh0AAAAAFLGOG7PVo4+Od3czmX97H72875DOvPKgZrl1AAAAAFCsulCBjKM07Q+9pJ57dMlstwoAAAAAilTXqkY47xjVmX8qTvnEXwYAAACAItUhYesPzY3uXkuO1mtbzT+f/ztdCQEAAAAUtY5p2dq/Vwc0TOeeONmtyK5uVzep599V4ZYBAAAAoBh1UNi6TRcsnqJlpTd6824tziN0AQAAAEAx65iw1eMOLTYha/T2KaoyoeuCt1e6BwAAAADg8NQhYeurx52k7tqi9Tvcihwq+h+S9n3WK5QBAAAAAMWqY1q28vaJxg41//zls5rvrwAAAACAotS1wtbsj1Whbnq55mi3AgAAAACKUxcKW59q0VebpK2lmrbCrQIAAACAItVlwtas2/fqzJ60agEAAAA4PHRA2Jqpi4aXSB+s1zy3Js3sfbr5y4dUt7gfrVoAAAAADgsxhq2ZeuSCpaq9oFoV+1/Vj9YucOuj/O6DzX8cpHOypjEAAAAAKC6fKSsr+4e7DwAAAAAokK5VjRAAAAAADhOELQAAAACIAWELAAAAAGJA2AIAAACAGBC2AAAAACAGVCPsSgbeoZP/9XR1d4tqelXrH7hNn7hF5GniZTr+urE6tOT/6oMn3Dqkc+epm+q15eKf6YBb3WXM3qf6C5q8u3WLy5gaAgAAFB1atnK6VPfMfkILJox3yzHbcZvevHOKXjG3zVvdOnRNNqj87j903Ay3jMKqPKgNJmjZkFV+LkELAAAUJ8IWCqb7vf+hU0wACd/uVN+JboMjUNo5ufdf3CNdwKon9e7F/1dvdMFWrVlnH1Lpvr56ipAFAACKGGELhdX8mjZ7F/D+bUt9qY677j90/I0nuA2OFCeo74L/0LBy20UvdT7eePPkI/BctF5F/0PuHgAAQPGKeczWeN047SqN7uEWdUjrn71a9+72lyZMeETXjugmbV+qaUt+66800tb3u0ELLjxe75if/WDcE5o6yG24/w09tOh+rXaLHm/bU2R+2mnQknm3aaFbSh7TPrPvtQND2x7a9Khmrl6Tev4sEtu13kyV31qtY92StEWb77xOzW4pqHT6Ug3vk33Mlvf4ULdgba3RKwsXuIWU6HYH1t6rN/9rpVtyomPFchxXLrYVZ1gfE7ZmPqm/uXV+6LhWx5WmxgV97sY7Nfy0vWZ5iY7xHvO39IJa6GfdPsvdgnHoTw/p3XvfcUsJ/6LjfjdVfd1Swp7kmC3/8W6Rn00dR7RlJ7q/1LFHjycq+ZwzvqtTppYHjiGXxDlyi+bMf/Dgrdqzyi0aLZ8ztw+ln8PE2CwlXn9yrJaT4byntHxsln98yY2yvE/5+/HDDbrk83119yUlmu/WAQAAFJsYW7bseCcXaubN8G4PbZJGX/iIbuznb7F69dVast3cGTQpuc6GpSsyBDCZS8PRF5qgpcT+lqq+xym6duql7nE/pC0y4WnXKv/57G3J9jJNnZ16zqRBU8y2NsC5bVc1qNuIq3TPcP+4ks9hNrXhKrE/e2tT0Dr1QZ1hg5YNRW5c1it3rlef6TPdBvk7+mvPqM/mxD7M7T9f1YGh1Tojsi8/aNnglNp2W99rdexAt4HlgpZMCEvtb68Gt+G4MntHH+91d0PKNex316r3Ow+5Vp8l2lM6VsOT3exs4HHhLdEq9OBr0mnXhrvieWOn/CCVbD0y27W5XcSGJBu06pek9nfxm+rpnvPAjeHnsGEqtV16sOp2bEutWPZ1mjCzN/V8m/8kHXddpu6Xuc7ZO2p+x8Tj0uNVGvm5z335eK8IxoeJ8JPsPmhbHv1VGXnn1gU4t/0bF/9KOu8yfc5tYtkA6gdBt417n2jBAwAAR7rYwtaECZPMpWGDlgQC0+rVT2r9fhOaxqUC0sIlj/rrqm7QBNvqVHWKutkWq1DQckIB7Ldasslc7g46SdO95Us11YQ0G4xu2uyt8CxcYgNT+Dl9tsUr1cqmzW95wap/nziKYUzWsROGZWh9WqD6DK1RLfnkv76h+tfdgrXjNm2zBTWGjlaqbWGy/rmP+Wfr+lALVfPCb2jnDrdgDeij7jqoPRsDrV22UEcbjiuzE3SMPY7mv6S1nNigkmr9+G/ts29AnwHehfznbjxbfW2LUrDFxYSEhj+ZV1NuHnOBovt5Y9Wt+TU1tKMVJeUE9T27XLJB68b/duus/9YHoeU8PLFEH5hD7WbDYY5xa8nXGdj/3+79lfnZUh13Xvr4rlzn7G9/fNcEwFL1/nIw5Jyg0hPMp6L+zVaPy0qc23Cr1zvac2Ng2QSyL5hTtmdJoHXQvU/dTpsaaC0FAAA48sQUtsZrQpltnXor0H3PWqMP9pl/eg40wSphje6tfUOHbCuVbQnrcUjrayNdA536reEAtnqvTUr9dJxttRp+kgl30q690Van3+pN23oWek5jf5MXrlJ+q5va2mrVkoGT1beXtHNzoQJMuk/2HHT3Elbqr7ZFKUOLV0jjXnORXKLyf30m3OJVIN3vvVbHlTbrgyej3dSa9cl77q7jtRq5LnFeQMgQ0BKB4ughdulf1NO86Yfe+WPadm0y8cvqbZ52z5utDFYZmVAy07yeJfZT5o9bswUywq092YKQaw10ISol1zkzTMj50DxdtxO+nPq5Nr+m/M5totVsX6RF7287vRegY9pUHOUTjR1qXu3mY+hCCAAAilpMYatMvew4LdtVb/YToVtyvFXQ7vv1S9tKZRza9GSqtanVDqlpj7sb1aOXF8Y6hWs9+mujW243O/Zrqc4I3EaPK3GPpTQvnKL1a00Is4HLbXfy1ya7Rx2v3HyNdnqBK7G/BwMtZK1ku7UFqu/53QDTx/jkZW9j1gv9lrvntcGQz5vgkB5o2uWJn7nudw+lWroWJLrhletoe6LLpybPV/K8tfHDeuBNk7YCXQm9MNT8mna3OG4sYuIAcy7MN2pn7hbDz/X1XoCGRY7fjldrvU+0fFmD6pd9rNfOLdOo249y6wEAAIpTTGGrQU37zT+2219grFPyFi1qMfwOryBF/fbUuKmCS2vJ6kCu9eifB7jldnFFNuyEx4GxWF6oysB2OfS3uVf1TVL3cTemBy7bnTGxryVbzPIwDW9r4LLdzpLjewKtLgXWUghok/f+Emg1KzS/pWuz7QZpAmk/b36uen1i+3iGxoe189w98ab2mNfgdyX0W87a1PK3qtEbk9ZSqP3bHu8FpMZrhW6tDdlH6xwTssrPPUZjTejacPunbj0AAEBxiilsZeoumM2lumdimRfMblqyVOtNSCufeIcbh5Xb9KHm5/a/q9W2Jcwbc9VNJ5wQHXN1qU4eZC7OG9Zk7JqYmx8au/Uyz9MeO96XjULHDi9A0YlTR3vVDHeuzlylMLuV2vmAC1x9h7l1Gbx+nQtcA/TPMXQrzI8r9lB+ctqYn3C3NT+sdOsbbkXxxhq5+9m5LnxBLmD0PTl9rFSaPMNIbtm6C7bHf2u3HS9luxJ6XQib9dEf2xJM3bkNdknMoH3dBbM5Wq9tNZl0+Mea5dYAAAAUo5jClrRwrRuHFagWmM6WYZ8SKKThxm+pTFNz/pwx/A6vS2L9ukQrmV8wo9uIy0KVB6dP9fe/sk1jsVxoDFZLbJMF+tB15wu3Ks1UeWur/nmtZOHgZqsOpncjNPu+/g5z2Rrgxo4d2GPDlM9WNiw/1S04pcNtGGvUX4OFNDrY3+59UXts97RI5cGy00p16E9L3BinRChLFcywJciH9Wn2glBKNDhEy5kn+EHFdusLj636Fx0XPA6P22eWIhD2OI7zWq+C/kX9bHn0QLe+A8+/pkOhKozt541rKz1e/c4zwbTenMe2dOG0LXEv2i6J0WMz5+7eQDVCrxCIHZP2XYphAAAARMQ8z5Yt/27DTlj9qhmyFQOnT/XHcEXnrco8z1Zw7iwrPGdXQtocWWlzcbl5tpRhjq6MonOFpR9v3mz596nBVqXwfFY2+GQae2WF5seK7Mc+Vqdrzc82hufHSps/S9q5ZEq4kqGRNmeX7aKYZX6vXDLPs5XOn5NJGedrCovOd+VX44uWVw/NfeVVEpT3cwptG96XNw/Uzqk6xWyWNs+WmyMrJTXPVlju48s0J1fb5glrzTmzUmEy0/mKzokVlHZ80Tm5zKcr0zFknH8srapj/phnCwAAHA5iDlsF4sKWnT8rWNYdwOGJsAUAAA4HsXUjBIC2qtvV8qg7AACAro6wBaDLmf/h56See3TJbLcCAACgCBG2AHQ983qqfHEvVVxg591q0HJCFwAAKELFMWYLAAAAAIoMLVsAAAAAEAPCFgAAAADEIJawNWTIEB1zzDFuCQAAAACOPLRsAQAAAEAMCFsAAAAAEAPCFgAAAADEgLAFAAAAADEgbAEAAABADAhbAAAAABADwhYAAAAAxICwBQAAAAAxIGwBAAAAQAwIWwAAAAAQA8IWAAAAAMSAsAUAAAAAMSBsAQAAAEAMCFsAAAAAEAPCFgAAAADEgLAFAAAAADEgbAEAAABADAhbAAAAABADwhYAAAAAxICwBQAAAAAxIGwBAAAAQAwIWwAAAAAQA8IWAAAAAMSAsAUAAAAAMSBsAQAAAEAMCFsAAAAAEAPCFgAAAADE4IgOW6XTl+qMW5fq5K9NdmsOI1ULdf2K9/Tta9wyPFc99hOtWPETPXdXhVvTXhW651l/n/O64Ln+6onPqPacO/RVt3xYcJ/tWxO3ZxdqgHsoo2tq89uuIw18ULUXPKjZbhEAAByeaNnqQF64u/4OHe2Wu4w8g9mAu94wF621GuOW0cGqpum51oQ6c0H/78NLVPfWbfqDW9Va+b7nYx7rwDBTO10PVA7Rneb2/Ba3rgvJ65ztqNHa/cP0jcMtCAMAgJAjOmw1L5yiV+6cojf/a6Vbg8Pdo1f+QJWVP9D5t9S5Ne1Vp5su9Pc5+2G3qivocYcWnzFMBzbfq6t3uHWeufq2CdbX3zXLLad4galLhGn/GJMtV1mON28PV3nB7M4Lp6vRrep8K3Xz8hrV9Thd/z5uplsHAAAON7RsAYeh2cNPV/f9r+qBt4vsDwlel79LVL7lKT8gudvTulhTqtw2h40FuvqVLdJx1XpkoFsFAAAOK58pKyv7h7tfMEOGDNGHH36ojz/+2K1pp4F36OR/PUl7/vMb+uvkpRo+1K1velXrH7hNn7jFo7/2jEaPa9TmO2v0z9ffqPJe7oHIdrY7X3Ifxs4lU1T/uluwvOc7XVp7b1qrl/8cUr05lp2JFoNTH9QZU4e5BWuLOYbr1Gzvun1199ZnEDk2abKODR67DoafK1+2a+CcM9VUM0SbRr+n8xKHt+9lzXd/4bctGcn1GdSbn/3Vw7aVwVz8unXp6vR8ZZXWmXu2+9SskzaZ/W9TVeBnmtbcowdume+WOocdq3VR4LXW1WRoibLd9OZU6M25d+j9iwLb71uney5cpBVuMbov3369Yn7uplq3mHDNdVpRXeYWjC3LVHllYk8BObbL/Hwpaa/Ftmqdc7oaX5kSadWy/PezV4b3xP882PfzNY3I5z13n7HkRzUq+lmTCVBPDw79jP8Zcwvu2LygdeUcty43b799U88TYoNbdWBsXo79ep/d8aVuKf0z2/JnO//vSdhk3X3OjRqnV/Wj5Vm6e17xU9WcN0QHX/25Lpv7olsJAACKQRGFLRdYttbolYULzJ2ZKr+1WscmlxNBqMS7fyAZlNK3S3L7PRgNW4nAYy6AMgahvYF92X1Mfl9vJvedCEuBwOV4Ia9PdJ9B2V5TJNzlI3ghnLzIzHKhHQhmqQvfdP4F6a4sF43hC9bkRbS74A1fVHciL1CNUWPWsDXG+5wdWDPPdTWs1LwV56oiW0iyvKDUJy1sVd51m24ar8D6zPtKhKlQaDL7nKcHw8eY69gDbFGMfx/eqGcW231E5RO2Uu9vS+95Qs7QY/j7tvea9ae5p2ipOR/+vpVcbstnpaXn9c3SlGdv0ml7MoettNftvg8KnKPUZzt1/NmON99zluC/X9La5d/QzfvdyoAZ99Xo6zbFNb+un19xt4hbAAAUj+LqRhgKTAv04dqD0tDRSv092mdbqlItUgu0d6v5p88XW1GYYqWa3jH77nWSegW79wycrL4mvezcHAhtO24LBC1rpXautqP2h6nPqf6afB39tXN1rG0VC+zvk/96SPVNJSqf3MZxHaG/5s/RJnNovU76SqyFDEIXnw//Tn/aJ5WPnutW5Ocrt/1OS5YsyXL7nW6Ps6qACUOpMV0rtM6+nX2PNVGpNSp18fgeJrQtCgSwFZpd02A+GhN0T6JLnAlQU6JBy3o4ErTyNlmVg0qkD9ZnCFqdLRBUjMZblqrefHsrJvnjscaMtq1QddrUptfdRiZYnWXOf31NIBjVTtfTa5rVa/zFaePX6mtSx6+HXzPHb75PA9sxnsz4wwdv6YBK1KeHWxHxxKb3vH8P/nkVQQsAgCJTVGErFHKMT3bbv2UP0D+Hxjsc1F8jf+L2CmFkbU3K7JP/Wqad5gKo78hUWfijR56k7iYM7Q21gmXQuNdcPLXWZPU6wVwkb10fag2z4e2ve80/rQqLKfXr8+uOVTjRi+X5atxj/uk7uFUB73/uuFhTp07NcrtYt7e1vF4e6tZnacFqjWuGq0L79eYLkUIc79rPRg99/nh/sXJShflMNWhdwQKGCfnmov1Ac+4yfb3G3xQqQGFvubqUFsS+TVqXDJ7WFu0xQbxX/7ifOLsBk0aoV4aA17hjl/lvfw0IjROLKQjuf99rlRtQmmUKil9+X9XV1XQhBACgCBVXy1aH8lvEup8w2YUcPwwdWFsTCUOp+bqSt1xjtLIapn+2ff6GVof3ZW7B8WUoDpUD+5j/9tAZc/w5uJI3100x4fj+Jhnt26t33XJHsWONggUo7K0rllGP2xf623bxCp0XCZ6hsV4AAABtRNjKoXmz1+fO70rodSE8qD0bwwUz/GIbtoiFX0beu/3nq21o2dqivzaZf2xXycR+grdWtswVu07tRlgAK3bY5khbNMMvCx+9JboIvrtrv9Szj1xD1xHtw132zxgVGtGBk0P7z2nHa4WDp38LdBkEAABog6IOW6XDh0lNb6mptZX68vV6jTdeynYl9LoQpj3XTPWxrU5bl+VVvOKTPXYcWJ8s3QHb112wXWq3yea8lsaeZO5a1ZK5GuG9Tf+To4BBus7sRlgQke6C2fihrExj8gkYtTv97mYDc7W6bNFek9+6lxama16+77kXWnr21xfccl6qvqKKnqmuro0vbPI+h60d39cebftM59bqffb4otfFtrE5S5n+STfryZoa1fzyZp3tVgEAgOJQvGHr1Ae97nU7V8fZ4uMXyuh+QrW+cEJJhudyrVHBIh22DHyWboT+GLNhGvy1zGMzmle+qgO9Ttfo6R09yakbO5OhIEDIu7vMxXCpTrso/4vhMY/Zcth1eilS+e6wV7tIS7dIFdW3pYphZPLwMr1izn3adrYaYVoAa9BfzLbdx5+rq9yadCu1YrsJ9ceN1my3pl3yfM/9gFGhs/KefHiWplx9pnrte1m1iXFQrjCFhl2iWx8LP9+Au2rjmWfLK+BiXt+cAk7m3MrvyVePs2NBD3ohOZOzx39JXo3V0lN1/hXeKgAAUCSKr/R7Uvr8U/mVSXfl1d1SWHq59tRzZ3jME9mfnTerxlx2ZiwpHy5P70mbZyvz8aXNBdaSLOXcs5fKTp8nKGMJ7ujcRV4XLL+SW7D0e1JgrqXO40quu6WwBj1d+aAetXezlFb3SrP3Dc+1FZKl9Lvll3+PlJmLzNtlpc2llbXUfPprKfw8W5GS5Tne86C097+lOd2yzXsVnLbACc57lfFz5gS3y/icTvSz3dLxZS7nnv1c5nvO7FhQb56t5hpVrQ0XAEqZoZ/WfF1DzD3m2gIAoLgUVdjKFF7QdbR2fqHDRo6w1Vlmj1uqbxy3JctcWx0ve8g/wg18ULVnDMg6x1aCP9fWQb3+i8t09wtuJQAA6PKKeswW0BVcNbrM/Hev3u9CxRTmbbZFWobpG+M6uksq8jdTj5wxTPpgWc6gZcdsVdom5/oVBC0AAIoMYQtolUrNeywwvbGblPjAmmV+V8SuYv9tuuCVLdJx1Vp8Ypb5m9CJbPfBalXsf1U/ytl9sEY1/3aqdj1frervPeHWAwCAYkHYAlplhWavHx6aN0tr5un8WyKTF3cFO67TjzYfVPdBk9XFK+UfeQZWa1yPLXpm+W3KXljzCX2/2oQsc/v+L90qAABQVIpjzBYAAAAAFBlatgAAAAAgBoQtAAAAAIgBYQsAAAAAYkDYAgAAAIAYELYAAAAAIAaELQAAAACIAWELAAAAAGJA2AIAAACAGBC2AAAAACAGhC0AAAAAiAFhCwAAAABiQNgCAAAAgBgQtgAAAAAgBoQtAAAAAIgBYQsAAAAAYkDYAgAAAIAYELYAAAAAIAaELQAAAACIAWELAAAAAGJA2AIAAACAGBC2AAAAACAGhC0AAAAAiAFhCwAAAABiQNgCAAAAgBgQtgAAAAAgBoQtAAAAAIgBYQsAAAAAYkDYAgAAAIAYELYAAAAAIAaELcRosu4+Z6kWnzjZLSdkW99e/n5rLzC3c+7QV93a1pg9zv38BQ9qtlsHAAAAtAVhqxAG3qGTb12q8lPdchdSOn2pzrj+Dh3tljvS7HE3alyPLVr29kq3JmGlbn5ri7oPv1GPDHSrCsB7Pr2qHy2eoqrlt+kPbn1rzFtrftb8/DMfDNM3CFwAAABoB8IWYvHVE5/RN447qLXLr9M8ty5kx3X60eaDqjjjGd3dw61rl5kafZxU91bbQlbUvM2v6oAG6IsFOTYAAAAciQhbiMFMXTS8RAc2P6Sb97tVGfzh7Ye0dn+Jxp3Rti5/IT2+aKJRoZWoD2ELAAAAbfSZsrKyf7j7BTNkyBB9+OGH+vjjj92aQpmp8lurdaxbkrZo853XqdkteWyXvn89Xd3dYvo2/j60ZIo+7PeMRo8rcesz7Cvt+Q6q/j+/oZ07/CXbRW/4UP9+JjvNc9S/bu/5+ylZe6/e3F2tM6YO8x63UttIR3/NHk9jxuP1fva/gt3xJuvY629UeS+3GDy2tHMQ0fSq1j9wmz5xiy2fM/dce2v0ysovhrY9kHZcfqvWvw9v1DOLs7RqBQ18ULVnDFPdK1N0tTuvbdLjDi0+53Q1tnc/CYXeHwAAAI44xRO2Tn3QDylbzQX/wgVupQki06V6t+yHlZJQgPEDUTAkBQJUcl8uTCgYQtx20ee7/ov6MBhULBdWDgaeNyzwnIEg4x+vOX53bHmHrUQ4CoUm8xqmT1bTwvCxea+/TyRcBeR3zoLBLrDevSfBn7Xb3n3OjRrXXKOqtYnzlstMPXJBtSo+yHf7LAhbAAAA6GL+yf3bxZmL/QnRoGUtSAYte9H+BRMabEtLMPA0L6zRTpWofPJMt8axQSX5syvV9M5BqVefVCGJgV80PyXt3Bx5viyhJS/2OQNB6pONb+mAeZZ/bmX/t9LJ0aBlrdTOSNBqWSvPmRcUEwHMeH292U4q6ReoKthjsk7qIdVtzzc4LdD6D8w/pV9sf1fCQtr/vhrdXQAAAKAtiiNsDZysvr2iwSfi1NFey9HB3dHKdwu0d6v5p88XQxX5DryzMncw2fG+TPzSsVMLWGVw7/vh59xxm968M1trWDYz1WdoHsefj1aeMzXtjTynCZ/m+EPdCHv0UXdz5vbmGKsV9W6zOdPm5453y23x1eNOMs+7ResL1gq1xXsNFScVYDwZAAAAjkjFEbYG+Bfwf22xqSHHNsFWq7zYIHGv6pv8wHXGrfb2jI4tYKnyNnEtbukBqa0Kec46nh0fZufFul4PqSqfMWJ5W6mbl09R1Vt99O/tmLcLAAAAR67iCFuNe9vU3S4krVUmHyu184EpeuVOc/tPWwq8ROX/2smBy7W4hbruxaVN56xj/eHtb3jzYj2gaws8EbGbIHnQem//bZ23CwAAAEeu4ghbiS59w6NjiAK88UMl6jsyGkIK1O3OdvlzgSst9MUZgFxXv5Qt+muT1P2EyXm1On2yxxxZthaqOM7Zfj8Yt6Zk+vGlJd7PveuW2+IPH9jxb8M0ulBBuNVjzwAAAICw4ghbWqAP15rQMLRaJ38tGAxmqnx6IoD523Qfd22o5al0uq0CuEXbIuXJW3Tqg5Hnko4eaccFZep25wLQuGqVujVt8cluu+Nh6pMYI5aowBiyUjtXbzEB6nSNTr52y1YjvCMtVCX2OTjyWnwFPmfW/pV6y451GpQjGIf4kxGr+X1ajgAAAHBYKa55ttLCR/rcWIlS5klpVfsylFI3MpVdT9tXhudLCZZ390Xn2QqXkc8s/Jz2+Wr0z9ffqL7vROazSpsbKzwHWFBL56Tlc5apNH52rZ9na4DWLv9GzgmQW0TpdwAAAHQxRTapMYpDvnNntXZOrhwIWwAAAOhiiqQbIYrLAj29+aB0XLUeyTGG6qsnXqtxPQ5qba6S/vliXiwAAAB0MYQtxMJWCXzmA6nijGd0d6ZiGQMf1L8PL1HdK+3sPphU2HmxZg+3XTQLOW8XAAAAjjSELcRm3tp7tXZ/iU46LlqcY7LuPmmYDmy+t4Bd9Oy8WOb5dHq75sWaPc78rPn5bxx3UGuXF3LeLgAAABxpGLMFAAAAADGgZQsAAAAAYkDYAgAAAIAYELYAAAAAIAaELQAAAACIAWELAAAAAGJA2AIAAACAGBC2AAAAACAGhC0AAAAAiAFhCwAAAABiQNgCAAAAgBgQtgAAAAAgBoQtAAAAAIgBYQsAAAAAYkDYAgAAAIAYELYAAAAAIAaELQAAAACIAWELAAAAAGJA2AIAAACAGBC2AAAAACAGhC0AAAAAiAFhCwAAAABiQNgCAAAAgBgQtgAAAAAgBoQtAAAAAIgBYQsAAAAAYkDYAgAAAIAYELYAAAAAIAaELQAAAACIAWELAAAAAGJA2AIAAACAGBC2urqqaXpuxU807xq3XFQm6+5zlmrxiZPdckK29e3l77f2AnM75w591a0FAAAAOsMRG7Yq77pNK1Zcp6vc8hEtpkA3e9yNGtdji5a9vdKtSVipm9/aou7Db9QjA92qAvCeT6/qR4unqGr5bfqDWw8AAAB0Blq2srjqsZ+YMBa93aZ7qtwGyOmrJz6jbxx3UGuXX6d5bl3Ijuv0o80HVXHGM7q7h1vXLjM1+jip7i1CFgAAALoGwlYu+9bpnsofqNLdnt7SQ2fM+Ymeu6vCbYDMZuqi4SU6sPkh3bzfrcrgD28/pLX7SzTujAJ0+evxRQ1wdwEAAICu4DNlZWX/cPcLZsiQIfrwww/18ccfuzWFUKF7np2tM3q6xYADa+bp/Fvq3FKl5q0412yd0KCnKx/Uo9796GNRqW1ty9ZFfU3YunCRVvgPGoljSG1nuyPeNH6vWV6mLwaPzwa10M+6fQ5zC0b4uBMyH2NdzQ80+2F7z398QORnU8eReK0J2c9H9HiiUs/p858j0Ay1ZZkqrwy+Qp9t1fr34Y16ZnGWVq2ggQ+q9oxhqntliq7e4da1RY87tPic09XY3v0AAAAABVIkLVsu5CjV0nTPGr/JxAaCZOjwxh75QSTVGlWmi5Jjs1ZodujnbfBItVxVpgWVqDq9v8fdDbHPMVsnv5V43mWq6zlGNz1W6R63gceFt8RzzV0njZ+tFcltjAzHb7c74B5utWuu0wobtGwoSuyvcrPGuOd89Mrwc9hzmdouU9CSXpmbevyeXRMyjPOarMpBJdIH61sOWtaO9easmnd40Ex/GQAAADhMFEfYqhqnk3uaMLA81VK04pbV/kX66FRYueqiMeq+b51+EWjxefRKE3xMGJpSkK5/FfpiX/PPvr1611+RFAp95ijXbTH/9D3WxCwbVCaYnzTBLtjSVbtIv7CBb9iE5DiwTMffdiagnlOWofXJBM4MrVEtOb5/D/O667Si1q0wVtxyRyiQeXpM1klm07rtC9yKlizQ+g/MP6VfpHogAAAADivFEbaO76Pu7m7UgV0N7l6lxgwzy2+tTQUaT4P+sk/q3t8Ej3a66jHbTXC/Xnkk3D1Q2q+/RNKX12rkhasKVdr0kSGgrXihTgfUQ58/3i5lO/42SgTU9QXZm97dZYKhba17dpoXILPqYd+rg9qbY6xW1LvNB72f805DG331uJPM827ReroQAgAAoIsojrD18DK9YgJTxTmpC32/tWi/3jSBxVN1rFcgobvtmheqIJh5nFdebLgI7MvvBniHbgq07uRtz86sIWrAwEK0ukV4ATU9BLaVbcWqrDHBNnhOgl0gO4kdH2bn1bpeD6kqnzFiAAAAQAcpkjFbZfq8DUyBC31//FAg+NTuVKP5xxadCI47St7a0HUuWo3Qb6kqvMYdheg2GPHu3kCrWYE8/GDyXDxtu0kOO7fTA9cf3v6GCVlT9ICuNaHrQc126wEAAIDOVhRhKznmKRh80lqYWtddcMWOvea/ffTF2OfNqtOKt+zYrOFpEyhXTqpQd3Pc67xxT5mP3xvH5e5n57oqBrnwGRzTlpXbtjUtbLabpBe43Li0pP025JWoT+Rwcjm+tMT7ufY0wv3hg7fM8w7T6AJOkgwAAAC0R1GErfyCUZ1uWt7gtbbkNQ+Wa/k546L4W2b8Yh5luihSefDfxvfQgTXLXAXERChLFcywFQAv6rvfHGeQC2UnjXMhJ1tJ/BX6nVeAI3o+KjUvrTXK7XP8uWmB0GefI1HRMcEfY5bWPXL/StmXkX91QX8yYjW/z2TEAAAAOKwUzTxbWeeEilbbs+XT50Rbg/aHuxwm2NLo1cGWpMgcVGnzbKVLlURvaSxX+vxZ0XmsrNDr9F6bvJ9TaNvwvrz5unaca16L0ufZyvEaw1o6vvTHM88T1pZ5tgZo7fJv5JwAuUXMswUAAIAupijClh9AMgQmFySyXfSjs8zUIxdUq+KDGlWtzVUCfrLuPudGjWtuabs8ELYAAADQxRRBN8LE3FbhOZ48XldAdD0L9PTmg9Jx1Xokxxiqr554rcb1OKi1m9sZtKz973vjzgAAAICuogjCVp3e32P+6VmhytCYrQrdc7XtLhgo/44uw1YJfOYD8y6d8YzuzlQsY+CD+vfhJap7pZ3dB5O2eHN7VZx0B5MjAwAAoEso7jFbtjR7TOXYUQh+N8GTtt+rC95e6dZZ2da3l+uWaMPd/lf1o+W3UXQDAAAAnaZowhYAAAAAFJMimdQYAAAAAIoLYQsAAAAAYtDlw5btknjMMce4JQAAAAAoDrRsAQAAAEAMCFsAAAAAEAPCFgAAAADEgLCFPMxU+a1LdfLXJrvlFgy8Qyeb7c+49UGVulVxGXDXG7p1Ra3GuGUcfrrf+x86ZcFl+pxb7jyfaPmyBtUHbstnu4eS8tmmrX6sv99er7+PdYsREydP1eIbvqlfT07/1vmPnaXL3fIRZeRZ5rVP1S0D3HIWl1d/U4tnnqyJbjkepbplpnke8z7dN9KtOhJ574l/Hrxb9WD3QPt572OW70HRGHCyft0RnxH3PK353dAx35Mg950p4GekYPL83dK1DNZ9ud7zgYv0/27foE8HumUUBGGrEPrdoAWzn9A9w91ysXHhqPxUt3yYyjeYjXnsPd367EIV1e/PADsB+Ipnp6nSLaNlrQl0zX8cpPJzy7zbOfPcyqSjdY57rPwnfdXs1rbfLH36nUv096aXddRrblVc8rzQ6/iLrra5/ARzkdawQXc1uhUZDdbIMmnrK29qlVuDGG18SRfc/xtzW6LXCvclOWxMHF6ukuYNem6jW9FldML3ZMBgnVjarNdWb3MrjjAdFbwTdkzTUVtK9f+uXK7/davQfoQtFN6O2/TmnVP0yp3XFfBiEx1q4mU6/ncmgERv9/6L2wAd6X+/fbP+X686fe7n0/QZty5q1Z593r879/CtSzIXKufYi8N3cl+oTZw8SkO1TRtjv7ht1l0LbMj4jb7X5S6kDw+P1/jn91sri/V7MFjnjynVwS3b4g80jW/qW17ofUmPu1W5FOR7kmzVzK817fIJo0zwrNeqnH8sQf726SP71Wj+SFv9FWn+6Vd36/80Vehv31mkf7h1aB/CFgD9Y8oGfZzhF+ueJf9Xb1zsbg++pkPlU03o+q66u8fRNv/77fqM5zujgYv06TDps/+/c/iF3UpeC0GLF4elmjisVGpoyOuCE4jVyDITaJr19uauFhbb+z1x3ddOaNBzDW5Vi/yWtA4JngiYr6N+97KO6nWm/j5llluH9vhMWVlZwYOrnRvrww8/1Mcff+zWtF0h9+UbrxunXaXR+5Zq2tqBWnDhKermHjm06VHNXL3GLVlu2x5uUYe0/tmrde9uf2n61Cc0dZB/P5P6VTN002Zzx3YzNM+zK7HseD/f8w09tOh+rbYrht+hRRP7ec/xwbjgvhu0ZN5tWujdv1T3zJ4imX0t6fOIrh2ROPrgNvkpnb5Uw4e6hQx2Lpmi+tftPTtmq1ola+9Vna7V6HEl3uPSFm0Otl7Z7oj/enrqQrzpVa1/4DZ94hZDottG95Un2zVw1vhder7yNY1YcYnK3fqmNffogVvmm3tz9e3A+nR15mertK5qoa6fc6Z6ubVp9r2s+RdOl/3jmu1meJ6e0p1PDw79TH3NEP3qYbfQGlXT9NycMRkCzH69MvcO3VTrFlWpeSvOVYVbsu/505UP6lF7N+s+nH3rdM+Fi7TCLQbZC/+/mYv5o165W/9nqT1nhm3Zum6sDpmw9cET/irPjO/qlKnlOvSnh/Tuve+YFf+i4343Vd3s8k4TxMxjCTaohX7W7TPxiTVnTFsu/pkOuKWEz914p4afFhlv0fyaNs98Un8zd/3H90Z+NnAc3nGlRPeXPPa044kIPKfPjsdqVP8/DtKo249y63KoPKgNP9ijXYszdDe0/eKvPFOfms/f527PHaK89+fzL+voHK1aLbFjtr47Zp+eu79BI284y1zM+Q6uW5JsAbDdAs83FzbZbK39jb63+2T9etooE2CyaN6gny3wuxh5zzms3iw36/wsz5ngH1/gPW94SRfUZG6N8o+zWa8tWtJi18D7zPMem+H5Quxf2qt6Zt6f7cITer3pz+sdj8zxri4Nbeudr2TIs+NOpmps8iXmc/wt8I47MI4lyzmLvq+Zzr8VfQ/C22U+l6nPVbBlpDWv1W37Ubb3O7qv9ONP++w44fPva83nLB+5z5mvdc/ZwvmIvufaFj733ue1XG+b8719QuB9D3wvPdHPdfTxTDJ9T9x+lPV1y23vv67er/jvif+ZjBx7Bv4+op8vt77F3y2Bcxn5bmZ6n/L6nqT9PrCCn+/WfE+MHN/h6PFERT/f+X7PW8O/Nsj1/6izdfMvv6NTS9/T76u/r+D/7hF25IYtL0AFwpMXdMpSAcmFmvLtJpQt+a1doQkTbLhRKHB5soSppFaFLfdtST6vO14ltnPHlXObVnLB52AyXEX5YetYezcZoCbr2OtvVPneGr2ycIG3VZAX5PpkCVvu+WTC25v/tTK1bvL7ejPDvnLxw5b/P7Jk2LmmVrdW99ef5p6ipcmgktjWBjMTrty6TLww1TcVrqK8x004sb9kE8/h71tpz9kiF5K0Zp7Ov6XOrKjQPc/O1hk9A0HKStvOH5t10bDIdoa3vm/2cJVixwHZ7mm21aRcnw2OBcoWttx6RcJWX+/BVHjyA470wYO3ao/5P3gi8AQDmB0nNay8OblNal04hHnr+rQlbJ2gvguu1XGl4ef43I3fVekff5ZctqLPkVkBw5bHFry4RH83n6P/89goHbXDrQ7xt/lHMAi3QfCCL/k/6Wwhw11Q7MxwsRrk/c+9d/aLtOzPOTh0oeBvl7goS607f8+SDM/vX8zYi6sWLyayvb6I7K/DPNfMUj0XWO9f0ITDQ+oiJ7U+02tKyvO4cknfvzsvkQt5/9jCF7WXV0/VoNXB504EmvDrmjj5LE3c/FJo/y1fRKYfR85z0UK4SDtW9/nJ+d5n+fxmOg67LvPnrCX5nLPENsHz785PtnCT67tnH5vQrG8lz1OG/QfDQPI9yPzZSGjpe5yQeTt3DMqyPuv7mv65TJd9H/572dLvlsT5sfcD71Padhnek8R5DJ6ztJ9LrAt+l/P9niTOQSQ0mf3dp5dSy1auz4ST3/e8DcYu18f/X0X69UHCpJv15L+d6n3e3nu+Wt//pb8a6Y7gXim2JSgQmja/ZS4Vpf59zBWzMWHCJBNozDYuaFmrVz+p9fu7afS4S92aeNgWtkTAM1fXWt1wSOrRK9w6s98Eq5a2KbRQS9VKNb1zUBo62vxKa6UBfdRdB7Vnowta1o7bWh20gkKtSg+/Zt7LUlVMirP5OxW0rMZblrbpOSsnVZhz0aClLkDZlrablts+FmUac42/xrrqojHqvm+dfpHcTnr0ymVm6zJNuSvV1pU/exHvxgHdnuUXaSZDPu+1BB3aGW498lqBAuHnb398V4fM+Th6iF36F/UzQcu2KAWD24Ebl2iP2ea489w4MBPkvmA+wHuWBENUO8yYmha0rL/dGw5aneeH+uzttm+8HYycpcrg2LFeGPunN9oetIJC/2Pf2KCt5vyfOLzV3+BWCT/nBq8gwlBbtMIZ2sc8f2RMxqqV2S6At9nDNlruZtX+whjb9L3IBejjqzeY31yZzln4onvVyg0xnls3pmfdi4HXZo611lwUlo0KVEYr1aDe5p9It6/HayIXYCNHpYUGa9XKRGjIX2JMz3OBi+NVK18073mpxk4ItsjkJ+1Y3eenZNjgVhdmad3nrAX5nLPkNsFA4d6n0lE6P0PBg5yFMez4qlDoaNZdr9hl8xmO7isUrMz7sc6ctLKydlQjzfY9adaqLWbfpeWaGKwo5RW1MNu3MFYypzwKY7T0u8VnQ0jgffJ+70nH9vW/m8nPbPC7bs71Y945S3yfTHA7w/4+iQShtjIByhtLGg1QG9uy/zy/523x2mv6rPnnH/2zXNe8sEp/NqfJRC1tJGjldOSGrf1NXrhK+a1umjfDdSMcrwll5pJy+1uRbnlr9IEdg95zoCb4K2Kxa2+wK6MNeVdrWqSL4KEGE7Dc/Y5y4J2V6a1UbdG411xMl6j8X5/RsQUpL1qnTW3pvtce+zZpXagFa4tsfYJe/b0mr7wd3z/ZRzViv/7yrrurSo0xuz3w1tpIS1WD/mKes3t/78/q+fNKu/qV7Y5uoQtbiG3Vst0E65eEW7usvY3hFqFVT+rdi10r1oyTvZavtICm/9Y++yXsM8CrAvi5Lx9vgly99kX33UbdTzbH2vyumrtEsMpmvo76ebk+t0X6+/9Xr/8X6R//j/79zX936TMZW71aqyMKQERFn7NZ2z8y//QuTV4sb91rL9ZG6bt5Vjb0CyC0cCGRuJgpdGGMxmbtdHdD0gbw+4PQS/r0dMsFlG1Mz+6PvCDYu59bTpzrsrNyls32QmlBChBkG9OT/p63ndtXG7T2c5ZLPufM28Z8DrZHt4lc7Ke0oTCG956ni37u/eI5PTWojSV2c31PMv1hIb+xkrm1XBij5d8tnrRCECbwJguouM9shmIRqzbXp75PhQiPAYU4Pyn5fc/bpk6faZI+7ZvtD7ov6u4rqlVNF8IWHcEtW7mUqZe9Bh40RYtmPxG65RqjhTzZVqw7a8xFiw1cdj6ujpmTqyt69Ol1JngGW6cqdI+9StxXpxWJMFd1rFeGvvv42Vqx4ieBm+1u6G/SGv9baccK5afv1EAlQtet8I0b/9s92hrN+uQ9dzeq9PMxzKF1go7pY/6JhsAu7tMzLjniyu3a1oUL3F/7v+tVKTO3dl405Fc627/QOrhuQyQcpNjuP8m5oLzbWeais3NN7Gu/9KUaOy14XOaW6D4WYIPpz7y/0JsLMbddeP4p91dxkwzb/zeJnvY6N/RciVuusSc52S5UBdpX4T5nrThnOSq+pQVxL0Rv0/IcXWNtd7Hgucj0nhdeS98TExoagq2NLX+vWtbBJeZzvJfpobj9/FbW7J+N1mr5e47ORtjKqEFN+80/dkzUvBnpt7aMi0LEAtV75eHNbckWszxMw4/EwHW87VIZDFImQCky3qp2pzd27MCaeaqs/EH67crcI7Oi/ulX5Trm9qf02V5n6pMWJi8MVSNMtFQVWvNfYghE7+jjveYf12rWddlxc36BEtsv/pjWtDQeTpLzLv3Gr1TWrr/S5tlC4Lp5ZeuOmBgXYrv6JI7Nlsgu1AVSW/mtFLZ7WvC4UrdoNyQvZHiP+XNalYyZGrgQK2SrkyspbbuwRY7Ju0W6ZLYoOG4msJ/8K9llUJDPWWHO2cG99n1MSHRTy17pzx+XE3nfF9lurTFr4XtiPW5bfBJdCV33v/ZUUyxIifkCiWMqDb+VtXdB/3CT+3uOzkbYyqiV3QV379Au809ivFd+LtXJXaWVbMf73i/skn6T/eWO9vp1LnAN0D+nXfifrZt/WaOamhr99Aq3qo0ad3jvkgZU+cvZfLjL/Kbq2V9fcMt5qfqKKnpK9evnuBUpM+7zj//JOWe7NQmuFWvLsnB4Sits0brugu/u2m+Ov4+Od8uZ5TFeqFCeeNMbm9X7yye4FQn/op7l0qF3/uiFrb/t9NKRjglewbhxXC1yXRWD/mb/J1l6vErzuCLyt42jhS2XxLg5WyAj87i5z+zyP7P/6MjZ/F1XuZb+otu2C4aWSznbv9J6F8JZLmb9v+5PDYxNisjWzS4id1cw/6/ztkpbmyaWbW+3o2SLToa5iNK6C+bLzvHlLsQCrSr++xgZc5MXd46SChnczFff62qVe8xOe+T+nNniCn4LQabJZPM5Z6EAEpTp89ni58X/3rQ8BjGz9nQVzetnvfFSfldCv1W5bc/lc5+rVpeYb/l3Szo35izDeLZQV7+MvxNdQG5R9HuS+IOJOd58JirO8/dxSubvedtU6B+9pKP2pMaKRyWub9p7fXa4I2xlsXDtGzrU4xRdOzWfYhh+S1i3EVM03a0JcWGsfGhiX4GKgl3CFv21yVzMj6s2vxbid/TXnlH5qW7BKR1uxzo16q/RsSmTJupL7qCGjJjh32mrd3epybzC0y6a61Zk5oeyCp11V77FLmZpytVnqte+l1WbNnZshka6N7rkSxNNdAyq0/t7zD99j1WlvyILVzRj2Ll6Lo9iGCt22NCST+GM3OOFCue/tftPzep22rfVN3BV0/1eW8WwXh8mqge6UJYsmGErDNrKh82BixLDD2Xl6pn4OLhy9FF/u/dFf3/XhecFs9UIg8dhJfb5hRujgTAmiXFz5r393O3ZKhEa3gDlUv3vKXG9N5m48UZjRuUcUJ+4YDinFX89vbzadsMLdpWyF7XRQOEuLDN27XGPmZ/LXHwi0ULQwkVpYkxX1m5KLjgEL5a9AJRPN0JzDOfZ8SZtDGqGf6FnZbgga3xT9tfB0KocgdMzWPdFxye5i/pgq0pizM3YaeH3wVbWS+3ffSYCXcVSld5SvAIitpteAcaO+J+v4Ptsn7Ot3Qhb+Tlz58lKL7iQ5zlzAWTsecH3wLwnVemfT398Uq7Pi2s1DIYCWwkvn26EZjuv6l1buuS1+D1J8ENLybBROt8Ei3Z1/0sUFmllyE7/3ZIf/70crPODn1nzuq/0itAkukK6rpKB34m22t9Y87rDLYv5fU+SxTyi32FbjTAtgLX0+zi/73mbeAWa7B/9shVoSl3fDJl4c+T6BkFHbun3vMqkZw5FqfLwQenbhrZz5d8Tc/rYx7x5ssreTSv9nnn/Cf7z9I/MCeaXpd/d6rm2UgLl3Z1M82wlS7UbNjSNHteYnB/LX878q/9A5GfT5vjKOieXbdmy8zhkLi2auZy7P7dWr+RcWwFeWfhgCKnLWAo+WFLeE51nK1oHY8tTuvPK9FYty/7l5+vmg3Hw1Z/rsrkvurUJ0bmzUupqfqDZwfCWcS6t6Fxcvsq7btNN4wPFN3LMs2XZSY0/+dKm1FxO2Uq/p3Gl3+uXtDiWKzrfVfo8VoZ7Xv974lcSbP6y+bkT3g1tG96XLRW/RMcsuFa934nOs5Uo/+4WjdQcYWEtH1/hSr+3Zu6sws6zFayMlrlMsc9/LPgVTaucZQRLMHvMBWOifHLaY1bg8ZT058pV2jvVnSpDkQwbiFook2xlPh9R0QslW9XMn6cseM784/HupoSqwRnuuDL+dsx0TpLb2+fMfIx5nd8Mz5vpfcx0UZj+HoTfJ+/xPaO0uEoZP1fRUBp83oznzAluF32N9rGNJ5ifzVWqPOtnoDWfs9T5yHy+rHzOWf7nNfP3MChy/Pa9fl66MvhaM37O0r8rGT87TvD48vueOC18ZnO958Hvi7ddC6Xo8/rsJ859Wln6TNI/G+nve/i99M7T5sHmNfvzmqXOb3hf3nYZvycZzkn090ZSC8eX9/e8dfL5f8/Zc57Ud063z8xcW7kcgWELaJ+W5uHKnwtaGYKQP4dW5iCFzlLoebby5CZAVjvn2uporbpQKxDvOb3JTnNdXPkXTSduaeniNj/5XByiA2UNW12UN1dT+oV4mxT0tRf2e5IfP1SohePvjN8tRxz3/53PZJtjKyEx11b971X9PaJWNnQjBDqLqzKYXtLdjbsCrB3TdNQWW6nw+pzFTFCYwhgobomxXh8l5tDs0kygaaEwRqfphO9JVyqMcWSbpU8vPlOfNr2so1qYg3PG1+2kxgf1+u8JWrkQtoDO4qoMdj9pXHjMVtU0/ZvtAhgs/44j2j/9KlHMZPkRVxo+f8H5c3LwKtIVYMJPdAEmrFSHx0TZwN3WQhIdzxYz+E2WrmOdrBO+J35FPVqrOtv/ftsWbqrT51roPmgLY3y9z+v6efVluvsF9wAyImwBnWaFZlcuU13PMbopOH/WnDGSLfOeY4wVOk/pl7erflmDd1s+261Msl0N/cfqf2DLcxSKLWbylD6rCv1vnJUjgaJiwspq6Uo3t5A3D1rWcS8AWjRwkT4dZivk5p6G5MW5l6m6ulrVV9yt6Eh0pGPMFgAAAADEgLAFAIexX86+QL1KjnFLAIAjxf/7+6e6+Be/c0voLF0+bAEAAABAMWLMFgAAAADEgLAFAAAAADEgbAEAAABADIombM0et1S1F9jbg0qrtgwAAAAAXUzRhK15a6eoavEUPfPBMH2DwAUAAACgiyu6boTzNr+qAxqgL/ZwKwAAAACgCyrSMVsl6kPYAgAAANCFUSADAAAAAGJA2AIAAACAGBRf2Nr/vhrdXQAAAADoqoqwZWuL9u6XKk66Q191awAAAACgq/lMWVnZP9z9ghkyZIg+/PBDffzxx25NDAY+qNozhkn7X9WPlt+mP7jVAAAAANAVFGHL1mTdfc5S1Q5a7827VUXQAgAAANAFFV/Y6jFZJ/WQ6rYvcCsAAAAAoOuhGiEAAAAAxICwBQAAAAAxIGwBAAAAQAwIWwAAAAAQg6ILW7OHn67u2qL1O9wKAAAAAOiCiiZszR63VLUXLNU3jjuotcuv0zy3HgAAAAC6ouKd1BgAAAAAujDGbAEAAABADAhbAAAAABCDWLoRAgAAAMCRjpYtAAAAAIgBYQsAAAAAYkDYAgAAAIAYxBi2PtHyZQ2qt7eHP3HrAAAAAODI0AEFMmzoalTF1gEqv+Zotw4AAAAADm8d0I3waD31x27S5/+uWW4NAAAAABzuOm7MVs+/q8LdBQAAAIDDHQUyAAAAACAGhC0AAAAAiEGHhK35H37O3QMAAACAI0PHtGzVfVbNatKU2z91KwAAAADg8NYxYWtFiUadW6al/bd7825tIHQBAAAAOMx1wDxbRuVBbfjBHu1aXKZz5rl1AAAAAHAY65CWrVlnH1Kpeuk1ghYAAACAIwTVCAEAAAAgBoQtAAAAAIgBYQsAAAAAYkDYAgAAAIAYdEDY+kSXfPmQtPUY/dCtAQAAAIDDXYxh6xMtX9ag+mWNqtjXV3dfc7RbDwAAAACHv46ZZwsAAAAAjjCM2QIAAACAGBC2AAAAACAGhC0AAAAAiAFhCwAAAABiQNgCAAAAgBgQtgAAAAAgBoQtAAAAAIgBYQsAAAAAYkDYAgAAAIAYELYAAAAAIAaELQAAAACIAWELAAAAAGJA2AIAAACAGBC2AAAAACAGhC0AAAAAiAFhCwAAAABiQNgCAAAAgBgQtgAAAAAgBoQtAAAAAIgBYQsAAAAAYkDYAgAAAIAYELYAAAAAIAaELQAAAACIAWELAAAAAApO+v8DE/VOFYWIvtcAAAAASUVORK5CYII=;" vertex="1" parent="1">
                    <mxGeometry x="886.0047058823532" y="904.9970588235295" width="859" height="483" as="geometry"/>
                </mxCell>
                <mxCell id="2" value="Generar servicio con el comando&lt;br style=&quot;font-size: 22px;&quot;&gt;ng g s services/nombre_servicio" style="text;strokeColor=none;align=center;fillColor=none;html=1;verticalAlign=middle;whiteSpace=wrap;rounded=0;fontSize=22;" vertex="1" parent="1">
                    <mxGeometry x="352" y="231" width="555" height="36" as="geometry"/>
                </mxCell>
                <mxCell id="3" value="En el archivo app.config.js se debe de habilitar el componente que permite hacer las conexiones a las API" style="text;strokeColor=#B09500;align=center;fillColor=#e3c800;html=1;verticalAlign=middle;whiteSpace=wrap;rounded=0;fontSize=22;fontColor=#000000;" vertex="1" parent="1">
                    <mxGeometry x="-165" y="236" width="502" height="106" as="geometry"/>
                </mxCell>
                <mxCell id="4" value="" style="shape=image;verticalLabelPosition=bottom;labelBackgroundColor=default;verticalAlign=top;aspect=fixed;imageAspect=0;image=data:image/png,iVBORw0KGgoAAAANSUhEUgAAAmkAAAFRCAYAAAAvsDqPAAAAAXNSR0IArs4c6QAAAARnQU1BAACxjwv8YQUAAAAJcEhZcwAADsMAAA7DAcdvqGQAAABhaVRYdFNuaXBNZXRhZGF0YQAAAAAAeyJjbGlwUG9pbnRzIjpbeyJ4IjowLCJ5IjowfSx7IngiOjYxNywieSI6MH0seyJ4Ijo2MTcsInkiOjMzN30seyJ4IjowLCJ5IjozMzd9XX1M3K75AABllUlEQVR4Xu3dDXRU5aEu/sfaqk1kEjDEiOQkkEgL8mGK1YbPekLuJSueujQX0XAUXVdAUc89aqssBBdLkYVa9fyPFQW8S9GSit7goseseE/IpaBA8UgDiNBCAkmDEEOEZBCqrdb/+7773TP7ayYzyUyykzy/tQZm79mz9549H/vJ+7XPy8nJ+RZERERE5Cvf0f8TERERkY8wpBERERH5EEMaERERkQ8xpBERERH5EEMaERERkQ8xpBERERH5EEMaERERkQ8xpBERERH5EEMaERERkQ8xpBERERH5EEMaERERkQ8xpBERERH5EEMaERERkQ+dl5OT862+n1xDH8QrN01ACppQtfoxrNezB7J5y07i0Z+cE/dSsOOZoSivNeb7WcGao7g+T08IjZUj8MYqPeFUvB73L5qEdNTj3aJi1OnZfmC+jvadK/DCkrV6bn80DyUbF+PqND0puF5zT75PRWex7xdtCIi7wd8Px/hl5xvzuyv0+2I6hz0b78HTJ/Wkz91RdituyAGO1PwGD32sZzqNm4J3irP1RCfL+knWlfh1+Xik6kkE9+H5Vz7BNj3ZY9TxS8Puiiosb9HzfC8bzz44BSPRjE3PfYDX9FwaOFiSFpNbsGLBOrwyuVBPJ8CCDhHQIMJZDnJn9o2AJtXNH4EnisRt5Q6063n+sRK31R7F/cvn6emBzgxoMnzp903cejWU1qZi/EzxmX8mA/jJMexb9o1+oBvMgHasGuWr5+pb3wlosZh2XakIGBAn6t/gRnX7QITrW/HsOL2An7V8gn/W+72pSc/rBXeMEgG3aV8fCmhEPRnSTj6Hu9SPJ0vRpKcmiIhzJJCAcCZPxEexVISTpWtW6nk+UTMHL6hg4K9SNMkMmz0XWIwAqd4nfUt6mCz+KfLTZMnZW9GPf2+8TyKsVR8BAplf6xldN3nUFUiRJWcfvqnn9D1HTgXFv0Gc9gqW46bggYIOR0lKMx6qacbI4im4Q8+hKLKuxAxZUnmoWc/oKzpwWn00TkN8XWgAYklar/gG2Zfou92lTsRBfLSzHsibiAI9m3xkYY0IZbOR27AhVJolb2/jZpQU62WSqP24j6tzL/la/JmRCCfxaT8qOQsLYMm12Thbt89d1fVxkzhxp2F4lp6miKaNzkWqCLYf94XqYSKL5LdJc7YVObMXL1Y8h+16UppTug6lqMaL7dNx71ixpKy2+HBY6HmN2+Zi8UFxR63rChzaeA8+vUY8Z7h6uuc63W1UnG3hCvFw+d24qsO+Lenc/pdx1/admDz5JWN/IjCXi983qNhwDJM+z0Luwgv1vK7JWr4X88bsx9qbmlEsggCcbcRUe6OxqF85AS2zLO3JOnaI58yBWfKv2mhBhIi3s3X7JEPENme6HVO71+OhNk6aY1tO6jUUylZKBnc7sejtqpzPd7IuG0+bOueyzv2K7ZjJEjQd0OYv0vMi0cvqKVmy8pF436pr9KQQ1/sU7T2S4nifnMciJKbX5e2pVU2YfUkGnpydiu7ESON7ejJiW9fw49W4XH7nB+kHIv0Wmb8rgu07Hvr92Yr0m0rE+2S0ewv9Fnn9DnWXas81GJs92yOJAHdXKX7YUIV/3iKLW8Jt20KaPsCNleHSI1lt+kBeI55/JYgbVFsnw9m68DpCHG3gwnT7KN3W7DNH2zi1D4O9251Fe0zqbP/NNlqXyv1tGx9jGz3Lc5yvUTGO48TQT0jQo92a2TbM5F5GHVtV4rkPw63r82iDZywb/s3yPP5xmPtsJX6WexZ/+Pfb8eRWPZP6heSXpIWqOeei6pie5yVtOu5M34rybU3A8Ol4pVj+GL6MPWeA3JG36IWkFFx1kxHqjLYn1WgcNAH3loaXkT/KFSJ0tYpwZ7ZRqTqWg9IFL+HhoXoh0/ASsazcll5WbD9l7N1YMRrYvv2e8DbEovIH21yfvHUtoCXSPBSMCaD9wO/EiXUR9jeIY3WVV5VnAFcv0id3VYqzAY1pkzDPWT2aNxtLVaAzSnrW7gwit2xv/KU9oeqzEXhX7FNkRlXtvEKIMBK5hKlgzX3AS+HHn6isR3rh4lB1YcuSCfox8brEtAxToWXFzRqsYmtTZ1RNXp8hQou5HrE8xDZdVcrqmGXiA72c65gtnKhCV+OeToKMLm1Lt+z7WvHxku/bbQv1Mqao27RUq+oAlltmrWatCZe2xvg+GQHN0q5NHH9JHecuBrRuG/04KhasUzfjDyn5/Tam1c3ye2CQj9+NUU3md9j5u2G0Oy1NE0HL/I5v3AuI3wLnukYVT0e7+m1KEfdfMn6L5O/WoCsw2fn70k2qBKipyQhoMhQ9eCve0bdnxwVx7LRaTJEn/nGHzDZr4laxD2dzRNAqcwStwHg88OB4nK7Qy9U0I7Wg1N6+TQc0GXzMNnCquk0GDs/A2H0x778g99faRu/5uiBGFpdiiVep4rgcEa6C+ONBjxCkjqkIVJCvy9z2++IkciWm6UXUsdAhz9y35+uAieVebQKzRfg1grOxrDhu8nhbXoMMokaY09sTrxPi9fz6ush/aEY3F+PUX3ap+EHhVDWH+g//VHeKv24PhdqUiB/dptfDDX/ThmGyvqvIkrYqc9k3UbX/nAhbYzBHTd+CUvGjLQOVKn3T1lfJoCUC3jXOH29ZwmZpZHzwgDrRZw5JYCeBZNFVnfVbjRByolX8CEWq8rSVeCxCjTixu5e1l9y0LJHHLID86UlqO7XwZlwtq2odpUUtS4pt03Xz7Y9j1Vv4qANIH/NTJKOmJ2u5LCURocRaqiQCzdvqmJU4Qqvc/3Bbrpat+0X4CyDjCmO64Kp88W899kcorTOIsDpDLCfeI2ugbFnyK/U6c2esd7zOaNtchDfMMKWDqCxlU9PqFm+7s5UYq3rBWtq1Jej417dGLqXu1MHHQn8svSi//+p7rMOVvIV+H8JkiXz4D6s38Yn8o1H/tkyePF2852Id1pIw8Qfmq+q3Zbrlj7sUpHRsDf1epAw6iarQtlKQnqHvJsjIIQGcPSUOtizJ0aVWKryIz4Cz/dq2LVX2kqSWT7BZNtTPyXG1WztSYykFUtWmwKUZ4ZCgGtmLQLYptL5mbBJBCIFcTEtS9Wo8++8Mi9sONopjEsBgj5AcrcPAHZPHI9VV0hXE8kpz2qhuliV61pKubVvex24xOfJaS5jTZLANL9ssDy8wOGAsZ7aNq7EEXfE614hjm1owvovtC9fhY3nSEkfgTztFwKR+xT8h7cxhbLf86LSeilxK1XjE/gO8/ZR84lBcLr+go8eokgv38+0/yiFn2lUoC3sTi8WPfFJLyYq+xNg0cZLa282qzuljkd6xH3VmqFIn63yMdZa8CM6SnJbjreLfTGRZA4dlXYYGtMmTcaZXPVf3qQDj2mYs1qKlTd9NOKN0Eh2tOKHnmJwBTOnS/juYDfxbncVZa1F3QPzYp2XiMj1HScQ2Y1WcHa4OdWprjliFHYu1Jy4Qr60NsxfoGUl1Du2Oz8z6KhHmVCgrxOQcERhdvwXit+XQYfFMe/iy/f54PCdxAhg+GPisTXwGVGmQblM1dDBS0YFjMRx8o0OCU2dts4zteottu4nivf/C6aC9ulT3IHVVd5qhyLPDQLY8rDjb0OxZ9apkZeOH4ufACMpWYvsNYt8Cgy1VoJI7PL9WKYK1DoGR2sZtkz+03WhfuO6hMpSVsaqzP+qnHQfcP8ghg9JViOsVcoyo95rQOB94YWYOZqzW87tEhwnribLmd6gX33V3yYsfzUOWPPHFcqKXbadC1XXGzbN9VCJF2a/0YckpWYzcwN8RpntSzRx8ILJjeuHN4VJXVQLqDv5xW52G3JnD0fqP4jshvhebeySsRdFxPGJ7st4pWU/D4IBx0jdKtoweftMyxMH37O0n202Fq0PlzdruKXZBLN8lQk1gPG4IVedl4wa5LrPqNSkStf9hKhTZSgQtsgK4VPynQnAnIi8TX7CSJaPqWDpep3fbP6KB2LszqX/5dsIcI2oNcH93T0q69EW1TwqFF924Pm0sCnrrpB4zXRqWkR09UJqN2x09I6O3dUuueHpLqiroCKWbsWtFS0+VnLnoMC1ew/Xm56wsP2qHi5gt6BDh7BSwRo4V2N0/WpIrWsl+j9GlR8aJPswIELphu6oG1G2dxE221eoKFQSFkcVmkBDrdjXiT6TE7r/BCJYRS8pagvhM/Get5o1ffCWLRsmg7HgRfo3hW18aZJd6Sr8IaXNG5oSrS1WbshSMGuX8y/cWXDkcONe0swu9r5rQfgZISbd2O+qG2ouwv0Oc9iZ8pWfET1V1qhHire2NxE21Q+q8HVlMVY06CHa7xCQCFWA6CZTG6wzio7dj2YdEVM/qKkaPtn3mMY/evszOqCKN1KFDM0tAXcvo0tKG3T03fplTqN2g/XPW7YAmqLECO1KwpdcHcha/CU3Wdq1hxhhsTfjE0r7VF1Rgk9WSunpNVYeKELDLu9dkfHS4sTSUV7eYAppRhRi3hO6/ptYZocOAYoxBlpqX7WpXFtLSjD+KZUbKkkybAKblie9mnCWL3a3WjGTqotdRWVmJ1xex40B/0/dD2ujHVff3xjqzwa/RkSBl7O22npxzSmVj8CZs6VJbs534VH63bA2Ie1OUk7c+4Udt1L2wRlUXNm6OPCyG3EbJPZOQ3rEDNQk4IXsxOyZcvcjS41DIWl4TapxvtJ2zhk6jR6h3dacunXM17o+PsV/5uN7ak7N4PWYVBuwN6GMR6nAw29UzNPw616J6sxznbratJ2fW8vuMgBRTQE2Sw63udnj90PbtW8V7noNSa0/OoQ/iTtUJqdofA3DLxue6jZUi20uJvd4mv8QnT+Os+M8aJoxehF0pJdLhZYhRmhaRLokKb1OXhumpuCR0/yWzwX+0KwyEq3WtvS/Vc8vMDgF6mZwptp6c066biomBIHZvj7Nk8eN92B0MYGJ5IgchnoppPzAuupX64xswV92j/iLp46RFG2vMHINIjU0ku77LRryya/20HD02mh7LDPox8aNpH/tM8r5Gn2u7rjGMHOvWcyPTy5tjLAm9Nk5aJ+NfGeOGyWEtJkCeXmxjYSmyZMRj/C1n8HGNgeUcx8tKluoZPQejjVvmHGvMCF3Rry3pXJ+satt/ldhfOUSGa1yvaOuLbf8N7mWdVXzqmDn3IdJ7Y1bb6knJdSzkMBxlsjeoyblPXdtm9M9J5+9TxOU6Gf+uMz07ThpiuJanHIZD/jEXFhqjUdK/P3JoH9dvk+13Sy/fbcb4XYN3/QYPnTSvf9mMTRWnMUPdd4zV5RjXTJaErREncOvVCsJjeVmH0TDClW0cMTk0hfV6myGObTqWkz0bN2WYY7HpxvKOMcGsbOODxbD/oSDYWdWr3q/PIo6dZuF6re4x0NxjxrmvpWm8TniMsebmGg9O6k518p2/ROX1I8QdjpXW3/TcBdYTwfYjqef1SYkbzLZTnZyoTZ4nfxrwzIDmaoNmhk4fDGbbn8mT+YxT3RvoNG5maHGFBnPQV3dA8RsVmCxBsf+bi19W/gwjgn/Av935JDgQR/8x8DoO+ML5aP5c3yXyscsyZQmIRzu8mmbV1o6S67VDcqDZro6f1UVqiA+vYSvsg+f6VycdBvqhqYuKIMvRjm5jQOtvGNJ6iRrIc2QQFUV6BpEPReqdWrDGqArucqeSorMoGSlO+wcvYilaNKoNkwgdd9kHTb2jLMLo+ong0T5MGTfFqKJL6jAcidCMh56zDijbj8lqzspK/OuPW/HbsjL8/FU9n/oNVnf2onnLTuLRn8jR0lOw45mhKE9GLzdWd1I3ebdJc7eXi4kcK/AXbVBrO9ID1f39glnNqCelpA6HIURokxb5+phElAx9K6QRERERDRCs7iQiIiLyIYY0IiIiIh9iSCMiIiLyIYY0IiIiIh9iSCMiIiLyIYY0IiIiIh/quSE4QtfdbIp4jb2BpkfGSetN5qWD4hlTS12/MtN1bVGKj7rkkrrSdTo2zEzDI2pu96nr7A7XE9KxapRXvaknfM4c+yu4L8rlghxjkkVd1l+c14PsnTHN9PE7neRx3Pwsps8ZUWxYkhYTeeHldXhlcqGeToAFHSKgQYSzHOTO7IcBbaCQQbT2KG5zjMjf2x5ZKD9XOdhwpB2z3+vAU3p+dxgB7Rz2bJyL8tX61lcCWkzkxbtL8cOGKtz43G/U7fmGXDzgGO3fr16rNPb5xop96ooBvSIrGz8MBLF7uw8CmgxLD96KZ8fpaaI+qOdC2snncJf6YWcpmvTUhHbxp26gf4ezmjl4oWgEnujKyPRxkqPiLxVhyX7bi5JivcAA9UhlBoL4K7K7ffmxW3ClLEE7thVPnzTm9DktQXwm/z8d9CjdkCVAU3Bpnf1i5tu2vI/dGI/51zmvuEBe7pgsS5AasW0gX7Yk6ueMKD4sSesV3yD7En2XEkhWq8pQKG8r8FFHAFcvYlADziEzX9/tpnPtTfpePzNuPCYGmrHZdb1HcaJtCCJ1SJqepsiyMS4HA+rC5kTJlvw2aaG2aNqZvXix4jls15OSqkZBNV5sn457x4olZTuXD4eFntdoXqtTresKHNp4Dz69xtI2xmOdru262sIV4uHyu3FVh31b0rn9L+Ou7TsxefJLxv5EYC4Xv29QseEYJn3enWsXrsRttbOByhGoGWa9tqKz/ZexXPrOFXjh+M1YWhY+Wzc6r+cZakNmsq9LXd8zz6t9mbGN3IYNeGL+Ivd6OqJcE9S1TSnoapPmvH5ku3w9S8KX5jYeb7Xvm2rflh9hWUvJiLnfJr1PzuudWq9vepk6FvoBD65jq/clxLlNS1u8llnWdcfRns+LvlZm6zs5mLFaz+sSWeVfgsyIn3nL46dKUDEt3Dgq9P01dfLdjPn3IIFke64Zp+ylaCHjpuAdEfQ3PfeBcWFx13Utg9hdUYXloQ+4rDadAtT8BpsySvFAgflZaw6vI8TjupzaWV2qp9qaDXa0b9L78JlXu7Noj0md7j8w7Tq53x1if/dheIxt9MLPcbxGdfzS1DaOTba2m3MfD2MdloPhvEZphNdmPUYjHW3znFxt9dT+WS4m79xmHPsfu6l49NV/xY8CR/Hbsp9jnZ5L5JT8krRQNedcVB3T87ykTced6VtRvk38pT58Ol4plmHsZew5A+SOvEUvJKXgqpuMH3GjXUw1GgdNwL2l4WVkuKoQP+jyQuxm25mqYzkoXfASHh6qFzINFycUFfz0smL7KWPvxorRwPbt94S3IRaVocxcn7x1LaAlVm7ZUcwbsx9rQ6VH+bh+43pk6cdN6YWLRQiAOOEbJU1rdwbFc8OlTKq6UAcToyRqBN5tEOuyVBnW7akX/+ZjrLP91cKJyJXB6m0dOkLVnHIdxixPMpg4tvlEpdyGnQxHRgDTy6zcITL2Yty/fJ5eIrr242ZAm4eSjY51FW1AY95sLPU4ZtHUzQ/vS7uYlqEs9BrEzRrQ1LFVAcx8XG9zzUq9hEmW/ImABhHg1HKR38+eIf+QWYeKBfJWIt5j8e0T3w1jWt7c3yf1+DSI0GV8R17cfw6508LLxfzdjPn3IBFkCVAQfzxoBDR5wn/nQX2T7dFOnra08RIB7HpgjW6zJm+bmgKYWF6KJY43aWTxrXhgyD69XBV2B7Nxg619mw5oEOFCr+v5OmMfZJDwDIzdFvv+y2VvsLXR+wBHAuPxQJkl0IQEMC1PhKumpgihRW5DBByIAKTW5Twe8liI46VCnrlvYns5IiDF2SbQ2TZPHktjfcbNGtBkKDQCmPm43qbrNXa2/3GaPg0/UFl0BMbdqeYQefJPdecg4NCHZiNk8fdy0+vhti9pwzBZ31VsPcreRJU4EWD4GMxR07egVPz1LQOV9a/t9VUyaImAd43zB17+FX9PeFsHD6hAljkkgZ0EkslWSrUW1ZtFyEkbiwJnFZ9czlIi07J1vwgXAWRcIadWorgwoEqcrOGibr4IE2KZq2fpMLFqtzo2uVfZw0XBVfli/ftRF1dvTBGYZojnNWywlzg5Fa/HlDwZgiylSSIEvi1CZnrhzSjQs9xW4jZVclWP/eb6F96Mq9NkKZ21ZGoR3pDBMG0SipPS+N88tr+ylAzqbeaVuKpi5XsQLmFbi7oD4kSdlonL9Jy41X4Xrfpu/Hbi6QozTHn9oWL53phkqbalVGz7ocM4J7536RlyKo7vZjy/B92VFcCl6MAx8SWSJ21VIiNOxJtkza6rXVEzHnKUJL22XYaBAH442lEcJkudQiUyRrUpAoOhOt1KqpG9CBG7wuvbtmUfjoj/R47yCkKJEMf+C/aw2IyP5TEZLAKZMSMshg4DsmQwXELlOB6qulmW6FlLpsS+1ojlRTC8ISmN/0XIKgiI/XrfUoqot5kz3hVao+5/vLZuw5/UYT2Kj19Vc4g8+SeknTmM7ZYf/NZTkUupGo/Ye5RtPyWfOBSXy7/ER49Rf/G7n/8mPpElec4f+DPt6uQT9iYWixNQUkvJir7E2DQRH/Z2taozrP3A7+zViIdbLeHLoq3Zvpwu7VIBSZWEWUucTIuwX5aEZWTrkpxFqBHhCHkTLeFoJcaKEOXaj84U/xT54hg07rFU+XnImj5WDeERClpay3EZPTKRZQs5suTP7DSgq1+t1bUyTIrI0uIMkzp8pg+LrWQuLrqUsX6r49hGeJ+c70HLkgm21xA/EdI6xJH5x7MiFveAjuP2Zge6JF2Fsni+m3H8HnTb0MFIDZ4W4cgoDTLaVAUwfLA4MZ8SB68zZkNxh07bZsnt6rtOMW03USLsvwwipx0hXJVSeVR3xtJh4LM2M+wZtm2RJXRGKLtDhVIjKNuIVChD66UZ7gDZbeNyRMAKl6CGqJLTAAY7Somj7X/83seTd5ahjFWd1Il+2nHgHNrb9F2nQenqRNErZPug95rQOB94YWZ32wglWhBth/VdJ0tJjlECZ6nyVCGkHh9Y2nwl0mWZ8sfZGr70zdq+K8TsOCCrCcWkR0kVOlpxQt91Ss+M0sisi7KGZYp/jWpM2/672uEly/kon52D3P/3NR6Vn70NPRTWIvLfd3NahvhrQZaY6ZIt42ScJguMXCdmSVWRmdWh6jala6UpH+/DbrH6kdeGq8ymXTfeOzgkUML2P8ToMGAtEewSFZS9JaPjhnrfxXdTVmPajoetvR5R7xp4vTtdJWc9qDYV40U4y10D3C9OmJsX6Pl+Zw02Nb9DvQhAZpWnKp1q2N2Nkp7oTrTKk5UZvpy3SAPerkX1S7KtmKWqNgbtrdEa0HWNUeInq1i99t/RuSApZCcVEc4mXKTGTcudnSqOjk/15nczRJceqSpQCx0gzIbt9nZOH0QMF9EZQVBW5z2gA8IDBXA14k+kxO6/wQiWzfjYq5NCgiSjZHFbm1ynrGK1HovwzbPTBVEP6xchbc5I8WecWT2i2pSlYNQoZ5syY5ync0077dUxMWlC+xkgJT1Kl6F41F6E/eL3IX/CV3pG4kSqHoxKVfcFkD/dWcbiVZWp272pKk/j8c6qLD3VNIsQ5axi1O3ULLyrNWNQMwcfyMxlKU1THR+82utFqpK0MV6ri+frsIhU/dxTEli13m1J+W4mkw5sslpStU3TjeOD+7ApASdwM9yEG8rLW2wBbdro3C6U9iR2/w2ddRiIzWuHZNuzXExzdl6IVCVpY5Tkuehq3IhVpRGqNXvK3GcrUVlZiV+y4wBF0fdD2ujH1VAcjXXmEBxGR4KUsbfbeovNKZW905qwpUttzXbiU/lH1/Dp7t6hflK8HrNUI/W34izZMtqapRfeZ6seLFgz27sqU4W6fIxdI8JNxw7UdKk0yGjvZm38X7BmMa4WP8gy9ISsekuPd1YTpZOAt7q3HaVp5rrusfaW1B0MGqrDpXI6eIU7SOghRvSUXQPkH+QROzHosGjtSTtwJeO7mWjGSVu1sdJzZHupIzJEiM/msdPiP2uYkENCdLG60CjJScNwZzBxOHJKBBTLNs3SsPgldv8Vs8F/d68woKp+A5h4vbW3ZDaelUNjNO0LB1cdvMIdK4zhTrz3v0PWYiO1YDzu0HNsWj7B5ibZC9erZ2uyzcU4/YMyYtqjmGrcJXJJekhTXe51l301rpkcLkNPd/UyS7nTzCEAxG3aUHWZGmtvMTl0xov7oYbqCG07zd7rLF7rq2T3f2P4D3OdCb1MVBepoTUs7ZzkcBbWMcFiJRuorxXnSGvbKTUmmGejdSNg5eble3YYUENOmOuQpU9pkzBPT1uHzaibr4eY0I9NaV2BJ14Sb5zNWlTfZA4HEt43dXMNYeHgKk2T6xLbRHh/ZAcDOYacbcwy8frekENryGEy9DJyPDo5bImbXKfsBWvfP+tlouRwHc5jq269NrRG70nGd7O7VFiSPRZDJ21jzDRjaApj2AWz6uu1Sjn0gqUdU/lgbO5qdeHHH4S2YWsTJW+WISBkA3Xrcg/kNeJ51zZlWNHP1W2q5Osw1jclFFISuv+CavCfkCsMBLH8FbFvCFf9yv2WV4CwXwO0GQ/JoTXkMBl6GTkenTl0iZ1cp3xtcigRc532y0TJjhDPix8413vQ1aE1YrYOm/5LD+zS1R6iNCD03AXWE2GoMQimHGMp0YNZ9qzEDWarBqlNUqN96gcSNphtP6YGSDXCSneq7OJlXBBdtolyVHHqwVXNwWz9yyjFkiGJ7be6YPqjeP1ffoTUxt+i7CH28SRvA6/jgC+cj+bP9V0i6l0tzfhjMBszevT6nMYQH56lULbBc/2rJzoM9GdzfyYCmnin//BbBjSKjCGtl9S3pgAjg6jo9oWviSJ7qqxNxIF07GYpWhRBLN/VjNSCUltVmCph8xxdPxE82ocpASy5XlZXJncYjkTo3jhhA9fURa+rDgM/G/IH/FvZ7Xhyq36AyAOrO3vRvGUn8ehPzol7KdjxzFCU1xrzY8PqTorsqVVNmK0aunTlszVAOa/hKIJSMofDkIwqTz1hinJ9TCIaWPpWSCMiIiIaIFjdSURERORDDGlEREREPsSQRkRERORDDGlEREREPsSQRkRERORDDGlEREREPsSQRkRERORDDGlEREREPsSQRkRERORDDGlEREREPsSQRkRERORDDGlEREREPsSQRkRERORDDGlEREREPsSQRkRERORDDGlEREREPsSQRkRERORDDGlEREREPsSQRkRERORDDGlEREREPsSQRkRERORDDGlEREREPsSQRkRERORDDGlEREREPsSQRkRERORDDGlEREREPsSQRkRERORDDGlEREREPsSQRkRERORD5+Xk5Hyr7yfX0Afxyk0TkIImVK1+DOv17IFs3rKTePQn58S9FOx4ZijKa435/Ubxety/aBLSUY93i4pRp2dHtbAGS8sy8dHKCaiu0fMGgtCx0jp2YO1Nc9CiJ13UccrvfDm/KTqLfb9oQ0DcDf5+OMYvO9+Y312h3xfTOezZeA+ePqknfe6OsltxQw5wpOY3eOhjPdNp3BS8U5ytJzpZ1k+yrsSvy8cjVU8iuA/Pv/IJtunJHqOOXxp2V1RheZ/5wiRLAEvuKsXE0x/gxspmNUd9Bgf30nsTo5i+J/0MS9JicgtWLFiHVyYX6ukEWNAhAhpEOMtB7sx+GNB8LGv5XiytrUGBno6kYM1RLN24Hll6Oqlq5uCFohF4QtzebdDzfCTWY9ap2lSMnyk+889kAD85hn3LvtEPdIMZ0I5Vo3z1XH3rOwEtFtOuKxUBA9j03G9wo7p9IIL9rXh2nF7Az1o+wT/r/d7UpOf1gjtGiYDbtI8BTcrKxg8DQezebgS0eKnP44NTcIee9paNZx+8Fb++Tv5JRl3VcyHt5HO4S/14shRNempCu/hzINC/w1koeMRYitZlK3Fb7VHcv3yeng5TQSsR4aLbjH1carl57W/MVhWrQPdEXypFsxJhrfqI+Hs+82s9o+smj7oCKbLk7MM39Zy+58ipoPg3iNNewXLcFDxQ0CEC2gd4Tc8CmvFQTTNGFnd2oiQl60rMkCUwh7oWSvqbOyaPR2qwEdv62I9H1O9JP8WStF7xDbIv0Xep/5NVk7WzkduwwQhW+vY2bkZJsV5moLrka3QjqlqcxKf98oc7gCXXZuNs3T5LQNM+bsIRpGF4jxT19m3TRuciVQTbjwdIFVl02RgnAuvZhmbfVmtSWPLbpDnbipzZixcrnsN2PSnNKV2HUlTjxfbpuHesWFJWW3w4LPS8xm1zsfiguKPWdQUObbwHn14jnjNcPd1zne42Ks62cIV4uPxuXNVh35Z0bv/LuGv7Tkye/JKxPxGYy8XvG1RsOIZJn2chd+GFel68ZMnMbKByBGqG7cW8QrNI2dn+y1gufecKvHD8ZqMdk9YonvvGKj0hOdtFOdYlS6Wuz/NqX2ZsQ4WQ+Yvia1/l2qYUdLVJk9Vt4dcItMvXs2StnrK8xtA8Q3ifd2Os3Ec9302/Ls/9sbC8FrVuiNf8drbtOfbj6jg2MVDrzYhwzMy2aKYo641+zPTjY/aL7TSj2HJswsvpfTdme/D6LMTuqVVNmH1JBp6cnQr7uxYf43t6MmJb1/Dj1bhcfucH6Qci/RaZvyuC7Tse+v3ZivSbSsRxMdq9hX6LvH6Huku15xqMzbZSNJPRruiHDVX45y2yhCHcZiekKdzmSJLVVA/kNeL5V4K44cEpGKnnn60LryPE0QYurNko1dNtzT5ztA+K1raps3ZPne2/UYU2BZfK/W0bH2MbPctznK9R0e2zQl+VoEe7NWMd5vFyLaOOFbCp4jRmqPZ38hjtw3Bzvep1dITer81DStXrVMc99Dqc2+1km/pxiNe9KUO8rwXmC9Dvj55yUp8BV8ms5b15F5hvaUMYPq7O/XEytntErT/8u+MU/qx1bf87Nf1RvP4vP0Jq429R9tA6PbPvSn5JWqiacy6qjul5XtKm4870rSjf1gQMn45XiuWP4cvYcwbIHXmLXkhKwVU3GaHOaHtSjcZBE3BvaXgZ+aNcIUJXqwh3ZhuVqmM5KF3wEh4eqhcyDS8Ry8pt6WXF9lPG3o0Vo4Ht2+8Jb0MsKn+wzfXJW9cCWmLllh01TrSqdGYFPurIx/Ue7ajSCxeLkzvESdUoxVm7MyieuzdUkqPaHImg0S4ChlnS826DWFdteJm6PfXi33yMXWhMhyycKE5YIli9rcNCrO2rZOBwbPOJSrkNOxla5hW2hvb9iZU7RMZeHGd14SK8oZ8vX7sRMPT61E2HDee+y1BmXc4ZnPJmi9cwFvUrjcedx9U4NiK47YktoHXKrOZU77We5yHmY5Y2CfNqS9Cm918ef/lZuU29xzEes94w+nFULFinbsYfUvL7bUyrm+X3wCAfvxujmszvsPN3w2h3Wpomgpb5Hd+4FxC/Bc51jSqejnb125Qi7r9k/BbJ361BV2Cy8/elm1QJUFOTccKSoejBW/GOvj07Lohjp9Viijz5jjtktlkTt4p9OJsjwkOZI2gFxuOBB8fjdIVerqYZqQWl9vZtOqDJE7TZBu6InC8b/XfnBBpFzPsvyP21ttF7vi6IkcWlWOJVqjguRwSLIP540COgqWMqghTk6zK3/b44iVyJaXoRdSxEmJAhz9y358UHf2K5s01gGmZcbwTqIyKAzLhrqgpkct+QkxOuls6bihmnjPmp4v6v1euQzwngh6N1UIl5mxCv+1Y8MGSfXq4Ku4PZuOEuy/7bBDAtT2zD/Ew5yc9GeS7+qD8bxnE1q9Sb8VBoX+SxlGHKmDZuxudi2xZzn43PjAxl4WV+4wrKav/lHw7q8c72v3NTC39gBMzccZir5vRt/qnuFH/dHgq1KRE/uk2vhxv+pg3DZH1XkSVtVeayb6Jq/zkRtsZgjpq+BaXiR1sGKlX6pq2vkkFLBLxrnD/esoTN0sj44AEVyDKHJLCTQDLZSqnWonqzCDlpY1FghgSTChvhk2rL1v1oF1/YjCvk1EoUFwZUCYq1ZK1u/gZxLAK4etZKY8aq3erY5F6lp7WCq2Qvw/2oi6s35jyUzBDPa9hgL81zKl6PKXmydMoSCESQeluEhvTCm33Q1sxe6teyRH7OAsifboQhdWxEuNkf7TUmWpzHrLHSUmqp3+P0YYmphIymvjVyKXWnDj4W+mPpRfn9V99jHa7kLfT7ECZL5MN/WL2JT+Qfjfq3ZfLk6SJMi3VYS8LEH5ivqt+W6ZY/7lKQ0rE19HuRMugkqkLbSkF6hr6bICOHBHD2lEzj2XhWl1qp8CI+d852OfLkaCtJavkEm2VDfWtA0I7UWEpkVLUpcGlGuPRDNbIXgWxTaH3ihCxPzIFcTEtS9Wo8++8Mi9sONopjEsBgj5AcrcOA0TbLWbIXxPJKc9qobpYlYdZwsW3L+yJMiPfnWmuYEMevIVwtnSq+SWtCzwlXS6cGOrDZnB8IiPc0/DpSh6SJf+PZpiD3P1TaGMS2BrFQYLB3iVenHQbspXXGcc3GuGR2ULEdf3Hsd4l968bn7P2dfxL7LDR+jL5fjuankHbmMLZbfnRaT0UupWo8Yv8B3n5KPnEoLpdf0NFjVMmF+/n2H+WQM+3qpBT2JhaLH/mklpIVfYmx4rtYv7erVZ1h7Qd+Zy/ZOdxqCV8Wbc325XSJkQpIurSn/biz0mkR9svSpIxsXTK3CDWyRCVvouVEvxJjRSBw7Udnin+KfHEMOithypo+FnIID2fIaTneKv7NRJYljKrSQkfj/OvFviWVK5w2oE2cU9Mzk73hyOI5Zj0eIC3WnrhAfB/bMHuBnpFU59Depu9q66tEmFOhrBCTc0RgdP0WiN+WQ4fFM+3hy/b74/GcxAlg+GDgszbxnVOlQbpN1dDBIgB04FgMXzijobVTZ22zjO16i227ieK9/8JpEUb0XUX3IHVVd0btMBBD2ywVasQyKihbeYUhR2mdcx9NtlIsj0bwcW2zk/136LTDQC90JnDt/8nTEQN3TLY+idvLyvpFVafUTzsOuH+QQwalq0DSK+QYUe81oXE+8MLMHMxYref7QhBth/Vdp7RMXKbvGiVwlipPFfDq8YGjLViiXJYp/7qX1a728GVrl6XJksBwVZxx8+NwFskWzzHrVavTkDtzOFr/UXwnxPdic4+EtSg6jkdsT9Y7JetpGBwwTuJGydZpVeI1LUP8daPv28k2PuHqUHmL1jYoMrM0YzxuCJWgZOMGua5I1WQJkaj9D1PVxbYSQYusAC4V/6kQ3InIyySv40bit2mE0iO7vNsDkj8NvN6dSf3LtxPmGFFrgPv9cFKKVUcrTui7qPkd6sUfeGaVp6rOa9idtLZJJ1rlD5WzLZR58/+At8b+e7TjS6I+c8wWdIhwdgpYI8cK9NsfLXbRSvZ7jC6ZkVWgVsbJXDfqVtWA4fY/Rtuh+KkgKMj2QkZgEut2NeJPpMTuv8EIlhFLmlqC+Ez8Z63mjV/PliwaurbNadeND5fGUp/RL0LanJHizwOzulS1KUvBqFHOv3xvwZXDgXNNO7vQ+6oJ7WeAlHSxnUSovQj7RdDJn/CVnpE4kaq6olLtkMLtqMK8qjJ1uzdV5Wk83qVG8TXNaBf/2ds+6XZqFt5VdN0T6zpV2LGUIsbEUY1rlDy62/ElU28es3iosQI7UrCl18cKFL8JTdZ2rWHGGGxN+MTSvtUXVGCT1ZK6ukxVhyaqlESHG0eD79gCmlFaE7eE7r+m1hmhw4DSIQ8jUvOyIzdSb2nGH8UyI2VJpk0nDfC7IynbTOz+bpNtOjot0dPHV7Wzi133h0uZi19WVqKy8pfsOOALox9X3d8b68wGv0ZHgpSxt9t6cs4plV3mm7ClS23NduJT+Zm0NSD2oeL1mKU6ALwVZ8mW0dYsvfA+27hdBWvk8AseVZkq1OVj7JqJyO3YgZoutWky2rtZG7IXrFmMq8WPqgw1IavewkcdAVy9KIED0up2e6EOEREYwSQfU2LuRSpC5j2TkG49JrrBvuoFusa+vazlNckZJ60Xj1lftX37VvGZzkGptSfn0Adxp+qEVO2PAbgHixOtbmOlyLZLYq9VGyLVjsd+YpdDKnStujDGk6suiQpvU5eG6am4JHT/JbPxfbQrDISrdR+w9SAVzy0zG+frZXKm2HpVTrtuKiZ2Y8T+6JKwzXHjE7u/ut3YxMnW4+akex/njPfudetFfL7nqz8QPMYFjNWd4zBC3RmBokVT1b2+LOkhTQ2HobvFq7GEZLd3Pd3VyyzlTrN0tZ82FHs26nHUNDl0xov7oYbqCG1bda3v+tUO1lcZXe6t60zoZaK6yNZYXg9n4RwrLBYtSyZgrcivVy8Kt2FSY3V5DrNgBKzcvHzPDgPGJYT0OmT7eTXMgzFtHQKibr4eMkQ/NqV1BZ54SbxxNmtRfZNsW+bRxsoRemImO03IoT5kcAqtzyPQrCpWQ0/YjrFzeBPLa1taK0Jm2wbXMB3y2MohMNpt2zuKWXgrVPUY6zGTQ2sYy4ltyXOoZZ3GsBlSLx6zPkt2GKpGoxySR3+/zWF8em+oHRmWjAbUr23fh7NqeITB2GwOTSGHSnhXlzzJhvM1xondbM9lDvMQPxES3tXb0OsK36zDXDTjIXNf1GPGmFfObRqXEDKer8ZAU0OAGNO/Ni8ZlND9F3Tj+06vMPDxB+GhPvR233lQnNi3W0r05DLq6g7m4zI8ynHGrGOWJViCt2m0aUxgpwCP98vrMlGvVcohNUSYKw+/jtB7rqnhVMx16B7M3uPZxejVTfiDfnrq0C79yeArPXeB9UQQf9nKQWflD6c1lPU9iRvM1msAV+oZUQedpU4lajDb/kyWJsmw0q2TVrzk2GFyMFNXGzRz0NduDjbaA8KD9rKRvFnCKQO092C/vcXYr8iDDHfd1EWv419/nIqj75bh56/qmX3UwOs44Avno/lzfZeIKILXDsmBZse7xwlLJjXEh1cplH3wXP/qpMPAADPwOgzMxQ0ioCH4B2zq4wFNYkjrJWogz5FBVBTpGUQDSdFZlIwUv6MHL2IpWjQf7/Mcgf2Osgij6yeCR/swZdwUo7oyqcNwJIIxMn6Plj76mHEFAH+XfCbGVDz6quww8DNk/te/oezOJ/G+fqQvY3VnL5q37CQe/YkcLT0FO54ZivK4ermxurO3sbqzC+RYgb9og2qVcqQ71f0DiVnNqCelpA6HIZhVnnrSFPn6mETxSl51Z3/St0IaERER0QDB6k4iIiIiH2JIIyIiIvIhhjQiIiIiH2JIIyIiIvIhhjQiIiIiH2JIIyIiIvIhhjQiIiIiH2JIIyIiIvIhhjQiIiIiH2JIIyIiIvIhhjQiIiIiH2JIIyIiIvIhhjQiIiIiH2JIIyIiIvIhhjQiIiIiH2JIIyIiIvIhhjQiIiIiH2JIIyIiIvIhhjQiIiIiH2JIIyIiIvIhhjQiIiIiH2JIIyIiIvIhhjQiIiIiH2JIIyIiIvIhhjQiIiIiH2JIIyIiIvIhhjQiIiIiH2JIIyIiIvIhhjQiIiIiH2JIIyIiIvKh83Jycr7V95Nr6IN45aYJSEETqlY/hvV69kA2b9lJPPqTc+JeCnY8MxTltcZ86oqvsPm9FuTLu0eykLvwQjW3+wrxcPnduGqQnhTO7X8Zd23fqaf87Y6yW3FDjjgkNb/BQx/rmQmg1jt4H55/5RNs0/PIH6ZdV4oHCgI4W1eFf94S1HOJqC9iSVpMbsGKBevwyuRCPZ0ACzpEQIMIZznIndm3AlrW8r1YWluDAj3tDxdixkx5LLNQP7IFjau+0vO7wwxo8g+LuSjXt74S0JInG+Nk8NvFgBaNDEvvPDgFd+hpIqJ49VxIO/kc7lInOZaiSU9NaBdnuQBLzxLuQmz4fQpwydeYp+d02dBCjBokS86q++xn9sgpWZISxOmTxnQiTLtuPEaiGR8nsGSOEmdbW4f6/7M2lqIR9XUsSesV3yD7En2XkiPta6PqMwFaTw30kjOrAKblBYCmJrym5xARUXIkv01aqC2admYvXqx4Dtv1pDSndB1KUY0X26fj3rFiyWPVKP9wWOh5jdvmYvFBcUet6woc2ngPPr1GPGe4errnOl3bdbWF01VZHfZtSWabo8mTXzL2J4Kut036BhUbjmHS591pOzUPJRsX4+q2DXji7Wzcv2gS0vUj7TtX4IUla/WUoWDNUVyfpycE5zLq8YwdWHvTHLToeSher9bbXjkCb6xaidtqZyNXP+RWj3eLilGnp0L7l6YnEcRHKyegukZPmvQ2zH13ryd+Rlu/C7BhZhoe0fO6RH+GWs3Pn4Px+TgpPlfVuNzabs3j8+j6LMnPeNWbxv3Q53or0m8qEcf4HPZYP+Nen+/eMm4K3ilOw+6KKiwPfVBMASy5qxQTRYYzOdtFqbZs+AA3bg/g1+Xjkarn29vMZePZB6cAYt6mDKN9laEZm577IO5waLTR6hDP3Yfh1v0LutvUmW34TM79D6/Luh/G/l6qlk1T90fqR9zcr8FsQ2bybEuWdaXteHX1WIRMfxSv/8uPkNr4W5Q9tE7PJCK/SX5JWqiacy6qjul5XtKm4870rSjf1gQMn45XiuVJ62XsOQPkjrxFLySl4KqbjFBntBGqRuOgCbi3NLyMPCFW6JOr2Y6o6lgOShe8hIeH6oVMw0vEsnJbelmx/ZSxd2PFaGD79nvC2xCLylBmrk/efNE2KW82li4ai/qVI/BEkbhV1iO9cDFuW6gfhwxXOoDJx+Vt5Q6RURdj6ZqVeplYLMIb+vlrd8oTiAxTen3qZg1Wcps6QIaeA1y9aC9KivUikg5oEIExtJ6VrZgS134lmtH+sELedHDPnaan1e1xzDEW1OTn6m6MajI/G87Po/xjYJ0Oc+ZnRywjP3flD2KyXkoaVTwd7eoznyLuv2R8xuX3YdAVmOz83PaSO0Zli3DTiG2ugCYDzlTg3d/gxuf0raYZqQWl+PV1ltQm5YigV56LP1YYyz1fF8TI4lIsydKPayOLb8UDeY14Xq2vCruD2bjhrisxTT8eH/HcB0vxw4YqvX8f4EhgPB4oE69HP/7sg7ozhLn/FfvEXy+leCe0TCya8ZB+vnxdRpjS61M3e7CSodAIffpxvU3bMdMBDSK8hdZTcRoz4tovu6mFPzACX+44zFVziMiP/FPdOQg49KEuWZCnxqbX8bTZjiZtmO1kZiuFwJuo2n9OhK0x+uR5C0rHpqhAZS39WF8lg5YIeNdYA58kS9juCW/r4AEVyDKHJLCTQFLJsGQpoVq1W+1/+jCjRVbWclkyI5axlpDVzMHbMmjlldhDU4KEtjl/kZ4DtCz5FT7qCODqWZYAdkUm0hFE/VZLqZ/Ytxcsz+uKtScu0Pe64k0sNsPUxr2QfW9lSa4ZzL3aVMrHw4H9TXwi/xgxP7OjS3DVIFkyZn2e2IYKXxNQKv4YMKQgpWNr6HOYMkiEutBnPAXpGfpur4reYeC1Skfp2sf7RLACUvOyHcEqaCuJ27ZlH44ggB+OdoQ5W0lXEMt3NQOBXExzhLlYydK6cAlVMz4WbwEGB9S+me3sNllL1lo+wRoZtHLGuwJkQojwNUP1vLUEN73N1ILx4Q4HQweLQBXEHw+a+y6I5f65UhyPLnp/559wVt5p/BgsRyPyL/+EtDOHsd3SuDlaO6DGI+bJy7D9lHziUFwuSxtGj1FVcu7nO06epjPtKtSEGSfppJaSFX2JsWkiXu1NwDARHa04oe8ajBIvoypzHgrGiBOfaxnxG791P9rFiTHjCj0jYfQ2G3Y7qizXoqVN/JeRjdD57nCr2gdXCVt31X9XnNLaUbLsGz0jmc6hXb4ui/VVIszp6sk5I2Xd2Ul8avlsKx5/DNg+167PZe+Lv8NAEMdO67tWrpK4DpyWYW5IqG5cOdvQbA+DJ0+LYBHA4C6VKro7T7xW+RvcqEKZbmcXPC3Cot22g43d2GZ000bnivDlPp5Gw/80DDe/KPp1Tyx3lzZ22dYncXtZGas6iXyun3YccJ84QwalR2lXlWRFZ7HvvSY0zgdemJmDGav1/GRraw6XojmYJW6Jk4cMea6V1bC1R203a5s4RZaaFW0QYUQGNXO5BAztUZuK8eL4VmceQ6M43vt6JKxFESVwpaRbGkD5mhFkztbti9wOSlbLPXgr3rHcrO27fE8kRa8SQunSDEcpXwKMHCLXKath7cfsnWJHNaYsNZPVsyqomctxaA+igWDg9e7szRIKHR5y1wD3i/CweYGe34vaj9s7GHRfA1RBQEO4PZrtZq12VcJt3WR7OiAf13c3qOkwPHGvHDctB+OXna8f8J9z7bLOrQ8YNx4TA44qNyuzYXvTB+F2U+K2qY+8vM4kYzgLY3gUZ5s18+bsmBFu6ybb+hnhjkGNqL/rFyFNVSmZ1aWqGikFo0Y525TdgiuHi5Ni084u9JJrQvuZBJZ61F6E/SLI5E9IxICr0axF3QFxIsib6Ao9WdPHIh312L9Kz/BgLOPWcrxV/JuJLM8qSo9qzVitKtZBLdK6YzNv6jkExJ7v7qmSyijWH4nQ8F9Vy5/DoUNJrFaPVagELPJJP1qHAcmougti9/YutJPKysYPAyK0HIr+3EjVg7Hsf3RBbGsQ35OcHNfzI27TalyOZ29OV7WlQ2ePR/SxCMIqqHXhuSFz8cvKSlRW/pIdB4h8rO+HtNGPq2EKGuvMIQqMjgQpY2+39eScUyobszdhS5famu3Ep/L3dPh0d+9Qn2tZIjtM5ON6a4/J4vWYVRhA+863Qu3GTrSKk1TaWBTocCSvKjBPLOPJbEtm7QRgUff2DrSnTcK8Tnppym2Ee6EaCq6So5u1osU5VEdfdbBa9da8qtjak/MWrJgmAv+xcEeB3mQEESkb48apO3ZmA/coVxgwAoe18b8cjiOW6k6x3PXjkRrch03RgpDYh/nqUkfu6tZO9z8GRueFbNxg7THpsU3jdVq2o4YkidDL0mxLNjnC46pjhazCjB4u5RAdzzpelwrN6MCxSO0YOnPnOIxQd0agaNFUdY+I/Cfp46RFG2vMHGdMjZOWpseCEqGrQpzAjLHR9Fhm0I8NdY59JhljSjlPdq7tusaacqxbz43MvESQnhR8MU4aHGObeXKPcdaoxj7TE5ptLLUOud5mFIvnwWNZLKzB0jLrcLGyl6lzGA73uGrO7TrHbzO229nria5nx0mD5+fPrpPPjm07js+l7ftgLJ5wsiRKjcHlPfaW99hgbs7xvmRvyo9H6WEtdK9J5zhkiqwitfVUNMYdc5ZORbz+aEz7jwhju1m5t+u1TfvrlNs0xl+Tw3u4xjdzhTj3PsZyTFzLeIzxFp+pePTVf8WP5MvgWGlEvtVzF1hPhE5Omn1HIkIaRZKwkEaCMUCtZwDpAhU2Or0wu3Vw2O5vk7xNXfQ6/vXHqTj6bhl+/qqeSUS+MvA6DvjC+Wj+XN8l8rPOOgxQHzUXN4iAhuAfsIkBjci3GNJ6SX1rCjAyiIoiPYMS5CvM/sk54MhFLEVLBNlI3dXTkPouWc0pOwz8DJn/9W8ou/NJvK8fISL/YUjrJWuXDcWTvwcm/aIJje+dZFjrtq+wWY5B914L8jsy8CSrkYk8vI8n7yxDWVkZbl/JeEbkd32rTRoRERHRAMGSNCIiIiIfYkgjIiIi8iGGNCIiIiIfYkgjIiIi8iGGNCIiIiIfYkgjIiIi8iGGNCIiIiIfYkgjIiIi8iGGNCIiIiIfYkgjIiIi8iGGNCIiIiIfYkgjIiIi8iGGNCIiIiIfYkgjIiIi8iGGNCIiIiIfYkgjIiIi8iGGNCIiIiIfYkgjIiIi8iGGNCIiIiIfYkgjIiIi8iGGNCIiIiIfYkgjIiIi8iGGNCIiIiIfYkgjIiIi8iGGNCIiIiIfYkgjIiIi8iGGNCIiIiIfYkgjIiIi8iGGNCIiIiIfOi8nJ+dbfZ+Iuqp8M66ama8npHrU3z4DX+gp6eLljcj/B+Bs3ZM4/PxaPXeAmfsAJpTm6gmhsQp7H/5PPeF28dP/H/LE4uc+ehGHnz6k5/rAtNtxxX0TkYJGNNz8vO197nec75nrNY9Cxiv34vIA0Fb1v/DpOj27r1nQgcYb29Xd+ndyMGO1ukvUq1iSFpNbsGLBOrwyuVBP91PDHseVS6uR+yM9TbHRAU2Grz235+qbPaCRtu557L35f4nbi/g0qOf5iAyFE165HRfo6QFPBzQZko33Td76YSgtOot9IqDJcJY7kwGN/IMlaTGRIa0Emftfxl3bd+p5/ZAMaf/zxzhbVYLGP+h5fcwFD+zDmALxJ32Iu0Qr0YwSsuRvJ2lCJSVBfPqrpWjbZsxOLl36cip6SVpPUyV3Q3bj4F2v4696nl+YpYohweTvp7HN/l9aOG/ZSTw6OgVPzk7FAC3jJp9iSRr1E/OQ8WKjCGjAsdVmaZa87Ub68qf0Mkl0ptV3J/VYXXylOPM37sanwQAG/2SUnkv+8d9w+VtmWDJLs8TtdWDowz3wfgU/77Of7VjlZ57T94j8pYdK0grxcPnduGqQnsQ57Nl4D54+aUxNnvwS7h2bIs6u1SivetOYKbjmD30Qr9x0BQ6J5356zTqUDtcLntmLFyuew3Y9qahlJ0A8W2tC1erHsF5PhfapQ6z7w2G2Zc/pErPQ9iMwl4vfXchdWoZL9RTQgINP3Ad77Y9zmbNo/N//A58d15P6cVSV4MTQ/4OrrknV873WBQTmVGP0SD0hfPHh0/jk/25R952POX3WlZK1yRW4YsEkmHslS2mOrR6PNsubpEqgsAF7qrNty7a9l4tjFXpCrWcsTovnfllitOlSzuzAgXvLQycPowRNBjT7Nry4Stv+LPZhySN6Qohxmyb1OgZ7PyaZbdFMttdn5TpmJvexwz8uw1sP/RipRzai9P7/rWd2hQwApeJz9L9w8tInMHrUYUfpjOPxq83j5ihdUW20rsDpXy3Fl9dbSnwilvZEL0lzlhpFbesUSzu3aO2qQu3LIrC+BueyUUqzLnjYerwE537FeMziKc3qbJvqcfUet2CoeF8z9PxIbf6ilyyG26IZopTERjzGPVl6G9lTq5ow+5IMlqSR7/RASDOqCnMtAcwIP7AFtTmlMnRZwpsZsqzBzRq8QvMjrT8FjdvmYvFBNcu9fltwtMwf/TgqpuXYnpvQ6s4f/QrXluYBRyqxa/0reqYIXHPE76k5rZexBqkL/7sRxMKByRLiQuu6Dpfe/zBy8V/Y88Jj+Eo+JhghzB7eAnP+D76/xRr6hIRVdz6F4S9mo9USWoygYg8b4fASnu8KW9bgEgpTYv2vz0ZGaFqWoj2K4YgclAx6uUHWqkm9LmsAs2wz3Mjfvk13taqdZ+cAvd6/eIU0/RhCz/Pa17CfPvYWfnGt3MMGbCz9F3Q5pqnwItYiA4AlNIRPmkZIUyfzUHjQJ2dECC+hYKCf69k5IMbqTr3ecxFCmhnmbCFOvKbL8Xx4Wq7j+hYcDm3HDBfu4BM9lNhFXtZr/fpYRAh84ZDkPGbRjqFVbNsMhzhLONIB1jyGrqDn4Bno1DqGeAcu/ToRel7k499bGNLIr5Je3Tl58nQRGppQZQYtYfv217HnTIoIHbfoOcD6qpeNecUPYrIMUMUijMkSMsvzQqzBDW+iav85YPgYiJwj3IJSEdBkKVc4ZMn1V4u/ne3bNMgStnBYxMEDYjkgc0gyOgmIEDXZGdCkV8IBzbKMGdCkr/7vi2hsh3jscVyo5yntIpCFnrsF7YfOAulDLMtch+8PEf8d2RMKaFJwvSOgJdQjOOYIS19U78BZBDD4mnl6jske3P76fDXavJazlXY9gtY68Wr+YSIulpOTr8NgEbbP1m+JfmItny1Cj9yeNfSIfX2vHhg0CZnlepZJbDMctB5B+5/Ff4OzVaPyvz4/PlSlWi/ny5AXqmLNjbv35gXXjBWhsB4nQs9bK46J2C/kI925X8LvPjggjqdwZG/XA5pgVHV+YhyPbS3iz5UIVZ620p1DaHtffEsCVyAwTc0Is4WJ/8TJj8T7lHul8T4lmjj5X+YMaNI6S0CTtr1uCWiS3n/xy5Q215iTUHNLRQCRIcgaQP4Tn1bJYzYRQ53bFMcsHHr+Ex1y14ZkGZ0X5l6pAnLbJ9ECmhDnNtuqLGFq3SfiOwekXGq87399emmoSrVB7ot87y3VrF4lbtFc8JMrxC9vI06Entf14y//OKmqqopwewvL/lEvSNRPJDmkFWJyjvg78dgBSzWjtBOfdoj/0oaJQGbaiadr9uLcoAm4d4Es4TqHPTWOKkyt8Yg9uG0/pYrecPlQ8d/oMeKrD7SecpZ4vYlPjon/bNsUzrSrUBb2JhavnpucDgLDrkNGOvDZQWtAc9DLfNHWoGeYvAKYWO7QllCJmbct+Msp8d/IMlw75y5jVm/Y3oy/6Ls2Z/YjaHuT6/HlGSD1EutwFuKkcsBSHSn89bNW8W8mLrK9mdFdPEausxVfOj9UFbvVSer7l9qDoXObyXTBJZFKLoL4sknftfp/y3BzaWm3qzrTZMgJBQAjIKSM+omrd+O5Q7+3B+Cjn6tAd+EIPa05w8RfP5MfviG4yBnmEsA8+XdYA1ms1P4nhwq+OIUvnSVKjjBk6jSAxSC+bXbxmHXRBRmRP9tfHdV3Y/S7x29Gqfzce95uxrL/pxeMy1eYOFLszcGLWIpGvpPkkJaDdFmdOLwEFQvW2W6h9mRWJ5/Dq7JUTDi3//Vw6VbczqFd/jJ5GZSuQlyvyBqCi3EWf2nR01GcPRkuRbPLwveH6bsxCq4vwZ4PRcCTQW1ptbpd+d+v048mh6wOvOr1Rsttdqj9S6+K0sDfGQx7klHSmI/LHjCD4jxkTBb74wqxCaRKaewnyi8+8S558SN18o+xUbusmpzwluXm2T4qgaLsV0pGkn6BemObMfji3d3iFzkXl4U6OYxCxlSxP8HDCDpDZY/6Cpvfa0Lje19i98wcjF92vp5P5B9JDmlNaD8j/pPVk6vnum/Oxv6jHzfakh1rQsrYu7FitJ6fSK6Ssx7UcgpfIBXfz9LTXdKCv3ShmvKr//s/sOuJEnF7WlWbXnzNw0kLamZ7LdlA3qz+23P7BvUXfVLoUrrU/Ou6Nb7V2c9l9WIvyclUbeBSCx7VoTaWNnbdY5S+BHD5fZbwohvXZ1z539T/fvbXtqDY/Us6fc+NdmuyKjBcZbf3VzI49I5zbXH8AukSv+6+H3FtM9FGXKICccrV9+rP2b329oxxSGx154WYIcJZ7syLMFGEtX3LvtHzifwjySHNq1ozkluwYlqOCnSLq6qxR4S73GmP63Zm0c0ZKZ535jC2y5I31aYsBaNGOduU3YIrh4sfq6adnlWo0RlhMyVdbKc7jv9ZtSO6dHSUasfjW9Am2565lrkO6aPEadzRtix+W/DZCzqoZeTpeZrev9Sh3Qlv8xDID4j3YwdavXowdka3L+usqlFVXYZKmXR7sUFjEYjyQfvigGx75rFM+URVonT6w96q7NClZrLdnaVd255oAU327pQnphf+p54RL6Oq0z5IqXFT7ZA6aUcWa1WjCoJJKjExqlI7a9dkvE40vh9ugxVFrMEvGqM00qO9ni65PP37ONp0bfs9TssvfCfvR0K3mVC61Ey2VbR+zroQ0KTkVHdeiN1HxOEb/aX4JhL5S5JDGrD+Q93OrNTZYN9K9rQsET+3ZgcD3T4NOeKLF+15wujHVdVpY51ZKmd0JEgZezselm3UtDmlxvq3dKmtmQ6bw6fb1hm/V3BCVzvaS7Fk704zlIkQtb1BLWMd+f/C/34vctPPonFLlPZsnsS673d0NojY7q0Bf1GlbGWI3LerM2vx5WnxnzUMyZ6LMVV3irBSPgmpnQW88s2qV2jb9nCI+WKJLKkLYPiCfSLw6JnKUxhujpNWsQHHzohlyissJ2HxuLyc05+rQ50Xep4+ZrpTQix+OmWM0eN15AR0KaZFOXmrE3608DPtduRcHRABr8rSSN3D3AeMnpfvd+2E3Kl1VeqqBRmlTyDDGk5k787QvjfiK2fIkT0RI1R3msEvXDXXBWq/Arj8duuVC/4bLpellDGGxbBDaHvdqC7Me+sBe1AT78Pl5n4mdJuJdAhfqmaJuiMEEcWlh8ZJ08Nk6CmTOcyFMTyG+KveMcSF9zhp1rHPJPuYaybXGGeusdT0EBzwGGPNk3XIDkOXx0kzh+EI8RjbrNNljCE4Ui3DdEjGUB0t9mX10BrWH/jIY59ZhvbQ4h8nzRw+Qk+qUf93I10Ete9bhqZwjh+m2HpxCtYhOEI8xg3T3Ot0DmHh3DeP4TIiDJWh1u0xHlqk+QY9dIeesvMYCkTdt/McV62b46RFH2rCOuwDjPv6EZOrR6VlOIkw9xhYRtWjnnAIr1NvX811ijBshnWdruEqHOuTvRVfB3LE/noN7eEagsJzCAs3+9AU5jATelJwDV2hj5lzH7zfG/f67D1upc63aez/KccxNI5PinP/hKifE8/3XLPtW+T30/U56iUcgoP8qm9dFkqHtFbbGGbUV0UPN1q0scX6DR3QPAbLNUJn5FCafJFP4DYRAgcNdDqguQKlGa7dQb43MKSRXyW9upOIOjE5G98X/3mN8/bXz23lq0R9y7QsVdLmGsJFUO3/fKK+1bM8kKjXMaQR9bZIvVMnVyBHXtUgmcNwECWTGiAZ7rH3phntGnt/GA7D2hNi79LaMHuBnkHkEwxpRL3uERy7fQPaBk3CGOvYcvoyUVF7eRL52n/i05ur0BaYiNHmMC/ydp9xmaiu9vJMuNVpyH0nHfk3ynHTmrCZYY18om+1SSMiIiIaIFiSRkRERORDDGlEREREPpTUkDZixAhcdNFFeoqIiIiIYsWSNCIiIiIfYkgjIiIi8iGGNCIiIiIfYkhLtIU1WFp7FEs3rkeWnhXdPJRsFMuvWamn+4u78NKN1aix3F4aph8iIiKiTjGkUVJ9cfBpFL9Tom73HNcziYiIqFMMaYm2qhhPFI3AEzfNQYueRURERBQvhjQiIiIiH0rqZaHkOGknTpzAl19+qed0U/F63L9oLOpXTkDLrKO4Pk/P79iBtZaSq6zlezGvsBXvFr2FrI2LcXWafsCxnGQsG9BTQsMGPDF/kXFfbW8SsHMFXliy1pinGc8DPhL7Ul0jZsi2aGX5xoOSdT0OBWss+25yLS/bqln2HcHwthT9eJt43tvZaj/T9SPtHvvr3KbXMop+zelR9j82sk1aGbIOPo0b/7hFzyMiIqJY9cGStACuXiQCB0SIkNWKRRvQmDYJ81wN7/Nxfe1i5B9YEWE5o8G+Eebk43qZvNnhRv81v0N9B5A+5qeOTgDzUDBGBLuG6nBoMqs5i1bgI/Ecb8Y2r88QYTG0Ta/lV+I2se8qgOnl1u6EeN17UVKsFzHJ/VXBVa+vsh7phYtx20L9uGAEtHrL6xyBDzLvc69LyJo+1gh7eRNRoOYQERFRb+ib1Z22Up5FqNkZ9AwVjZUjLKVFi7C/QfyXkW0EroU34+o0WTpVjDo5rSzCGyLkQIS5YhVy1qLugFh32lgUWANN8U+RnybWvyfOkiZzmy9Fb6+WtbwEuRChylKS1bLkVyLMiYA6yxlGZfiylLCt2o1G8V/6sHnGtAiGWRniv4bdltcJ1M23lsqFtWzdj3Z5x7E8ERER9aw+GdKc4ajleKv4NxNZtpKhINoO67ta3fwRoQb9BVfJqslWtDiDiiPktCypFtMB5E83Q49Z2lSP/av0jBipbXbsR51HOAozS+mcIWktWtrEf2bINHW04oS+axBBs8gaTvXzZIlbLMN81MzBC7K0rVtVnURERNRdA7vjgCvghKVnmg24jBK4cJWnEaLad76VpJKmPGTIdmgyVMnx1iw3Vzu2GMlwulaVNobXef/ycOgkIiIi/2HvzgjaW2XdqKFuj6wC1VWeqqoziPqtHo3uE6IBbbKNmqzStbQhC926OLRHy5IJeh1GGzjZbo1BjYiIyL/6RUiLrRrRzha8rBZORC4cIWzVW6o9mKzyVFWdcW7LdKJVtm/LxGV6WlHt1PR9JUK1ZsKsRfVNOqiFSgstZO9OWdrW766AQERE1Lf0/ZC2sEZVAzZujrOESQevq++xXr5pJW6Tw2hYe20qRgeC9DE3o3hMIP5taUaj/HxMMUuwZCAqy0S7o3dn3ds70O7ZY7UrxGtyXqJKd3ywlhaa2LuTiIjIH/rgOGnh8cAMzvHDPMYwi8g5FlkM44ep3pTWHqEGz7HPNNnL9A2zk4FtPDVjXZDPlUOK2Brry2E4ZiNXT5nC69L7DvfYby4ex822T1bmshwnjYiIqFf1yZDWHilgkI8wpBEREXUHOw4QERER+RBDGhEREZEPMaRRUl08+mHU3Fitbi8N0zOJiIioU32rTRoRERHRAMGSNCIiIiIfYkgjIiIi8qE+E9Jk1elFF12kp4iIiIj6N5akEREREfkQQxoRERGRDzGkEREREfkQQ5qfFZdjU+0zqK29D3frWZ25e41YfmM5ivQ0dWLiZny5bDP+ricHmr/f1ogvb3tKTxERkZ8wpFHv0kF09UI93ZOGVeBv/5SP83dt8MkXQV5U/yjuXz5PTyffd2p34Py82fhbSc9tk4iIYsOQ5mc1Fbih6BcoKvoVXtazkkWVwKlSO+st9hK8vucpfD1/Er5p2IDvVa/V8wag4+X43n/U45trH8XXE/U8IiLyBYY0CuuowwoVCuXtPdQjB7P6aVD7tqQEX4tXeMEbj+g5A9juGbigAfj6nwZutS8RkR/1mctCJf4SU0VYXTsTqPwF3hr2GBYXDtLzm/C2teRq4X2oLRuCXSsfx59nPYNZeXq+czlJVt0tKsDFetK+TD5WbFyAayGC0E0VqFXzNP087FyNG5bUu9cjw5PzOVrRcuu+ax7LO5f7wtyWJkvSZmXYn2c+p14cowWr9EzBtc2G91A0P7w14/FTjuNjHO8svV21vdCxdOtsm879j+t9kqVoy2bj211PRihFk9WOs5G+cwVeOH4zlpbl6/lAY+UIvGHZLxSvx/2LJiFdT4o9x7tFxeJdNlnWtSS8razlezGvsFUte0LdD+hH3NodzzXXmaun3Ns0FKw5iustx9i9HgtZ9Tt/EhDxmBARUU8b8CVp+WXPYPGYel2CtBq7OnIwy9XwfhCuXSRO/BBhJMJyMkTUimDVIsKFscwv8HaDLIl6DCuK5RL1qD1wBkjLhzif2hRNzxeBrAnVZugIVXPKdRizvMigY4Qh6zb1gxau5VaK03nhAmxaHg4fkZ3B54f1XRU0ndt8D/V5M+PurPDy/PC+fCGmZSgzX4O8WQNa7Pvf+fukTJyIrxHEd/ZGDyPphYtFQIMIQCPwhLit3RlEbtlelOj3TwatpSKgtYvgJh+Xt3cb8nF9bXiZWLQsmaCfvwGNYlqGKXN98mYLVjIU6tBnPm5sswYi5ocYAU2Gt/B6Psi8L/J+Hd+C77QD3/zgOiTtrzYiIooLqzttpU71WLy5yTNIyZKbcGmRGbiG4Ao1XYSbCwepZazh4uX5sspQBIdZRkSo3VovAskgXClCWZjY1phBQMNBR2lPJ4rLUZInw42zlMjBazkRAv995xlcXDgzclWmeN6/yJKrDvFaa/S8hTNxbdoZ7Fpp3WYtFlTKY1aAm5PR+D/O/Y/+Phn+PkYc//b9+M5xPSOSjh1Yaymhatm6H+0IIEOtbCWKCwMqUFlL1urmy6AVwNWzVuo5iVUwaxLSxX69bQluxjbzMSXU4WAesjLEfw27baVrdfMnoNp8L13W4jt/CopkmsmQRkTkEwM+pH1x4EN7NeLhUypIXWI9qwstxy1Va0LtkscRatC/cLQ4RbqXkQGmTpZsZVxqlOSIcFEtpi8ec024ZKf4GlyZJuLEHttedMosfauzVr15iLRc7fFT4t8h+AdrGBVBa7HZaUBXvxZZqj/vvipH/HsKf3ae6FcdFHEIyBoWS8lcfOLafyHq+6TMw7eXiP8+b8Z5xozI2prRou8qNXPwQpGu7lw4UVU3th93lsYtwn71nmcjy5iRQCsxVgTW9gO/s+8XGtDWIfOVWbe5Fi1t4r+82Vi6JvaweF5rq/hXhLRhxjQREfUulqQljLVa0MFSkvPyHntJnQohHXV4q5Ow1VVXZMp2XLLa1dprU9zKZOByCHUckCWAIkx6lbR1nEKkl3lxpsc6uymu/e9xQbRFfM8zcZm+mzDF2artm6qGrT1quS3G1SLoW9XNN6pnVVDTy/Xk0B5ERNR9DGk9wRpsVKmTWeVpVHW6SvMS6HDrGfGvbDyv23PZbo9jsWf1l67CFOGoJKZ2a4YvWuVzEqtr++8DHa04oe8mTE0z2sV/zjZrodv8RcZyWrit2wp8JEvaRLhjUCMi6jsY0hxirUa0sQUvqyIU5DmrVGvxlmxPJas8VVXnGXyy1VlN2jnP6j7dfssqUrVgp1a9h13ixG4tTXOWAoao6t5OXoeuEnap+UxV3UWqKu3y/ke0Fud9Lv67JLt7ba9W7VZtz/KnO0NPpCpJq3koGOPVm9NZbenU2eORrEX1TTqoRXnut5mZ4t9WnBehrd7cZytRWVmJ1xdN1XOIiCiZGNKsdGP5L3a+Z2nDFAsdvArLdU9Ow91rZopgYum1qakOBCLs3DxLBMKG7V0rDdLB0OyUIAPhatmOrEOWPFmosCV7PcY73pnuRGEtTTPXdY+1t6TYrqx6tLwOI1jloMDsSKCGx4hUPdmEzx1h0KbL+x/Zdw6I9yN9LP7erbZXi1CzM4j0QnuPyYI1cmiMenwQativg9WYn+o2avNQstFdPWkw25KVROiFKcLWZrHvebM7KRFbids2rre3iSv+KfLFNttbI3UXnoe//0AEx3YR0vQcu6kYPsS4l/rjGzDXuEtEREk04MdJc5bfOMfnMgOGa74H1/hhEcc302OmyQ4DHut1rcfCNj6YCJXh8dRkr8vHUTtdPFcOKeLYrue4ZJbxzdTjjnHSwvvpMd6bJWS4xiwT7K9BPv89/IN43pUH3Mt6vRfO49LZ/sfzPsU6TlpuwwZXFaKTMd6ZpVRM9gi9aY6jFM0+rpkar0yNvyaH93COb+YOcWp55zActrHZpCA+WmnpvemxjGuMNys9Ttp5/5GL7+7W85zu/CUqrx8h7hzFb8t+jnXGXCIiSpIBH9LMwVVpYPm2ZB++uhb43prxOL+zoTgGAHmh9b9esgMX/lt5lF6vc/HLyp9hRPAP+Lc7n8T7ei4RESUHqztpQDqvuhrfRQB/u7mC44JN3Iy/5gHffT9aQJNt0kRAw1n84TUGNCKinsCQRgPUI/jumh04P30SvrrtKT1vAJLVnP+Uj/N3PRm9mrOyEj/LldWct+PJrXo+ERElFUMaDVzHy/G9/5AN8ScO2AuL/71oEr5p2BD9ep2v/hxlZWXixnZoREQ9aQC3SSMiIiLyL5akEREREfkQQxoRERGRDzGkEREREfkQQxoRERGRDzGkEREREfkQQ5qfycs+1T6D2trYr1spL59Uu9F6bc0BInSs9K2TY6COk1huk3ldUt+Zh2/+tRF/K3FeozPSfCIi6m8Y0ihu8rqcnQdHedmtHgxBNRW4oegXKBK3tyNdQ7wXxXbMwv5+26P4W3o9zneNX7YW579fj2+ufRRfT9SziIioX2JI87NQ8DAvbp4kuhRq9UI9HSIvpu6TkjlnSZnn/sbu5flGoPPjdVvldUX/mhfE99bM8P6C7p6BC3cF8fU/7cM3w/Q8IiLqdxjSyPdUKdSiAmDnahWszFvdVbGXTPUdT+GbawM4f9cLUS/8fl71C/heO689SkTUnw3gKw7I6riZQOUv8Nawx7C4cJCe34S3rSVXC+9DbdkQ7Fr5OP486xnMytPznctJsrRHhImL9aR9GVkqtQDXog4rbqpArZqn6efJEKJKdpzr6fB4jiYDTHjfNY/lnct9YW5L0ttrEcdiwSpjlsG6z5/hZnG8IldeGq/1sNf+WFi3K9uFzcJ7KHr7Utvrrbfuh/PYxECtN8P7mKnHQu+hY1sOUY+Z0Pn+G5+xzo6Z9TMkS9G+urYVFyyLUIpmNXEzvvynfHz3P3IjX3eTiIj6rAFfkpZf9gwWj6nHClU6sxq7OnIwy1W9NwjXLtIn5AjLmaU9MuiYJT1vN4hlah/DimK5RD1qD5wB0vJRpKbDiqbnixN8E6rNABBj+yoZEhYXnhIneus29YMWruVW1gGFC+JsL1aLBfr5K3aK16ECRni7ZpVs7ZLH9fR74hUbwSa8jEf1Yt5Mcdzy8clK43G57vwy85iZx+YMPtkaW0DrjFnNKY/BF3qel5iPmdr/IajWy9n3P7ZjFjYPf/9BAGjYHdsXc/dufFf89/WYAXyBeCKifozVnbZSp3os3tzkGaRU2JhvlsuYgWsIrlDTRbi5cJBaxloq8/J8GVREwJtlRLlaETS+ENNXiuARJrY1ZpA4MR90nLA7UVyOkjxZauM80Tt4LSdC4L+L0HBx4UwfVBeeUaWUi2uMqdol29UxM46RPjYd4njrx3tEXMdM7n94OfM9vsT4YMRn2HX4ezrw3QOP6BmdeQTfkaH8kmxWeRIR9UMDPqR9ceBDe5XY4VOeJ9mW4/aSHKPESJ+cF45WVVrOZWRJSp08iWZcapS4iRN9tZi+eMw14ZK64mtwZZoIBHucFXPRmaVvdRGq6kyRlqs9fkr8OwT/YAmjslTR2jC/tnYBrhX7llSuANaEzzvEMcrM0dM9L55jltAAeVkmvkEQ553Q0zE4ry0IpGcypBER9UMsSUuYM/j8sL7rFCpxA17eYy+pU4Ggow5vdRK2uuqKTNmmSla7OgJYmTsEybZU4ao4eZPVuvrBASSeY0ZERJQsDGk9oeMUQvlt1UFXdZ6rNC+BDrd6tYUyb+FqRn+qx5/bxH8e1c/J1LePGRER9RcMaQ6xViPa2IKXVREK8pxVqrV4S7ZtklWeqqqza43iPavedFsqK8/luim2dXax2tJR/atKHj2PbfL02jE70YrzEcC3l+npGHybEQDaW3GeniYiov6DIc1KhJx/UR0A3oveGN9FB6/C8lCvROnuNXL4BUuvTU01Lk/Lx82zRCBs2N61khkdDM1OCTIQrpZDVXTIUiCLVe9hV4fsnZrAMcV0u73wtr3oUrC8ybZjEl0+VtxTYK/+XfUr1WP1Yo+elXevSdI4ab11zI5vwXfa4+mt+RT+LkP5580MaURE/dCAHyfNWT7jGjdLjZOW457vwTVmWcTxzfT4Y7LEyGO9nmOfabaxukSoDI/PZfSSrJ0uniuHFHFs1zk+mNLwntFjVa8n+jhpjtehj0uYe8wv6+s0Wfc/6j45ubZnP3axHbNo45a597+z/VOPO8dji3gshRiOWfzjpGXie2vGRx34loiI+qYBH9KyrKGHepRnyBnwnsLXy2bj64YNuOiNaENxyAutP4q/fd7ZckRE1FexupPIVx7B+buCQJ4IalEuoP5tyf34W3oQ36tlQCMi6q8Y0oh85rzq8bigAZEvoD5xM766NoDv/gerOYmI+jOGNCIf+s4bT6oLqP99wjw9xzQP30zNx/m7nuT1OomI+rkB3CaNiIiIyL9YkkZERETkQwxpRERERD7UZ0La0aNHWdVJREREAwZL0oiIiIh8iCGNiIiIyIcY0oiIiIh8qM8MwREy6HG8M+PH+nqV0ll8uPl/4FHHdcWJiIiI+rK+V5J25jHc+E4JiuVtV4OeSURERNS/sLqTiIiIyIcY0oiIiIh8iCGNiIiIyIcY0oiIiIh8iCGNiIiIyIcY0oiIiIh8iCGNiIiIyIcY0oiIiIh8iCGNiIiIyIcY0oiIiIh8iCGNiIiIyIcY0oiIiIh8iCGNiIiIyIcY0oiIiIh8qO+FtEGP450bq1Ejb9fm6ZlERERE/ct5OTk53+r7CTdixAicOHECX375pZ5DRERERLFgdScRERGRDzGkEREREflQUqs7iYiIiKhrWJJGRERE5EMMaUREREQ+xJBGRERE5EM9ENK+wub3mtAob6u+0vOIiIiIKJoe7Dggw1oL8o9kIXfhhXoeEREREXnpwerOC7Hh9ynAJV9jnp5DRERERN56vk1a2tfI13eJiIiIyJv/Og7c+UtUVlbi9UVT9QwiIiKigcd3IW3u2BHq/9QfTANjGhEREQ1UPRrS1p64QN+LbN3+o+r/s3/ahvfVPSIiIqKBp2cvC1V0Fvt+0Qb8fjjGLztfzyQiIiIip56t7qxNxfiZOajOPKbGTdu37Bv9ABERERFZ9UpJWus7OZixWs8jIiIiIpceLUmbN/UcAkjH7mgBbfqjeL2yEpWvPsqOA0RERDRg+a5359TCHyBV3gn8CDfcqWYRERERDTi+C2nvr6yF0b8TyLyUZWlEREQ0MPkupAHr8HGj/P8s/rSTg3AQERHRwOS/kDb9URTliv8ba/HkVmMWERER0UDTg707v8Lm91qQfyQLuQsv1POs5uKXlT+DvN7A0XfL8PNXjblEREREA1EPhDQdzuTdjgw8OTsVa9V8IiIiIoqkZ8dJIyIiIqKY+LDjABERERExpBERERH5UFKrO7///e/re0REREQUD5akEREREflQj5Sk/eUvf1H/ExEREVFsWJJGRERE5EMMaUREREQ+xJBGRERE5EMMaUREREQ+xJBGRERE5EMMaUREREQ+xJBGRERE5EMMaUREREQ+xJBGRERE5EMMaUREREQ+xJBGRERE5EMMaUREREQ+xJBGRERE5EMMaUREREQ+xJBGRERE5DvA/w+D5+QurXci7wAAAABJRU5ErkJggg==;" vertex="1" parent="1">
                    <mxGeometry x="349.99857142857127" y="336.9985714285715" width="617" height="337" as="geometry"/>
                </mxCell>
                <mxCell id="6" style="edgeStyle=orthogonalEdgeStyle;html=1;entryX=0.339;entryY=1.028;entryDx=0;entryDy=0;entryPerimeter=0;fontSize=22;strokeWidth=2;" edge="1" parent="1" source="5" target="3">
                    <mxGeometry relative="1" as="geometry"/>
                </mxCell>
                <mxCell id="5" value="" style="rounded=0;whiteSpace=wrap;html=1;fontSize=22;fillColor=none;strokeWidth=2;" vertex="1" parent="1">
                    <mxGeometry x="368" y="410" width="564" height="36" as="geometry"/>
                </mxCell>
                <mxCell id="8" style="edgeStyle=orthogonalEdgeStyle;html=1;strokeWidth=2;fontSize=22;" edge="1" parent="1" source="7" target="5">
                    <mxGeometry relative="1" as="geometry">
                        <Array as="points">
                            <mxPoint x="73" y="597"/>
                            <mxPoint x="73" y="498"/>
                            <mxPoint x="650" y="498"/>
                        </Array>
                    </mxGeometry>
                </mxCell>
                <mxCell id="7" value="" style="rounded=0;whiteSpace=wrap;html=1;fontSize=22;fillColor=none;strokeWidth=2;" vertex="1" parent="1">
                    <mxGeometry x="403" y="584" width="204" height="25" as="geometry"/>
                </mxCell>
                <mxCell id="10" value="Importacion de la libreria para hacer llamados" style="text;strokeColor=#B09500;align=center;fillColor=#e3c800;html=1;verticalAlign=middle;whiteSpace=wrap;rounded=0;fontSize=22;fontColor=#000000;" vertex="1" parent="1">
                    <mxGeometry x="380" y="831" width="394" height="63" as="geometry"/>
                </mxCell>
                <mxCell id="11" value="Importacion e inyeccion de la libreria para hacer llamados" style="text;strokeColor=#B09500;align=center;fillColor=#e3c800;html=1;verticalAlign=middle;whiteSpace=wrap;rounded=0;fontSize=22;fontColor=#000000;" vertex="1" parent="1">
                    <mxGeometry x="376.75" y="1058" width="349.5" height="54" as="geometry"/>
                </mxCell>
                <mxCell id="12" value="Llamado de la api para GET donde se esta usando la interfaz definida para validar la estructura del objeto" style="text;strokeColor=#B09500;align=center;fillColor=#e3c800;html=1;verticalAlign=middle;whiteSpace=wrap;rounded=0;fontSize=22;fontColor=#000000;" vertex="1" parent="1">
                    <mxGeometry x="341" y="1297" width="421" height="123" as="geometry"/>
                </mxCell>
                <mxCell id="14" style="edgeStyle=orthogonalEdgeStyle;html=1;strokeWidth=2;fontSize=22;" edge="1" parent="1" source="13" target="10">
                    <mxGeometry relative="1" as="geometry"/>
                </mxCell>
                <mxCell id="13" value="" style="rounded=0;whiteSpace=wrap;html=1;fontSize=22;fillColor=none;strokeWidth=2;" vertex="1" parent="1">
                    <mxGeometry x="891" y="913" width="523" height="27" as="geometry"/>
                </mxCell>
                <mxCell id="18" style="edgeStyle=orthogonalEdgeStyle;html=1;entryX=1.004;entryY=0.473;entryDx=0;entryDy=0;entryPerimeter=0;strokeWidth=2;fontSize=22;shape=link;" edge="1" parent="1" source="16" target="17">
                    <mxGeometry relative="1" as="geometry">
                        <Array as="points">
                            <mxPoint x="1544" y="974"/>
                            <mxPoint x="1544" y="1188"/>
                        </Array>
                    </mxGeometry>
                </mxCell>
                <mxCell id="19" style="edgeStyle=orthogonalEdgeStyle;html=1;strokeWidth=2;fontSize=22;" edge="1" parent="1" source="16" target="11">
                    <mxGeometry relative="1" as="geometry"/>
                </mxCell>
                <mxCell id="16" value="" style="rounded=0;whiteSpace=wrap;html=1;fontSize=22;fillColor=none;strokeWidth=2;" vertex="1" parent="1">
                    <mxGeometry x="897" y="961" width="518" height="27" as="geometry"/>
                </mxCell>
                <mxCell id="20" style="edgeStyle=orthogonalEdgeStyle;html=1;strokeWidth=2;fontSize=22;" edge="1" parent="1" source="17" target="11">
                    <mxGeometry relative="1" as="geometry"/>
                </mxCell>
                <mxCell id="17" value="" style="rounded=0;whiteSpace=wrap;html=1;fontSize=22;fillColor=none;strokeWidth=2;" vertex="1" parent="1">
                    <mxGeometry x="912" y="1175" width="357" height="27" as="geometry"/>
                </mxCell>
                <mxCell id="23" style="edgeStyle=orthogonalEdgeStyle;html=1;entryX=1.01;entryY=0.525;entryDx=0;entryDy=0;entryPerimeter=0;strokeWidth=2;fontSize=22;" edge="1" parent="1" source="21" target="12">
                    <mxGeometry relative="1" as="geometry"/>
                </mxCell>
                <mxCell id="21" value="" style="rounded=0;whiteSpace=wrap;html=1;fontSize=22;fillColor=none;strokeWidth=2;" vertex="1" parent="1">
                    <mxGeometry x="915" y="1270" width="777" height="72" as="geometry"/>
                </mxCell>
                <mxCell id="24" value="" style="shape=image;verticalLabelPosition=bottom;labelBackgroundColor=default;verticalAlign=top;aspect=fixed;imageAspect=0;image=data:image/png,iVBORw0KGgoAAAANSUhEUgAAA1IAAAKXCAYAAACIdHu0AAAAAXNSR0IArs4c6QAAAARnQU1BAACxjwv8YQUAAAAJcEhZcwAADsMAAA7DAcdvqGQAAABhaVRYdFNuaXBNZXRhZGF0YQAAAAAAeyJjbGlwUG9pbnRzIjpbeyJ4IjowLCJ5IjowfSx7IngiOjg1MCwieSI6MH0seyJ4Ijo4NTAsInkiOjY2M30seyJ4IjowLCJ5Ijo2NjN9XX2X/vSOAAD8BUlEQVR4Xuz9C3hV1bnvj3/3aU+1iawEBIxImgCRCnJLoVrkVhqyC0/Y9WCqWKiip1wUtd1qazmIHo8im9qq3VVRLvsoWvBCgz+6yYPdgVLQQL3QcBMsJpDsoMYQIVkYWnvqf//HGHPMtca8rGvWyvX7eZ4Fa4411phjjjnnyvud433f8Q95eXn/BUIIIYQQQgghcfPf9P+EEEIIIYQQQuKEQooQQgghhBBCEoRCihBCCCGEEEIShEKKEEIIIYQQQhKEQooQQgghhBBCEiR9Wfv63YV114xGBupQvvp+bNDFPZkFD5zCvd84J95lYM/P+2HODqucdE8K15zAzCFA894VeGLZWl3aFhZgxualGJcF1JYNwgurdHFPo3gD7lhyFbJRja1FxajSxR2Jfa5t2nR+ilpx8CdNCIi3wT8OxKgHvmCVt5XQb7LNOezffCseOaU3Ozk3lX4PV+cBxytexN2HdKGbkRPxanGu3ohRtzORczl+PWcUMvUmggfx+Lp3sVtvthtq/LKwb2M5ljfosk5PLh69ayIGox5bHnsDz+lSQghpDzgj5cv1WLFoPdZNGK+3U8CiFiGiIARUHvKnU0S1JznLD+C+HRUo1NskNhyzxKhaOAgPFYnXyj1o1mVJsyMTo6aL34mf9wW+cRIHH/hcf9AGbBF1chvmrJ6nX11HRMXD5KklQgRAGNMvYpZ6vSFE9/fw6EhdoTPT8C6+r/u9pU6XdQA3DRUitO5gFxJRhBDSsaRPSJ16DPPVH2vORkl+NlqYV8cDKRBQK3HDjhPCyA2/7li+QH9GOhO2cZ2a2SjJWmy7xmqzx85GSSrm4gkpWjrJbFTaEIJq23Eg0P/vuiB5Jgy9FBlyBuqtl3RJ1+P46aD4N4gzfuJv5ETcWdjimpGox90V9RhcPBE36RIShZzLMU3O+B2r1wVdhRacUZfGGYjbhRBC2hXOSLULnyP3Qv22LSyuEMJpNvJrXraefuvXJlyHGcW6DiGke3Hh35GaRyWn8EE3moEKE8CyK3PRWnXQ69Z1qE4Y11kYmKO3SUQmD8tHphCfh7qCKyQhhHQSUh8j5fbDP3sAT218DJV6UzK3ZD1KsA1PNU/BbSNETelu8taA0Pdqd8/D0qPijWrrUhzbfCs+uEJ8Z6D6um+bXv9/d2zWeNwz5xaMaXHuS3Lu8DOYX7kXEyY8bfUnAna9xPkcG18+ias+yUH+4vN0WaLImSgtohYu0WWRccdsOOJ0pCArBbaubMTEUKzJK8jR8TcI7cPaJ8oGoWLAASwYL6M2JH6xKbp/eks+OX5n5Whsq9CbAtUniLY35eoYFwu/eBLpWhbenzfOSH0+/DDWXlOPYmO/4Xru/rhJX3xNPPEysftv4W7Lwju2klhjFkKd/wK9IXCd744YM4m7/+F+aUKxUZqWPWL85sLXC8l9jCH0Mai2RqBajGPDtcYY+7Xp3m+E8Vfous0pimH72ao6zL6wLx6enQmfMxk31m/bqYjxquHPt+ES+TvZS38Q6ffb/i0WOH4XQ7/Zu5B9zQxxLVlxWKHfb7/f7rai4ot6Y7tvfIwQWfNLcFlNOb6/U05bhGOtQtS9gVll4VkY6SJ455BaPL4uiKtV7I1Fa1W4jRCumKwwOl5Hxz597IrVUn3o7R8HFe0zSaz+2zFDF8n+No2KM2bM+I77GBXWOI4N3Z5BnzgqO1bJxltHja2aOTyIgWZ7PjFhVt3w74Hv+CfAvEfL8J38VvzpVzfi4V26kBBC2kjqZ6RCLn3zUH5Sl/mRNQU3Z+/CnN11wMApWFcs//g+g/1ngfzB1+tKkgyMucYSXpZf/zbU9hqN20rCdaQRsFEIo0YhwGz///KTeShZ9DTu6acr2QycIerKfem6Yv8ZI27BimFAZeWt4X2IqtJAsNuTr+REVIpYPFYZuLX7Y4koaQwLw7CvMAjtWauVe4SOXIr71qzUdST9MfHW/nij6GVxrAWYuPl2FBxZgbV7xR+qIWMdsTH5pScso1+1twLvtBRg5uYNCD3k1TNl2cJwt2fJ1oqhGrfkBG5YrOvYDJmN+5bI/dr1gqL9A44ZNSkeFoxvFAavs/8eF8asq7Bgxww0rdT1yqqRLepZ+1yCF4x9WAa0rqde6RMEccfLRO2/Ragt+yXq+BHvmMl6UmBIcRdqc//YDh8zS0RBCJTw/tY2znBePyGXvkHYWqPL/NAiKnyM8hoXSJHkOIaAukYnNtrXragnz4njPhH3063AJr1fa9/ye85rtlMy7EFsXLRevawHRPI30dpWL+M31EJ+fguG1tm/e+7fWit2tCRLiCH7d3HzAUD8frrbGlo8Bc3q9zxDvH/a+v2Wv/W9LsUE929yG1EzKXV1loiSwuWu7+FV/Xp0ZBAnz6hqCmmcjzxmx1CJ18aDaM0TYqjUJYYCo3DnXaNwZqOuV1GPzMISZ7yVFlFSnNgxWcq1TIoCX1HXduLuv0D214wZe7wqiMHFJVjmNzs3Mk8IoCDeO+ojVNSYCtEDeVz2vl8Xf3gvx2RdRY2FFmJ23x4XN9rYOX4xarlCoFri1qorxk2Ot3EMUixagkvvTxwnxPH8eqrxoCUh5mGkekKUia+On6RKCCEkFXSca18v4FjIX1/8ka97Phz4nDUAE/RbhZyxKrfrvoTyw+eEIBqOuWr7epQII0GKHjWLpdlQLsWQEGFXuI0FOVNlBFkfPaKMrP59UphYIg0UjpFP16txOMZT7pzl8imwMIDNp+rCAN2kBNIMw/gTf5COvBIyKrNxGJtCsxf9kWMaiY6n9Guxbbsw5rNGoFDVWYAZ00Tfal52zH40LHtSCC4hwqYZgkshn+aHjdmGXYeF2Aig76W6oHgDJg6RsziGwav7nz3+Ok/yg9oyY2Zg1T51LrMHdJ2YsZT0P94xC9VzzZasKu7wmKuL+4vrseUwqoxZnoZlo5Pql7pXxDVbEfruElTI6z90zRo4rtslOCwFWt9c45oV4tI1Q1W1SQrkAAqmpP86q26MPEMek6P3hx4CPSV/M9VvnxZA8hX6TQ0jvQHCD4xewrvyYZj+PZ4wYYr4bRFtmDNKpx7Ds+r3eIrx0CoDGS27Qr+xGb1OoTy0rwxk99VvU8TgPgG0nhY/NnJGRM/+KIEhfmvc8VS7d5Y7Z2Qa3sV2mdwhL88TR3W8wphNUS6CwEV9w4a8SswgRNOWUHv12CLECgL5mJwmV8JE+u8WdLuP1ooxCaC3j5CNlmTipgmjkOmZMQpieZm9bblWypkxc8Zo987XsU9sDr7SEFwaKT7Ddevl8AK9A1Y9O1arwhCj4jjXiLHNLByVZLzbehxST1Na8ee9QgQSQkiK6DghdfZ9VBp/5BpPR57tqT3u/INfeVp+sR8ukX8Qhg1XMzXe7zuNgBBnm62n0yFewlJhVKR1tqnorxiRJYyiA8m69cXLAhQOlwZpIz7SJTYewSL+EFbvMpyFmur9XaQEzUf+4Pzs/cZwW8XfRIE4tuZG9xTBWlQdkcZrf1ysSxQuY9lNzpQRytXQLRgbPmwU/7oEXhzCsnOTmv7HO2aR6nUGPmqU18pVWGDOdCbFAuRENNQb0eC69mLP8PpQUR99pjGFrP3oS2JcmjB7kS5IK+fQ3KTfajaUC8GlhNN4TMgTos7z+yl+j4+9L77pFEiO32yf76SOAAb2Bj5uEtePmlXRMT79eiMTLTgZ6UfNwEpi4SZWrJC1X3/i22+q8O+/4EzQ6RqoMwN6XPts4eKbZCJXDitaa+p93QwVObm4TPzZscSsidh/jehboLfh7ifxCtznyoT41UItUqzW7ibZfvLxbuvvLkVpKd36CCGppZskm/AaACF6ZSuh1SHI9WBeq0PtQuCJ6XmYtlqXp5sooihdszXNH0aK4HCLn+iomQkUYKYrM6F/vAuRxDtm1qyPV2R3BuTsk3JbVO6Ouv8OF7t4sWdMr0JxyC1wJYpl7FXNPsOtL36k26FjXKPGkaWY1VnInz4Qjd8SvyPit2R7uwiqKLR8GDG+qWNm9bPQO2AZ5tYMkZW5bXLfrNB7JzKOJ+z6J19mHE78BLH8TSE8AqNwdch1LRdXy7ZsN8O0kKr+h1HCxTGzZpATwEXiPyVUYxC5TmLiR84wqrF0Had/LBohhHQs3T9rX1qfhsbAXg9mDXBHG40g9cReGMsjzJiRJIgseNKFdxYgGtZxumNz7FeEAP8eTrxjZs36uGYIOxOrikP9VjFQMp4uCTGVM6C/+l/G9oWEjztxRZzYCTAcMWV2zFV7sKhFCKjTwBq5/lw7PoxJgmheBe2GnoWxjPEwlpGvkyEolzcdeyNeMnYoGZRYEwwuto190bYn8UMqSW3/LSzxF3HGqSGIj8V/pktj4iQ2Q2fNsMlkHeFjDL+60kLBhJCeQJcUUnMH54VdA1WMUwaGDnU/Db0elw8EztXtTSJDVB2azwIZ2WZqpDaw43wcbhEyaPRnuiBxLNc8YRyOiWZYanc6V7IISSrduhxtVfwB1TIWytMv7WaY4CyAvwtf24i/zUm499kylJWV4Rc366IuQLzHZ9WLT4x39JjJJBtKTDnileLBmn2SGQvDwke8khBRYVdZM96qfVHrz7VkYGeHL+AtfkfrzNjUMNYaVXV414hR7RQoUSVd8LQrmXL9E4b6m/7Z8BJDCxAjuYJ6xSWiLHe5hElp/zWqzQhJJhTWGk2ZQ3I9cU4hGurxnqgzWM4IOghg8hBx/yQ4Q9dWF75ITFryvPqden4Jk00QQlJH1xNSwx5UaXRrq+yAZyv5RMaIGx0Z+uaWyKQLddiZVOzTXnwgf8sHmgHUHUwoYYT3KX3O8opQEomGZTLJRgFmmnWKN+BaZVyGk0skjact7Uol+mVmWMtZfjvGZQXxzqYEDdhVr+CdFpkVrcIjBpNGx3SNuzbW7MZgGe+sGDT5XiERugjxjpmqJ2dqXBnnFlc4s+NJ2nXMFmDGZnffV2KETEkexU3VnxpIOyy7v/xyW1mLBukybCapENf/He3p2teJqKzcJX5b8lBiZujrdxduVsl+tnWOhddlwgId86OQ8Tui17vlRXTqDFrFf6bBb2WH0xdwQmiB0cealYqIntEJ71PPKumthEhp/yV2kgj/JBMWYRdGM6ue+m6pnURC18mb6MjQN3nqJIwNBLGvMsEZukMHsS8YwNg5qVxIeRImfzVTvcv8+tWYp94RQkjbSbmQUqnIdXpdtW6ITJ+rt9dNSM6HPn+ykbJ3cj/s36zXmdLItOVPHYZKkx7at0rR679mSjxsKLdS95ptJtv/VKHiSGRKbSmmjJiNa/GK4fImU1i/jFqzjl7XxndNoTiQKbmjtiVdssqqDVcqOxV3Mq54QphdI2cjfGJ+koqZEci02TL+xjFufqJjPba8LU2VtmCln1f70GsPhcclheLQQbxjZteTosuoM2afNzteu46Z7Nc+jAjtR750On1jJsmMVVLrPhnxVOE076Ktp733iPVKPGV51UKZ7t8YL5W63+3a1xHnvCOQiXm2oVYuIaF/E+1lJzpuaQgpaKxMdM9VHkSrNPjlmlJ2WvA5+Xhvq57BkckWKiyD3467mXa6PEnXOCEetup92DE8oZeZYrwed9t9UZ9NFPeW1x1PpjW3v6/WiFLp163tX9spv1Paf4FOEuGfZMLg0BvhNOt6v6/eNUn84TVmxmQd0bewm6OdvjwZVzwxtutexJY6nzgpnzTv8fE6Ht59Qr/vL5+REkJISkj9gryppJ+1yK78Q20Kp65HKhbk7QisBVqlQZusCOtyTLkXz//wa8is/S1K716vCzsRao2k/pEXhO0IOtOYyRkjKWY8MVFy1ksuOC1jydK3HlaqSdWCvN0ZOSsjBUVbFmtNGLm20pxRyPTERNkL1+oFeXVpZ0QteKsWHk6hq2CnZh5+UfYdDAr+Cb+8+WEhrQghpO10/2QTnYIvoP4T/ZZ0Yibh3puEIMAJ/LYziiiBtZ5YYgk80ksnG7NL+6sZIW9ac+2mR7odzx2Ti+Umu75Qkqj06n6zOc4FgDsvMZJMdEMmLSnCIPH/id0UUYSQ1EEh1U6ohTUHB7GxSBeQToUViPzP+Br+hF+W/hidQ0atxA2uWDe5oG5KYt1SQKccMxXb5ZP8ZHGF5Q6YZAr0DqGoFTMGC9P86PmcjYqGiqkRwmC+c+HXm0pNF7sU4xOvpBg50XLNS2sK9FRQj7sfMxfF7cbc/AuVZOKfv96I35aW4sfP6nJCCEkBdO1rRxY8cAr3fuOceJeBPT/vhzkdnokrFj3Qta+zoVz5wutByWx0PBcxsN379KaNTGHuiQXrjMj1537SBBUZc7yruQN3FLZLnd6UpDUVucB279ObNscrfBa9JYQQ0i3p3EKKEEIIIYQQQjohdO0jhBBCCCGEkAShkCKEEEIIIYSQBKGQIoQQQgghhJAEoZAihBBCCCGEkAShkCKEEEIIIYSQBKGQIoQQQgghhJAESV/6c70GVAbqUL76fmzQxT2ZrreOVPekcM0JzOy7B2uvmYsGXRYXrjWdUPMyHlq4RG+kCWNNoeAfB2LUA1+wyttK6P60OYf9m2/FI6f0ZqcmF4/eNRGDUY8tj70ReeHTkRPxanF4wdQus76Pq99pXw8pEqofWdi3sRzLE7pRugtxXmeEEEJ6LJyR8uV6rFi0HusmjNfbKWBRixBREAIqD/nTKaK6JKuK8VDRIPFagXdadFm62ZGJUdPFNfPzvsA3TuLgA5/rD9qALaJObsOc1fP0q6uIqPiYPLVEiAAIA/hFzFKvN4Di7+HRkbpCZ+aQEE6qz+XYF9RlHcBNQ4WYqzvYQ0UUIYQQEpv0CalTj2G+MtA4GyX52ehm4HggBQJqJW7YcQL3Ga87li/Qn3V95GyRPKYbFusCxQLM2OxX3oMQgmrbcSDQ/++6IHkmDL0UGXIG6q2XdElXowVnpMAInoEYEi8jJ+LOwhbXLEI97q6ox+DiibhJl5Ao5FyOaXniJ+tYB8yEdRpiXGeEEEJ6PJyRahc+R+6F+m1bkK5lO2YjX7qUqZkR67UJ12FGsa7TTcgfs1K/ExR/EwVZ+n1P58K/C1mZCk7hg240AxUmgGVX5qK16qDXFetQnTCIszAwR2+TiEwelo9MIT4PdQVXSEIIIaSDSH2MlDv24uwBPLXxMVTqTcnckvUowTY81TwFt40QNaWL0VsDQt+r3T0PS4+KN6qtS3Fs86344ArxnYHq675temM+3LFZ43HPnFswpsW5L8m5w89gfuVeTJjwtNWfCNj1EudzbHz5JK76JAf5i8/TZYkiZ6K0iIojLkfFAQ3RG4LmvSvwxLK11oaK9QG2rmzExCVXIRvV2Fr0CnI2L8U4KVj0PlQbeBlrG2dgwfiAVb4pF3eo74jzVDYIL6xSLQp0//QWEMQ7K0djW4XeFNjtmW1Iwu3ImaelKDiyB83j++NwUTGqRGnO8gO4FodF2VVAgvuUyO+r/pu0GDFSxRtUf5odbUeLpbL6Oa4pyrlIQzzVz1bVYfaFffHw7EzoM5kU1nV+KkLsYuz7xETdy/Z9KXDUGfYgNk4Gyjc3Y6pqR96T23CJbL+X+Fze9+UpnhXLuRy/ntMb231jWoTIml+Cy2rK8f2dcqrB2h5rXBqtVfZnFtJF8M4htXh8XRBXq3gZC3c9yU2l38PVeXrDxI5xUn0bhY9dsVrqe70Pin28i926zEL370zkGCnPPt3xVEac08kJZt1ocT9WbNBFPsdoYccO2fi15a4TdMRaqX7jDTx+ehTuLBQnQPa7MqDGJ1N8bsWzhc/X9j4lqu9q3JtG6RgyZ5v2+MrvW7j7ZfUJou0tfcV5lftVtDEG6uZfoGzmILS+/UvcuPJ1XUgIIaQnkPoZqZBL3zyUn9RlfmRNwc3ZuzBndx0wcArWFUvB9Az2nwXyB1+vK0kyMOYaS3hZsRzbUNtrNG4rCdeRhuFGYag1CgFmx3yUn8xDyaKncU8/Xclm4AxRV+5L1xX7zxhxC1YMAyorbw3vQ1SVRqHdnnwlJ6JSxOKxSjDU7o9ljFuuf0oA2LNWK/cI+3gp7ltjzPKgPybe2h9vFL0sjrUAEzffLgTMCqzdKwynIWNRqGuh7wxc238bHiqrFuUzcMetI1C90ooRCs0a6ZmybCHW7FmytWKoxi3xccUbMhv3LZH7tesFkV96wDWj9gccrhF9Ui6LK1E8vhFvLPsDmsQ+swfo+Zg49ynF0ALx/a26jnxtrdEfpgkp3O4r7S9Enb1PMcbyuB3j385IUbNovXpZDwvk/WFtq5dxPymi3CcWVhxhSdYBPGXfI5sPAKKOs61+mFqcjZ3qnsrD1Dk3YmjdM3jq8Dmxj+GYq2ulCjWTUldnGcXSsL7re3hVvx4dGcTJM6qa4qbSScBWO4ZKvCrqkVlYgl9PdYnugDD27xqFMxud9cx4K0vQSIM8XEciDf90JYqQIm/kMb0/+dp4EK15QjiVGokqFAGMnWMJF6uujL3KxdXzL4fQuV5G5gkBFMR7R31ElBRmUiBJ4WPv97E6jDT3qetIIWbXebwKqg+OGLXeo7Cwz0FrrPJG4dcz8/GeEEYyLmywjM+yGTIJ006XizaCyBTvf61i397AcXFclw2zzpWKidMi1d7nljpxjHeVYJlrBnJw8fdwp9yvqhdjLOJg3ohB6v/Mr06GuKIIIYT0IDrOta8XcCwUoyEMu7rnw8HuWQMwQb9VOJ5cv4RyhxF2PUqEYShFj5rF0mwol4abEGFXuAxE9VTcCKw/ekSJpv59UphYIg0UjpGzG9U4bMyY+JGzfIYQXNXYas6iVMzFJiWQZhiCRRggR15RMz6SbBzGJnvGSoisHLteltjrJlu8ye88GZ7x6ZuLHDk7M030rebl8IyXoGHZk5bYmrZB1DGRs0bWTJOkYddhNIt2+16qCzRV+6uRPfybyJECsmZfqL5FnPss3oCJQ+SMV3h/6UcKvwCa9xrjhCV4QQvRtrhgVjdGni2NydH7Qw8ElIhR94EWQPLlmRmKfp9MmDBFXGeijjkzfOoxPKvuzSnGAwx5b28LzXxl4H08G3og0Q+XuB90tJHBfQJoPS0zgeTiUduwlgJDXHdnXK6Mz5W5stEdOqiM+MwhuR6j+niFUVe5CAIX9bUFV67UHk53wihtpYrdO8udWQgb3sX2OvF/Xp4nDswp6ILYXSM6F+htzBiFiZxkwnKb9GYRrMfdoe1wHXM2a/fO1y2BdKUhWMTwvVcZ/h5qXg/vs3cgVC8z0ILtdluBgDin4dmjzD5yCl0IoUJx3sUxmuPxXJkltsZOMESZJHgQj8c5FvGw/vAJ9X/rn3eD81GEENKz6DghdfZ9VBqGTePpyLM9tcedRl7laflFbYQNG65marzffwnvyhkxtyg726wMwjAvYakwJNM621T0V4yQguRAsm598bIAhcOFQdLSiI90iY1XsARRvctwEGuq908F3nIYVYarXPOHLqcyHb/U3Oie5lmLqiPCQMnqj4t1icLVnpMh6CvbkvtY9QrewQhcKwSTZxYuzn3mTBmh3BZjic+UomYOXWMreb/RVzAmwtqPviSOrQmzF+mCdBL1PhmPCXlCIHnqiHvz2Ps4J+RSdl9dILaOHTPurZYPnS65KSWAgb2Bj5vENaBmVXSMT7/eyEQLTvpe4CbOGaswMWKFcgK4SL/1cEYY6vpte3D8tBYcLtSYGEgRJjMZetzZoiWZyMnFZeLnJWoCCl3HErMmPoIlWIvdxjlx9zGEPcOo8Api61z7fV+cNyksDVEmaa2pT+05efbHKC0tpVsfIYT0QLpJsolzaG7Sb930ylZCq0OQawC9VofahcAT0/MwbbUuTzeRRJEg5BqXYjwCK4Qxu5UQUhTJmbI9qDCEUHb/cOBX6vfZdnIG9Bf/BpSLoZlZ8T4jJixpVmchf/pANH5LXFPiutreHoIqGlFEUcfM8GYJm9kytNWsis62Nlmqc7/May7XP/nyjXGKhZ4JyiwcFZ4JGjlKxV6lN+udjPlx9j8c95McyjUyeBBb/ISjEqQ+QsaHiKIobck+ovSrDbNNhBBCSDS6f9Y+n6fm7Ya9BtAa4I42Gr4fNUrDpAAj2pj+O7L4SBeNaIg4AxWdhmWj8VCii+Yqkt9nW2n4sFH8K90XwzFZ5stMZpEwi1qEgDoNrJFrkbWjME+CaDPM7YaeDZLufibKyLcTEzhifWRcja6UENZMmHIxs0VNcW6aFwDWyRykm5rRfxlHlDzaRS7SjM2pM2gVx9q7Te6Y8cwMphimLyeEEJImuqSQmjs4L+waqGI3MjB0qPsJ+PW4fCBwrm5vEq5EdWg+C2RkJ/N42ocd5+Nwi5BBoz/TBYljuea50oJ70K5tZrIITdrc3Cr+gGoZl+Tpl3Yz9MQ3RUEYn3HN2sS5T0vUuGandNxUbFZiRFz1XKTAhS8Sai2ylgzs7PDFnMU9VeefLMJao6oO7xrxip0CJaqk4LFmLqz03kHsC8XotAE1+yQzyIUFjXzFJ6Ks+KqE0e5sx990Z/prA6rNCEkmJA1BfCz+cySCcNNQj/fE1711Apg8RNybDje9FKFi1sKJJ8Lo2LVUu/K5mXIvni8rQ9mz9zLZBCGE9DC6npAa9qBKt1xbZQe5W8knMkbc6MjQN7dEJl2ow86kYp/24gPp4u8Imu9gQgkjvNnfcpZXhJIYNCyTSTYKMNOsI8TDtSoBQji5ROpYi23bZSKF2Y5seTnLb8e4rCDeCSWqaCtr0SDdN1WCizj3uWqfGIsAxl1rj8VK3LDkKiFGXIZiRb1LpLrTqieAOE9v1Ii2PJkIuxeVlbvE2OahxMzQ1+8u3KwSv4STS3QoMjZGx/woZPyO6LWMy9ktU0A6jG+ZajtJ1754Z2o8QsSdIjwB1D6dgkVmDkzetc9OEuGXZMKmHlvkjFfeRFdmQ3Ecoax9QSx/U4hTUcfM0Dd56iRLbKZCuHqw+pVZOMmRoe+mUjm29eFEFWli0vivWinXA1/D1TerIkIIIT2ElAsplYpcp1RW68vIVOV6e92E5OIm8icbaZon98P+zXqdKY1MW/7UYag06aF9q7TMfuvkxMeGcpmK3Uq9breZbP9ThXJ1W7kHzVJMGfE31+IVZ4Y4O922EZ8j10gyM9yllFXFKj16fmm4T1bKce+aTikjrn2KsXCM1ww0rRyETUf0xyHc9War9apUKngDmUrd+lyvt2WMsSnoqhaGU7Hbn6vXZncGw66MTD4hRLtMk67vD3sJgo5bJqAFZ4KWoHmu8iBaZdpyuaaUnRZ8Tj7e26pncA69YaXTLizR8UUl6P1mkq59De9ijWhLptU245XUy5FWux53231Rn1trGrnd8aQgsj7Xa1yF6hvpw8U+v6/Shoc/s1OEJ0U8iSQEKkmFTv9u7/fVu/JwyMziJ8ZW1jHH487CFmx5zJUlMYXIftkp1u19qrW52rI+VJy8vnIHrLx9QP+LOCdFCCE9idQvyJtK+lmL7ErjzBROXY9ULMhLejqpWpC3OyNFiBQU/gvJpge1aG9hwBsTZcZhOdKFdz7CCw+n0FWwBzHv0TJ8J78Vf/rVjXh4ly4khBDS7en+ySY6BV9A/Sf6LSEkbTx3TM6WGNnz2gErmYVPinTtytf5iZFkgkRnyr0oUqul76CIIoSQHgaFVDuhFlMdHMTGIl1ASCIUtWLGYCB49HzORkVDLYQrhIHDpU7OVJU44mdSibV2Uy5GGjFBEitGJ90p0FNBPe5+7MV2ncXrHszDL2SSiR9+DY1bS1F693pdTgghpKdA1752ZMEDp3DvN86JdxnY8/N+mNPh2ddIp0euRfaTJqjQ/uN0DY0PmThCxxfZpNm9znbvc1KPLe0Qo0MIIYSQjqFzCylCCCGEEEII6YTQtY8QQgghhBBCEoRCihBCCCGEEEIShEKKEEIIIYQQQhKEQooQQgghhBBCEoRCihBCCCGEEEIShEKKEEIIIYQQQhIkfUJKrgG1aD02LnoQc3VRT0euI1X7Wp14nerSC/MWrjmB+zZvQJrWNyVdhJ+tkteyfLXgZ7osFcwtkb8bxqvkev1J50euJ/XqXd/Dr6e615QyketcfU/VUy/X4sGdhpETRf/St5Bx2unq/e8h3FTaSe+BnMvxa3F/PupaaLszwDEjXQJ9PXTav3EpgjNSvlyPFcKAWzdhvN5OAYtacO83gD0/z0P+dC7GGwuKtXSxEjfsOIE7li/Q28nz08XyWs7Dy8ebMTtFYkqKqJKB57B/8zzMWa1f5S/pT7sDuXhUGPeX1ZRj1mMvqtfjNfm4s5v/oYmEJTwn4ia9nUpuGpoL1B3E8gZdQJImfYZ7LkbmAcfffBe7dUnPQv4exHrw4oZjlviYkVTSaYV8B5E+IXXqMcxXhtD92KCLejI/G90sfvkCyQuo4g24QxjA97lfa1bqCj2TnOUHXGNSgUL9GWkfflrWF0H8DbltnmW9HpcPFP+d3IVHTlklXY3dTS3q/4+bgup/J3ImaiIuqirH93eGP9+983XswygspGGQOnIuxzRpbB6r1wWkMzJ56igMRj0OHdIFJCYcM9JlaAjiY/n/mWC3Fv2ckWoXPkfuhfptG6ktG4SHivRr5R40D5ndQ8XDAszYfAILxgPvrDTGpGgfRvRwcdkxnEP/Av22jZxrrtPvuhkjR2FsoB7bDRFlIf7I1ASR2SdLb5O2MnlYPjJpbHZyApg8JADU1eE5XUJiwTEjpLPxD3l5ef+l36cGGRt1zWhk6E2cPYCnNj6GSr0pUe472IanmqfgthGi5sltmPPWgND3anfPw9Kj4o1q61Ic23wrPrhCuvyor/u26dkv6lDumA0bj3vm3IIxLc59Sc4dfgbzK/diwoSnrf5EwK6XOJ9j48sncdUnOchffJ4uSxA5I7XkKjQLIfXCKl0mWVyB+0oL0Lx3BZ5YtlYUSNet2ciW2x9epz6zkSLM8V3dZrbeBKqxtagYVXrLRs76LBjvelresgdrr5kL6TVjfd7o+q7RD9WvMO72Qn339MeFZ59SRI3Gtgrr40h4+l/zMh5auERvSEG2FAVHVuCN/ksxc4juT2jsgqF9SHfDmRDf3ZTr6KdnXAXR96k/H35YHE89isU45evy8Hk0scbSruM5T2rcRqBa9LPhWtFHcQwKz3i5zqGB/37jpKgVB3/ShMZX8zBttS5LCulSOwP9I91nwx7Exsn9sN/9e+C51wVRfw+s34Khdc9gZ/Ytqh11b5+eIdrPE59L18JbUz4rJt0hpp12zkaFkPE8xcCWx94ARL2r8QZmVQbw6zmjhCCwOF7xIu4OCQM5u1WCsWe89VpdM16WK8xEDNZb8pret7Hc6/Im/dmNdiyMuvrzjx39sI7r6t4H8fg6l6uROqZcvSGoE30tkzNE7v64qVfjYBqKah/y1Gi8x2hite+e+Qujxy50O/iNR4wxs8/XxjOYpsZM9vkgBtrt2seqxiwf74nvnpxgHEPQZ7xinifrc4jx39K3BHcW2gfgHS+JdJsM1/GOmRrTaNeZ7/Vg4DmGWP13ocYwy1snzjGzjq/FOe4Sn7F1j0X4WjRx99/CvO98r/UI94W3vfB58vTHRcTrm2NmFfsQ/TchGpH3GcJzLzjr2PfS46dHWX2UY2XcV/Z4qGMYUivGIoirjX369j3GPuM95xaxfvOsMYj62+Lpjwvf/cbHvEfL8J38VvzpVzfi4V26sAuReiFloARTVgQhlXUO51p2Yf7x4co4OncWOFbxvDAKtdiRcRGmMSTFloqVsIyt/NA2QgIoJMAE4VgL2yDSQqqXfG+UK+Msz/HdmAZdwqRRSOlyhAxh0+gOG9xu4WEb1qYIUEJhSFg4hMuchrsq65uMkLJEy7gs5z5yllegcFexQxC59+FEt4NIn9vY+zP7r8cnJDK0kBI/LDjyJDbhdiFwhLDIasQbcnbLOAZrLGQb4f67xzW+fYbH32zLFsUOYeY5vz7nxBCgbkGd7xJw/ueljbRJSJn3pR/ee1URuv/19xH+nYn9e6CFlGgbdc/jWdyI20Sz53qdws7VR3B5Su99G/mHahTO6D9eDmEg/wBtBRbO6Y3t4o+WElLqs/AfO8uIgPHHz/zDaPxR1OIlZMjobfMPtW2QmMaO53uhMsNoi2D8+BlK9vG523tUGBvmd62+SMPOZbgYWG25DZcSDKy0x8KFu98mtjHg+KMvxrI0F7vL9HY8Y6b30RpswfZ1dRgpjJCLgqJuzetYg0nhYzKND7eQNA3TePZpGnyh7+rrAH7j7zWCYLQfvgbD9bzXmYXfOXbic0yybH4AWyJ8J2KbcY6ZPT6S8Li569n3iXn96DrmNeAzPn7Xu2+fferZ59MpPsR+S4G7Q9sSqy+RRb8TjpkksTGLShz79N6H+pjywr+71jEG0XrmIL5/LE//NgDvbX0dmCnGUj7wEu2Z4+/8LXH+9sazT/OcRz6XEm+Z1b55n+s68q37OnD9tkgiXodJMQ+/KPsOBol3rW//EjeuFGPWxeg41z5hOB17yw4iF1JJGDShJ8BZAzBBv1UYogl4CeWHhQE0cLjOBng9SoTRJJ8oh4UQsKF8G2pFu2OucGf8kk+mjafNR4+IekD/PilMLNGeXNrfMqA/dBnF0mg3hE3DrsNoFjdG30vl1koUCyNeGt2mKKta+LIYiwDGXatd44SBPlEIh9oyUyC1gcXXeUSUpGGZU0TFpPibKMgSx3zkD1FElCC0P7P/S/BCWbW4xq5C8WJdJMiWwskWFllibIxjzu5vT/FInP1vWCavswAKpujkDQnsU1JbZozFqn3qWsweEE4EUXitEEjiXG4yRI91ngow0Z0wQoimJ0L1luBwjfivb276E3bs+CIa9dvE2YtHNtqJJeRYWrNDoUQT5r2qUZ+Hfg/2orJO/B70ytYPD+L/PciQwskWS70y0Lg7PKuVkW2rnBSRE8BFaMFJccHKP2Lqj9BjL2KL9GL09R83/mAKdu88iOPiOrtsmPVHOIw0dgyj91CdqAdc1FfWE38Ir7SMBNPgUDFZYnPwlXawcLheyKhpC+IPvIpPMo0kyaFk2g9gYG/xn8uV6bky45hdREsycdMEt4iSBLHcFlFxj5lEjHHNwVC/MsUVtib0nSwMNG88w4hR56xK1MvL00k2EtmnQPY/1JblFopA7/AT9dD420awoOFdrBH7zCwc5UrsIa+zcL3dR2vRKvrTu58uiBd1fYt9OmLS6nF3REMrjoQJUccsjLzOwuNWL28BoHfAGjPlTus8RtWvCtFuYBSu1tnl7OsifP7aQvh8hvsvEft1bCcKxyy1xLPPXFwtBI0UKuZv13Nlb6jf47ETxPdtxM/Be5X29+Rvw+vh3yB7bDWO38ZDB637XP5uKRLYp0T0P+K5FNgxdVuMY7R+W3zaivXbkhbW45D8wy9+ef68t+uJKEnHCamz76PSMJAaT0d++lt73DaaLCpPyy/2wyXyx37YcGVAeb//Et49Kf5zi7KzzcpYC/MSlgqDLbVPn10U/RUjhOFffSDJ2ahIyJkI6X4mDGhTECma6p0io2IunijSMx2Lx6ox84gvl/GdM2WEEGnVOOxuO0kKx4i+thxGVSKiqQ2o/QkTv8G9Px/Bgpp9hvAJoul9/daNp/81kPkFbLGV0D5jju1KjBDNegWjc582tfvNmaf2RAgp0Z+Cb7XCJe3Sgvter6y8VQguLYIS+T04ecRwBzyH5ib9Nh306y2MjjPqD6GMcWitqRfGkCUSWk9bCSocBGux23HSW6Te8sZRqTZNhBEgBJr6w5qTi8vE33Nv+64/kLpeqhIzpDY+KYiTZ8R/eRPxaqnrj74ftojwPRbLELXGPgLxjpkiiPeOijKbKAHV7v5YSUm02EponzH6L4g0/o592niusyTRQeWDi+NLfR1PwoSoYxYiiDOuBy3Plb2IWVrAKVGtH2A4cDxwiOO6SIQU3082HLMUE88+xUHKe8+bPMgrWNz3kn/CIYn7HOrfuJCQTWCfguhjZv298cbUufapSdn5TJD1d5eitLRruvVJukmyiShGUOhJdQcgXZ7kOjsLgSemtzV+xCK/1MhQp139nK5b8RJFLGT1x8X6bepYgJy+4j+3wEs3LY34SL914xYiKSNV+yzOVbON2eOXhs+5eknXQatK5+ALmDM7D/m//zvuldf7y+0jqCLT+X4PJvcVJ0wa2vqPt/VHMkv+HYvyBzc1RG7fbWClhsF9xEF5BF7ySCPvcfVkXYgpuSZJlNTHSkQED2KLn7GpZ03iGe/2HjNJqvapxl8+1dZjFXpJF6a0IQV8ufVkXYgpa5+R1vCyjLvWqvBsXlqJci2mJcGLfGjiI1baBscs5cS9zyh10jZbk6p9Wn9jzN9O+xVyLSdtpvtn7fPMQLUjOzIxSgio/DXAHcLA3L5Il7cBR9Y+e4Yp1UQRAsmzFg3SuE2Fq1lFPZrFf9nDv9mmtpob5fRb+5LQPvVxShdM85yHXkkJ6HQgYwCFgBp9vlpXKn92pjjbnZSO/D0Iof9IasM+RArFR3z4PHVOAcdPC2s6xQbG7p32uluWsZ5ZWOIjprRLTKSnqnrWxHqinizpGbPoJLZPNf5C2GzR65Q5X5FdIttOEMvX6f1sPKhcBMfO8RFT2nXMMZvXQfjOBreVU2eSc4+MBscs9aRin+3+my1IaJ+WJ4NyX/T8FohXSmKcSJcUUnMHCyltuwaqGKcMDB3qjnGy1qQ5V7fXmd0vLurQfBapi5PYcT4Oi9+egtGf6YIORrmZGXE9IZyuZA0fysiX/sgpVh9a6LipmGj3QZOPGsUdnTUChWZ7EbDqRpoZ0y6IMdqq2i/jknzqqL4FUb0rBea+jtey3epSu09/F762kYY20+W6mgxp+T1IJ1pUyaejUVzDknJ9aajHe+I2Cvve27jcPXwFho4fiInl4mNiuROJ8jhcvPxdj6IhjXUtptxPxpVLTDRjU7tHDsl1uLM4iHfM2ohyn7JdgVK8z8THNDYJi+OGd/F9Labchqrj2BMgme89J++XQD4me8Scea34u82qGCD9PhqWK6WB7eboOZ9+RHDZdcExM4lvzCQyKYKcffGdwY5nn8qd0S82NZWuja62UrpPfxe+tpLqh2WTljyPsrIyPL9kki7pWnQ9ITXsQZWuuLbKzgRoJZ/IGHEj7jF+sOeWzBCGa104mDwh9uID+bdo4BRHm92HJajYG0T2+NsxwzD4C9fIbH/V4aQLWnCFkk/IjG8yg1yL/CENYwmuAoywEyno7HNu7MQM45Y4172SWfvMfkjsNj0JFTShxBhLDri+K/poryO16hW80yLq3LrBmLkSn6u4sm2JJbjwZQFm3Golg6iwZwZTus+12LZdCLMhs3FHhHFIHD0zOGSGZ8y7B+n4PUg1lnFpGh3S4IkskoSomWkFdvu6rEVEiI43RZt5Ex1xK5OnTrKCyUOB0ZbvvZmIQGbFGyu+36q3FR7Dw8j0ZGIHTxe7ZiNGOvuh0E+FPUHPIcQ+3Cvoa1HpfDJuB477J5mw0OMRGIU7HfFW4rul9j7iHbM2IMZBZTQMJQ1I8T7V+MvZoImeJAPJYovjaZEWjRbH5DZWLWPZ5aJkx7BFS5jgh2fM4sQei5nmNSSuKZWpzb5WdCxa3qjQ9WolhHFd/wLLgAyLDDMLWxg7yYN7TMR+PXF+dgxgeN8eOGb6vU0cY6YIP+Txf3gSzz6tOpmFkxz7uqlU/u75rQmYON62UrvP5yoPotXzm9c2Yv4eJMQkTP6q9Zcw8+tXY55617X4ov4/ZXjXYhqN2xatx23incyklUxSh/zJ67ExdBfIFMbzHJm8ZLA5IPZ7jahnFUGtNbXatdZUAmwofwaXyLTKRpvJ9r8z0rBsNNbKFNxLTggxogtVpj8znfgSvLBSrpkkF/2dLbZlNrpBqJgivjfcqqFYVYy1A0SZjN8qlQXV2Fq0AjkqrbiJaK+oRqUHn7njBGbqUpWy25OcQbep4oOWWmVG+nCrrSVWKnDzGHTKdwshRK4R/4n9LRD7s1Gucsmm/s66ytGWe32olO9TjMND78v05sY4KLzZD+OlaqF1bsYZ46bOQbJj0slIx+9BW5F/eO4cEsDkhnexvW4Uri7+nkrfuwXC+JjzPYyVrhemSJJ/+O4SL73pzSwVJ4fE9yDT635PvHSZ/EMdSmtsIbPgyXVlZFzN1WJbZoyaVZkLuU5JmHrcvfGgKJP+9laJzD71uFx3xDHBKWeNXlRPg+WxvapLrWPQ723kzEVFb9G3cJvO/ol9br0cvxb9Co2FwJMR0J6xk4IkGnI8Tsm0web+ZIay8rCxGeeYJYKKGwq1Jff3olPwpXSfxvjr8xmiDdeROs+FJXjVfgomM3zZrkHi8zXCQH71LtOw8vY/UiIMP2KOWVzIsShXaZzN+0ld34ZBKl1HB/cxrlc5TuugHhSYeOrJMXjMWhPIRNbb3STPpzFeejzc2PfeWONeCaez5pglM2YW1gMi6cAUaRYnnn3KOhC/03ca+7KOIUGBGsKKXwzdlz5tpXSf8jdWjLc8L+HfPAvP72i8xPo9SIjX8fDuq1E2UyZA7y/nL4AulnQiretItRm9jlSjY42nrkgK1pEiHU70ta16MClbkLcbkyONd2udqFiGcWrX6OgZqKfcaqHLTjZm6rx7197qmQSUcX5ZTYz1fzhmBhyz7oQ1Gxd93byeiV5LKvgn/PLmh4W06lp0/2QTnYIvoP4T/ZYQ0vNQcTCpcoUgTmIkmSCdg06UMKHLwDEjPYBJS4rUgrwndnc9ESWhkGonqhszgMFBbCzSBYR0E35W2oQAsrGPs1FRsOJgZLY5R5yQfJKcQt/1nomxdhbpvEj3xbRmDeyGcMxId+bmX6gkE//89Ub8trQUP35Wl3cxKKTaibUP9MPDfwSu+kkdal87RUFFujw/WyWv5TrMHpyBPT/Pwk91OYmANIoq6o11dsRrTr6xGj4hhBDSQ3j2xygVAqq09MdYr4u6Ip07RooQQgghhBBCOiGckSKEEEIIIYSQBKGQIoQQQgghhJAEoZAihBBCCCGEkAShkCKEEEIIIYSQBKGQIoQQQgghhJAESZ+Q6ncX1i1aj42LHsRcXdTTWfDAKZUuuqunPy9ccwL3bd6AHL1Nuhdpu06HPSh+D+Rvgv3qSr8NuXhUpSyfiJt0iR83lRqpzWPUjYRqY/7lmKy3OzcBLJsv+htrLSy5XpYYE8caWqTzMXKiuG5LsMz+ce805y3O6yyV+Bx7Z7k3u9ZvBEkafQ3yXHduOCPly/VYIQy9dRPG6+0UsKgF934D2PPzPORP74c5O3Q5ISkiVQJXrnmWPz1Pr3uWIjElRdTkPJw7/AzmrJ6nX/djg/6462MZeldDLqD5ovWqAK5OUkx1NyYPy0dm8CC2HNIFJGkmTy1JWqTH4qahQqjUHeQCsAJesyQ9WA/lfj01oLdJVyd9QurUY5jf7Yyl5PnZ6GbgeCBpAZWz/ADu21GBQr0dongD7thxAncsX6ALugn6uO4zXjcs1p+RdmHtAwFU4xz6F+iCNjB3cJ74tw47K/daBV2OFpwJiv+CZ3DcKnBwU2kJxp4RIqrMWFz30BvYUpeLq9vzKXqnRIxBYQCtNfXYrUtIJyTnckwTt+nxY1wgmtcs6RQ0BPGx/F/88eF12HnhjFS78DlyL9RvSUyUaFxyFbB3BR4qGhR6HR7jIyRJ2ul/8ef6XRs524xa/bZboQzQIPZVeg3Q56RR2jvQs90yRuZhMIJ476hUoqSzomZgUI9DnIHhNUsIiZt/yMvL+y/9PjXI2KhrRiNDb+LsATy18TFU6k3J3JL1KME2PNU8BbeNEDVPbsOctwaEvle7ex6WHhVvVFuX4tjmW/HBFeI7A9XXfdv07Bd1KHfMho3HPXNuwZgW574k0t1ofuVeTJjwtNWfCNj1EudzbHz5JK76JAf5i8/TZYkhxcWC8Y3YWlSMKl2mkDM3WnQ8sWytLrTrh6eOm12fKxZX4L5Sc7qh2tu+wN2WomUP1l4zF2EPkAWYsXkpxmXpTfFH6J2Vo7GtQm8KwsfwCnLMumZbEY7Hn5W4Ycds5Ost9z6lq9tMvIy1jTOs/te8jIc25ar2s8XntWWD8MIq8UbtcwSqxXcbrhXfGaK+7nOMAt0/+X0L95hZfYJou2KAOW5+Yxt7zOxjMPstcfbd7I8Lv2OIm8+w/bUG9P/jQIx64Au6LDnUPZ/lc98qYt+bYaTb7QzjnJ/DfvH78MgpvalcCIHyzc2YqtqRvwPbcIlsv5f4XP7WlL9k1U0R0tXqzj4HnbNRNtLHfU4+3ttYHnKXkvENV8sJOk1rVTm+vzNssKnPex/E41uBhXNGCePW4njFi7jbZeS620Kda1ZMxrwUZ2Gf2P/JCWbdemx57A08p7cspMvJRGFA2vjV8dmnxL3fENLl0We2LoT+PPTzIgSpMVY2UcdMHSOwZeMZTFPjJft9EAPtdkN9s44PYhy39BXnrNDeaTxj4e2X6pN05awMiHMc/TypayS0P+85V58PqcXj64LKHdTeb7ieuz9uvMcQdcw8WO1f5K6jrt9R+Fgc06GhRntBcX2ue9f1lDy5cxnp2onvOot1zRrXn+s8RR6PyNes6lOc92asc67Q42u3E2nM3G0pfM5BXNdZYYvz/pD4ns84UfefMevudz49x2meJ2u8L6spx/Y+Jeqcq343jdLthsck9n0SxjNm7n4Zv82O30bfsYh1nVmfR/tt8T2HBpGvx1hMwr3P/jO+FjiB35b+GOt1KWk/Ui+kDCIZT1b5OZxr2YX5x4cLw6cfzp0FjlU8LwxDbVBJY8cURyEDSBtShkFkC6CQABOofQw0jSxtrEljyjS+dOyG+V17H/2TFk5u2ldIKeN7iGG4+4kTWXZtPZ5YuMTaDhn1ToPf05Zd1tc00LWgkUJFt2f1Fw5hYAqysLBzftfve75oEWgKRLt9W2RY/QyiuWkbntg/VtTvj+YWIWmefhK4VRxrk+6vKUZCxxDpmMLtS6zxMQWQIe5C39Vji8THzGpfvgufg0hj5D0vbaVtQir+BxNx3ptGnJV9X3rufVVH/p6cws6NR3C5vI/PnhN/RJ/Hs7hR1D3lesDSViwjoPebliHl/GMp/4jWYeRdo3BGGwKWcej8IyzdAgdWho2nsAHpMiCUART+niy7uqk8bMDZxoppMJhGTqhcG4owDAb9XRh/zL199fleFKNToduVhrjb0Az112G4iPZKc7G7zN7WBoxZx32cWiy2BluwfZ0cbyEIguIYal7HGmFkhMfNMIZC7fkckx4z07Cxz6tpMIfPk9tYgsMY9oyjz1iHrxvDkNb9cBvpfteCm3iuMwd6DD1GvD3W8n3o+rHG0Sm69Nga157fWMiymNdsvNeZzzhGvGbVLRl7bBW6Xb9rNnzOo9+b8ZxzNWbzA9gSOkb7e0Y/Q2XucynKpKDzfDfe68w03L3nLl6sfbqEpBjbR/FGaNvep/fesY/TOkeXiTEN3bPib15rQNzP6vczfK2Z/Q+15zmX9jk3x0wfo9/viHgbdSzius709+Tb0Hf9rmOJVdfz0CJZptyL53/4NXUcJ7aW4sfPWsWk/eg41z5hNB17y34yLIwtYeiEnipnDcAE/VbheIr8EsoPC8No4HCd8et6lAhDShpXYSEEbCjfhlrR7pgrrtclNvIJtfEE++gR5W7Uv08KE0t0JEIUTBQ/QrVlhuCqmItNe4PIHn9d2DVOlIVFlGQttm2vFv8XYIQdi+TXlg85y+UMgTD0jfYalj2Jd1oCGHftSl0SRgqRkKDDEhyuEf/1zUWOEByFw8WPZMthVEUTUVKYTCtQQiXcjr1PIH+akXAhS0iQTXa/RNtHngyLD7VPA0PUyH5ViDHDkLF6zFaiWIgoKdxsESWpWviyuH58jlPOBIXaWouqI6KtrP64WJckNmZSqIXPQcOuw2gW++x7qS5IG19EoxjPZKmsvDWUWKL8pCiQM8mhRBPzfB5SRLs3hdgqFH+xxW+B+b3Kyuex/6w454V3Gb8Z8vdkW0gsZeB9PBv6Tj9c0k+/TQlZ6B0I4ozss/iDbhlUL+LxKnG+PfFUAQzsLf6rqwsZRJLnysJGUxinMbX7aC1axR/gkUYGsd07DYNU0vAutteJ//PyPIkIpKEQNpKC2F0j+hfoHXrCetMES9CsMf6wP1f2huh/LqbZQdEjRwnjRPRrq2kURCdawL69T6eREcTykIiSRtgo0UdhsJh1xHGukeObNyqcXU7e2zUHQ+OaKa6c8LFkYaB5ozv2Kfb3phiXQD4mqzrC+LlSJlx4w2Hk7N75OvaJzcFXurNnyfMUNnCt8xRAb/saE0aYijuqCNex+59ZOMpzno5XGNfCoTp1/VzUV49/3CRynVnETDLhMLLrZdeQOSQ3NBah82QY4taYBTB2Qni2Iq5rNs7rLK5rNoQ0euMb29hJJmLcm3Gf83rc7bj2Rf8rD6rr57Jhul9+bfmR8HX2onF9W+czYRfk0D5dgvNQWERJ0aBizcTvj1nHOk/OayNTCie7T4GAELLhY8nsE3LbUDj2eeigdW/Ka1hiXz/GfanGukLe56NwtTsDpeNe945FQteZ/G2J8jubFnbtxp9V107gEEVUh9BxQurs+6i0DSZB42m3URWm9rgtoiwqT8svaoNo2HD19N/7/ZfwrjTe3KLME6fxEpb6GnUppOivGCEN+gPJzUaFKcBMVwIGGUtkunXlTBkhtqtx2DD2JQ0fNop/+yOn2Nr25f1GYaCHidSWEy1+ava5xNZaNDSJ/9xiRfy4NL2v32qqFg7CQ4nMohR/EwViPJsbpQIz8QoWtyhr/jAsvNzU7g+LGoljzBaPVdeZ9/umEAzTfOQPUY4nwTGLKSzTxRdQ/4n4O/CNT/EzXZJWot2b/cZjaC/gXLP8K2eyF5V154Be2dYsoOIcjh0z7ueWD33cCVNETgAXoQUnxcm2jFHLeB3cR5xfT4BwECfPiP/yJsZO4xysxe64b4gwx0+H/9ibfNzkLJcG7SzjaepIYRB5A+utBBu2EaOOL6F+RQvYj7RPE2HMDBHj6JPgwzJeDcEixtYRzxIlONuzz1Nnwm3l5OIyscvW0+4nCBGMohjjESnuaHeTbN8l8HzqJUcC15nENoijJJmInoBCnyeXcAv1I4aB7r5m47vO4rtmQ3iuIWFYP2aKCZs4kkyk9Jy7sJMLaOKNW0tsn/rBj8FzZS9ilkvUxSKuvqlYM+/vj694c1w/3j6Gce/TeZ2p60f/JjuIIJ6jX9uJXWfRf8/Sxet4+OZSlNKtr8PoJskmzqFZGqB+OAysdqaoFQflejwLgSem52Haal2eNNK9K5x8Qb1W7nGIn4v7yx8JH8HliIWykK5gjjrRYm0iMgR95W/JkNnOtsQrFGuUJiKLohiCMWm8IjCEKd5i0nFjlig/XZyH/J9/ETPUulIt7SOoohD5gUuqZ5ripF9vZCojTf/BVQa4NSPgNcYtg0XNVkkjV64P0qY0uNJFxGrDftluLwmhxKAwCgplWm2zPdslKkmUEVUffspsovfpNbB8iCKKEp+tiY/I/YphCLtQgloa545xFS/b3TJNJHKdKYM46gxMLOSsrPjP2Jf9CsWdhOjC12ycJHLOpauao47tHpYgHXGdqX1GyGLqJIooStdsTZR+eUR2NNJ1nZFuRffP2teRmcJ2ZGKUEFD5a4A7hCG6fZEuTyMfNco/AD6CS73csTfSZcz43CXK4qMG6qGXdItz7Eu/EorX0TMyWSNQ2CYh1IiG9p7BaWnER/ptbFI5ZunlZ6vCDwLyp2fhp7q883EKH0R8gtl+WAa4NixDOJ+OWrNBcq2pcuWSIv9IJy6mtE++dCWx162yXQoTRT8FV+5/Rluhl+GuFT+2i5x7lkKj99lWIRSXEEspPk+6o2DNtki3Mp9xNV3N0kB811kcMzAx0UsDSPc/zzGKV2imo4tfs3ES7zk3Y4fCn0uXscTpiOtM7bOtQiguIZZa/B5wRSQt1xnpbnRJIaXWpLFdA1UcRQaGDnXHOF2PywcC5+r2JuHWU4fms0BGtudxWnLsOB+Hxb1bMPozXZA+4nLhw0qMkDMfNdscyQrc+Lal46bCRHLhS46q/TJOK4CCKVHWxar4A6rFeOaPcccSRXKZS47CMQXCRtBudav2ievMr1/WWEZ35XOT2jGzUSI6oZmxWHyGseKvZPDo+aLHHcypvTgmY6EGu2Mex2NCXgZw8kinW69OGfnyiWZEYyGI5eu0kZvIU1KJdpk5/mZi7jj+RHCHcuFrOKl4BP3eRLvIRXab0fs04my8aHc6n5iveF2e4sHRVkM93hO7DMVbhIjkvhaduNy5EiTxNqNcZ+o6amua7/hc+OK9ZuO7zuK7ZhMi5jUbH/GdH309xZgJ9G1Lu2KapOM6k8ikCnIGxu9Bj7XPXEfcpgflTmfEfIWIx7U3XpxtqSUnQjGPBkld62m4ztLQ5rxHy1BWVoZf3KwLSLvS9YTUsAdVGvTaKjsToJV8ImPEjbjHcO2ZWyKD+ZNdAHQvPpC/EQOnONrsEqx6xUpYsCTamkt6RiSUSEEgs+C5Xfu0eAgnP1iJG2T2vxbnD1HVpj1ozroKC9Z4E0skzKpibK0Bsscv9SwyXLjGPiadGGPIbMcivTnLb8e4rCDeCSWXaANiPKSbXe12e3bISj6RPf52zDCEZeEamaGvGm8YSS/iIaVjprGEbwEmdrfFmRV78UhVnbgnZ2DFMF0kmDDhRozpdQ77Q4lrOhY5w2IF3ltIIx0hYyEXj853JSuIGJMTAxXX4zT4pdGTlJuUNLRlwoW8iVFnxqy4JCPAWhh0v1bZ8qxNEztAO1rAvpXkYRTudMTxBLCsNDxGu3ceFIZYrnNRY7HfhXIWpSqcXCJpPG2Fx+JRw0CcPHWSMOSDvmuFRUUFwgcwds5EjxhMGh3TZQbqO4n3OrNnYKIkmYgTlSTBcy5dxHnNxnedxXfNJkLsazZO4jrnWnyaBr88TrdrnxYi4XMtzq3MICezUpqk4zoT+5ICReL7wMNO8lBcYiR9EcisfaF7px5bVMKLSY46N5XK42ybC6WNpy17LGaa94AYN+nmmPC1nvrrLHTuHcly2sI8jNTxK4Mm34tJ1lvSjnxR/58yvCmPR+O2Retxm3hnpi1OhPzJ6yHXhrGQ6ZHnhTN7CWR2MEDs9xpRzyqClSHMb82a+NhQ/oy19ozRZrL9b1+EyLhmLRqk656MudGlilBWOllnCPrumB2uI7PMrWzEtVIohViCF1bK9YtkLM9ssW25AlZMOYAFw60aCpkBsMJK523VC2OmCo8XmXyiSqU3XyraW6pLdVv6vRRcD0HWOSFeuky5NEbPMBiNfEdb1rGaM3YNy0ZjrUw9vuSEEKq6UI5bURKueCkeM4UYk7Vq7Spj3Nq0jlQn4+j9mAOZ3tz8PXCvF9fOSONQPT1/VxkMdxaW4M66N/B4lTAqi4WRKN2Y1tnGQj3u3iqNJVGuSySerFfx0PAuvl/RG68Wy7gUq0i6nzx+Wqb7trYT4tAbmHVKpvktwauO7xsZykL7tOtYmdAgUwHLzRD6CXFVjKfNoX2Gj8HeX/h7MinAG8olLFwnyTHTqHgH4xj9so7NgtifOH9yfSoLeawxMqf5IgyxdS8qwSDjVxzj5MiElwA+597ZvzivM3sGRhqKbUX26bGg5zxJQvuN95qN9zqL55qNmziv2biI75zLLIpqLac54jpTJdY5VOm+1bZEnMuNB417RB7bi9gyTPzOODxD0nCdiX3LhBDSAch/5sjYZ+gYBGp/+r1AupgCor9mHeXemexsuhULFjpGT1uyX+Uq9fidd4nfYV2q3POSEW4pvc4svOfe6l9y6dDXY8vbRfjnr2cKYW7N5L5ufUDaibSuI9Vm+lnrSDU61njqirR9HSmSRvQ6Us3JCphuS+oW5O2+5ArjMbxOFBGodV2QpPBIJ/JcpXD9li6OitFRi5umwj20i9Npr1liYsWVRV9DrUdiryVV+1uU3s3cfe1N90820Smw0kgTQrob8qltNDernkZqAvZJuklFkonuAq9Z0rWZ9x25IG8r/vRbiqiOgEKqnahuzAAGB7GxSBcQ0slZ8EAQBcjA4dc5GxUNFR/i8aH3iVPpEVjuPsxm1dmJtI5ST4TXLOmaTFryvEoy8Z0+f8IvS2/Ew7v0B6RdoZBqJ9Y+0A8P/xG46idyPZ5TFFSk07LggVPiGq3Dvd84h+pX+2HODv0B8UfGdGw8CDjWGpkIpCSjHiGEEOLl9ZU3orS0FKU3P8y4qA6kc8dIEUIIIYQQQkgnhDNShBBCCCGEEJIgFFKEEEIIIYQQkiAUUoQQQgghhBCSIBRShBBCCCGEEJIgFFKEEEIIIYQQkiAUUoQQQgghhBCSIOlLf97vLqy7ZjQyUIfy1fdjgy7uycj1eeTaPBCjsufnXXd9nsI1JzCz7x6svWYuGnRZZyVtYz7sQWycnKc3JF3pOs/Fo3dNxGDUY8tjb0Rczf+m0u/h6tAhRq8bCdVG74N4fF1XWFMpgGXzSzD2zBvRF+fMuRy/njMKH1e8iLsP6bJ0M3IiXi3Owr6N5VieyE2n+5qpNxFM9bmIc8w6gmTHrFuS7HnS3wutNR2MMZ7x/bYQQkh3gTNSvlyPFYvWY92E8Xo7BSxqEQY9hDGfh/zpXOQ0FlKs3bd5A3L0drLIhZDzp+fpxZBTtBCyFlHnDj+DOavn6Vd3elggjSchgCCMrsdetF4VwNXCQLpJ1+jJTB6Wj0whSLa0l4hqC3KxYH0Ot9TpslSSk4vLAsK4ruxkIqq9kEL1ru/h0ZF6u9sRxPJ19m9ADz3HhBAShfQJqVOPYX63MzCT52ejm4HjgeQFVPEG3LFDiAv3a81KXYFEY+0DAVTjHPoX6II2MHewnKapw87KvVZBl6MFZ4Liv+AZHLcKHNxU6vPk+tAbwhDPxdWlubqgpyLGoDCA1pr6LjDDln5umjBKiMpa7O7xMz7EIvpvCyGEdDc4I9UufI7cC/XbNlJbNggPFenXyj1oHjJbCKoKFOrPSXT6X/y5ftdGzjajVr/tVuRcjml5/jMMzx0TZb0DmKy3eyQj8zAYQbx3VFqLPZ1cORwUlYQQQnosqY+RCsVGac4ewFMbH0Ol3pTMLVmPEmzDU81TcNsIUfPkNsx5a0Doe7W752HpUfFGtXUpjm2+FR9cIb4zUH3dt03Pfj0xK+Nxz5xbMKbFuS+JdNGaX7kXEyY8bfUnAna9xPkcG18+ias+yUH+4vN0WYLIGaklV6FZCKkXVukyyeIK3FdagOa9K/DEsrWiYCVu2DEb2XL7w+vUZzZShDm+q9vM1ptANbYWFaNKb9nkLD+ABeNDTvIWLeEYKevzRtd3jX6ofoVxtxfqu6c/Lox9Js5n2P5aA/r/cSBGPfAFXZYc6vrN8rkGFbGvszDShXQG8vWWqIH94lp/5JTeVC6EQPnmZkxV7chrehsuke33Ep/L+6b8Jatuipg8tQR39jnoH0eh4m3y8Z4RI+GMoxJGdVU5vr8zLDJCMVJbgYVGrM5xn/gid1uoc82KGTEvJyeYdf3iMexYDRv/mA3PPiXu/YbwjzNRbeANPH56FO4sFNe1/H5lIBSb5D7WWGOmcMc2KXziU9SYGLOEEftunItIMVKefUaPc1HXSmGLp44qH1Ir9hNU7qD2OXAepzGWxlhJ/MYjNWNmXRMXub4b6Tiija3vdWPgd31HJHRfHUTvOXK8rD6HrnFXXJvVX+P3OMI59+2jp25894kilTFnN/8CZTMHofXtX+LGla/rQkII6XqkfkYq5NI3D+UndZkfWVNwc/YuzNldBwycgnXFUjA9g/1ngfzB1+tKkgyMucYSXlYsyjbU9hqN20rCdaQA2igMzUYhwOyYlfKTeShZ9DTu6acr2QycIerKfem6Yv8ZI27BimFAZeWt4X2Iqs4YmHlJiqg0834jmvVbk+zxS4WIghA31uzV2r1B5JcewIxi63MpZu7Twsye4dpaU4CZO8J1JDJWyRJJZj39YcIswIzNsj3gnZXh9jbhOmufFXPxhLkPKZz0tnp1YHILdY0tWq9eStDLa1Bvy5cnni7KdaaQIkmIqP7GNfbUYahrPVRH0Q9Ti7OxU12TeZg650YMrXtG1D0n9jEcc3Wt1BDA5CEBHJczTwJpsL161/f0ayJuagjiY/WJhWWoScNLx1CI1/Y+k7DMHdgWEAJDGYpWncerghhc7Iy3kvsaeSzczixhVLbmCcPN40oYwNg5Yr+h+K1y7Avm4ur5l4dnyqRhqg1muz3lliiPQVexDHnRjhQW9j5VW/pjP1Q8kDCS9fg46D0KC6UAlXEkeaPw65mW4JTtDR5qH4M0Wl37FMeJQjHO5nFKg1UIApnMwu6/X3yKOj/KsLXrvYHjvmMWB1qEwBizWRvPYFrEtqxrBXV1/ka3POdivGEfg+h/pjhOTyyR7K9xbXjrpXbM4kVe21JESUEUau9YXqhfz5XpMnmdim1HPfFKJgnJZTNH4Yy6ZgLifYl1jctjCORjsrqnrGvWEn32vvQ5N6//eK/tuO6T9DBvxCD1f+ZXJ2OSekcIIV2TjnPt6wUce8t+mp4h/iA/H34SnzUAE/RbhePJ+0sodxiR16NkRIYSPWoWS7OhXBqeQoRdYYoyiXyqbzz1P3pEiab+fVKYWKI9ubS/msFp/tA562OJkPAMUcOuw0JwBdD3Urm1EsXjA2omyJyhqlr4shiLAMZdq+Ouijdg4hA5k+WdpUqKxddhXFZQiKjR2FahywQNy4od2+nhi2hs0W+TICyy9QMCOSuqt+XLK7KjXWfjcU9hnrquze9VVj5vPUgovMu4/uW9sS00s5qB9/Fs6Dv9cIn7QUGbyELvQBBnZJ+FYWobbFL4eGMeAhjYW/znMqSfK/N7Wu2cSdl9tFYYn7kYaRjVu3eWO43PhnexXSZHyMvzGHVyNiL8VD2I3TWif4HeoafqVtzOQawxZh2eKxMGp9jntKn6Sf7IURgrkyRsjT+DXdQkE6LZ90LukGKj5vXwOGh3yMlTR4k+CuFpzgiJ41wjx1eIL0uACiP4SiEQ6t6IYYzrWK0qYz+i7bul4R1qKwH69UamGEuHy6JMVBFhdiueJBOOWZlDB12i0kYKceOaOVSnrrOL+lrnKbVjFidCYEwTt6dnVulQitr3JYDMMwdD45AZEPdeaOwD6C3vc/ua3WjOGOlzLoTr1fb9FOe1Hdd9kibWHz6h/m/9825wPooQ0pXpOCF19n1U2kamoPF05Nme2uNO96XK0/KL2ogcNly5Rnm//xLelQavW5R5YltewlJfQziFFP0VI7KA6gNJuvVFQrrCSde9mpedLnuSpnrn7I2e7VH1Fo9VY+YRX1iCw3ImqG+uypaXM2WEEGnVOOxuO0kKx4i+thxGVdpFkx9fQP0nwt74xqf4mS5JK9Gus37jMbQXcK7ZnUZtLyrrzgG9sh3ufseOGddmy4c+7oQpIieAi9CCk+LCuUkavFokDe4jjKozQrBYtTRBnDwj/otnBiTJZATHTxtGvcHHTc5yKcLkk3nLuIwUt2MFwWf2ETeiQB1fQv2KkWTC1Za7j9IYVjM4PkH4lrDUxnK0WS+TSLFap86E20oE/b2xc0riEmGxk0zU45BDdOjrxR1j5xkPIQyEeLdc71I8ZnGiBLOn/+nH0X+fY1bXrL4/HbjEZ3zXdnz3Sdp49scoLS2lWx8hpMvTTZJNnENzk37rxmGUtjNFrTj4Wh1qFwJPTM/DtNW6vA3klxoZ+2zXvIVL9KeJEETT+/qtm6z+uFi/TR0LkNNX/OcWeO3ITxfnIf/nX8QMeU5ea2kfQRWFyA8PUj3TFCdyVkIZcNrIOi2n8KyZJ+u9E+nepGarpJjSLoC/TvpJtuXCFXYllC5MSbSlxKAwBKXrl6M9cy2cJFDCpR7b3XE5ieIRpGFsQzgeJveVhq7l5ug4Tk+MUJyoNOlyNsJsM5KLl3V9HH8z/tm8NpGiMYsX9eDAR8h0CqL0KyHxk677hBBCehjdP2tfR2ZX25GJUUJA5a8B7hDG+/ZFurwNOLL22TNMqaalER/pt6ljLRqk2NWzXR3Bz1aFRW3+9Cz8VJd3Pk7hA2O2tqOwZlWku5+1beF8Im7NBoVjMKRhlriY0gHvMqhex2rIlxJpiaLjuJT7n9FW6BXJVS0qtutYhHigFOGdxYrM7iYpbKWbl88xildyLmjWbJBqQ8UX+cfL2O527T1j40ciYxYvaibUcBXtKvg97IhIWu4TQgjpeXRJIaXW8bFdA1XsSQaGDnXHOF2PywcC5+r2JuEKVYfms0BGtthPKthxPg6Lv3EFoz/TBR3Mqn1izAIomLJAF9isxIghQPORP6hZo4YPG8W//ZFjJJ+w46Ziot0HTT5qFAZK1ggUmu1FwKqbypmxzzBWWEbBo+cLSdfBnNqLY56kKpLxmJCXAZw80unWXlMGq3yKHfGJuFy4U4upRN2C1GxPqmY44nNN8jWWVWyJfm+SEtcxHcvlE/PlcCXTBq5zpkULOZNkXfji5ZBOdCCE9EDHk48YSSYiEsmVLBopHjNf9PEYWCJV9NedGMMP3337Ifoz35r1SXbxXrX8QCjxhIG6f8JunvFd2+3kwheJKffi+bIylD17L5NNEEK6NF1PSA17UGVNq62yU09byScyRtzoyNA3t0SmlU520dS9+ED+LR04xZv1r1uwBBV7g8gef7srQ99sMWbVeMNOV64FVyj5hExpvuQq8TfY+oNtYwmuAoxYbG3bKdndNCyTCUBEe0uc617lLK9w9ENitzlxuVvsdQf24pEqma1yhiND34QJN2JMr3PYH0rC0rFI49CafbCQxitChnAuHnVkChNowZHQk3GJEgXORAQya1pSrn1S0L0pDM68iVFnxuyEF6GgepnBrDgLrc5LW2EH5fsmmUiA3TsPKrdJx6LGYr8LVdKIg1qYCHEgLo3MwlEh8aAWSBbHJccohE7GMbg4vpimWMgMgG4D3zcmx05kECXJhB83lcoU24m7RqZ0zGzxMCRXX7dS3Pi4stmJMdxjO3KijwjSbRr79kXfGxJvwo04Uf0KYOxM874T96FM0V4XTlQR37Ud332SLiaN/6rlghr4Gq6+WRURQkiXJOVCKlqaaE+K6DjJnxxOM71xcj/s36zXmdLIjGp26ujQvuU6P451pBJjQ7lMxW6lXrfbTLb/nZGGZaOxVmjMcUvCMVcz+zoz/UnB9UJo0V9ZZwaaVg7CpiP6Y5tVxTq9um5LpV1fgXc89rRoT5XLNOvh/V6LV7xZ+3SbKo27XXfzhg5zC0w5R+9XKdHNa/u2Eaecmf7aGylo1JPsemypCio3PbmmlJWuXAibIbVGhq963C3XhjLjK3T6ac/6PrGQ8Tkq21w41mra6fLkXPskcjbFTpFt9u8uwzDW+wzFiMzpje2PlWO7TIjgIJmZlEhI1zmdrtruk8+YycyHKqW7riPHYtZWr4OyFaMGb5yUIXDNFPZqTSGVltzaNg1o6aJ5aKjRhqyv0mc71xSKP0lHuP+R2oqPVI6ZnDUVbYXGoASX1Yh6aubNRNaTqcBdMWhD63xcJnWbruP1CK6Gerynu5v8zKbclzhOhM+hjGNT6ctNV7x4r+147hMpwuxytaaWMSbuBykJ8PrKHbDy9gH9L+KcFCGk65L6BXlTiV5kV64PZQqnrkcKFuQlbSR1C/J2X2SskrWWTTildg9HLUKKyIuU9iisWDa5NlS0GCwp3nwXuCXEYN6jZfhOfiv+9Ksb8fAuXUgIIV2M7p9solNgpd4mpHMjXaQCGDshSdejbkf7JJnoKnSmJBOkizPlXhTJINraHRRRhJAuDYVUO1HdmAEMDmJjkS4g7cqCB4IoQAYOv87ZqGg8V3kQrXnuuAmfeKgegeXixQxmFs71ughJhnn4hUwy8cOvoXFrKUrvXq/LCSGka0LXvnZkwQOncO83zol3Gdjz836Ys8MqJ+kjPOZCzL6amrW8uj0yLsK1HtHxGO5chNjQtY8QQkhPoXMLKUIIIYQQQgjphNC1jxBCCCGEEEIShEKKEEIIIYQQQhKEQooQQgghhBBCEoRCihBCCCGEEEIShEKKEEIIIYQQQhKEQooQQgghhBBCEiR96c/1GlAZqEP56vuxQRf3ZLiOVMdRuOYEZg4BmveuwBPL1urSjuQzbH+tAQXy7fEc5C8+T5W2nfG4Z84tGNNLbwrOHX4G8yv36q3OjbUGUQCtVeX4/s6gLnXhWucqat1I6DY+7irrY42ciFeLs7BvYzmWN+gyH24q/R6u7n0Qj697F7t1WWdH9TkvyfPYXnS166VbEMCy+SUYG2jPdexy8ehdEzEY9VwHjRASF5yR8uV6rFi0HusmjNfbKWBRixBREAIqD/nTu5aIyll+APftqECh3iap4DxMmy6vhRxUD25A7arPdHlbsEWUfHgxD3P0q6uIqLiQgmJOPt7b+CJmPSZf5XhvSAl+PVVYWz2eXIwUguT4m11HRHUVJg/LR2bwILZ0AhElHza8Koz9m/Q2IYSQjiN9QurUY5ivDDnORkl+NrpZWDiBFAiolbhhxwkhbMKvO5Yv0J91IMUbcIejXwcwo1h/1gmoWjgIDxUN6iSzUSbn4eU/ZgAX/h1tPov9xmNoLzkDta3L3nO7m1rU/x83+cxMyFkBz6xMEMu3HgQKJ2FZji7qoUyeOko9ST/UxWZMniuzRHGnnY0SAvVqOUtaU0+B2q6Ie3uddW203yxgC87IyzB4BsetAkIIiQpnpNqFz5F7oX7bFhZXCIEyG/k1LytRYL824bqOFS2yX0uuAvauMPr1JHArZ7HiJuvvlptfCmg83Y1moAxumjAKmXUHva5tDfV4LxhA7356u0cSwOQhAaCuju5IqWZknhCoQbx3tLMKPUIIIR1F6mOkQrFRmrMH8NTGx1CpNyVzS9ajBNvwVPMU3DZC1Dy5DXPeGhD6Xu3ueVh6VLxRbV2KY5tvxQdXiO8MVF/3bdOzX09slnZ7anHuS2LHkEyY8LTVnwgkH2vyOTa+fBJXfdKWWBg5E6VF1MIluiwSCzBj81KMy9KbAndskHTXWzC+EVuLXkGOWbdlD9ZeMxcN9v50sZdq8d1iVNn7gv29WLjbtduxsT7Plv398DrcVxqWF7Vlg/DCKvFGzn5p4eaeYbKOC3hn5WhsqwjHRtmE2vAlVt8k8dRJDCt27kt4eXoWfqrLkkLfA432/eNm2IPYOLkf9rvvJ584Rs+9IO/R8pf0hnUvDa17Bjuzb1HtqHvj9AzRfp74/JzaxyOnrNqpQcYujMKZCDFCKs4Gb2BWWb1V4IqjgjvmwYh5OTTUitFRBH3iizxtBV2zYjqW44zYf2XAUdcv7seOA7PxjQ3y7FPi3q9B1BgqO+7DJlI77nruOBHr84tkf5tGif3l6nIjhkX3GxGPG6F927FRNtHjYGL1TRJPHe/4o864bjwY5zZCndjnMxzrY+OpY5y/kxPMcbGPwX1sbvyPNSax7hNNzGOM2X/7fPu1r48tdB7c4xXluhfEdT+p/oWv1+jnPA5u/gXKZg5C69u/xI0rX9eFhJCeSPqSTQiUYMqKIKSyzuFcyy7MPz5cGXfnzgLHKp4XRrIWO9JoM8VRyJCT8UszkG8YdrbRFxJgArWPgaZBZwbhG+XKuMxzfNfeR/+UBemnQEjJWR8hKqILAYvCNQeQs8kSEgr9XVNMWYLD+uMTLtciwSXWwqLLTzDYoi0OQeEjgCyhY37XFCrhcqdAiiTedHmTj9jU+26ONH56jOA4dtGXNcAL9nZc/U+ctgkpfT/oLS+GSNLXuiJ0/+j7AvZ9asZZ2eJK7yP0AEMLKXEfoe55PIsbcZto9lyvU9i5+gguT+m9o5GG0JVntMhxGpXScFqDSbizz0HLOPIz5mXZhCC+bxtPpgEZMqqsdpVQCBliomx+AFsMcWUZhKZxZxp+Rrk23kyB4DEm/frq8z3TUPUzKFW7vkkm3EaqLnMdk18/vIavOe7hcqdA0mMBd1+iCBK9bylqfYWUbQS7j6EUuNt1PqP3393XcNnVTeX++47aN/u8Ow39yVMnYvLRN0LbN5WWYGClcd708TgMfvsYJW5B4RpL6xhafARJgvhde7LMvE8EiVyzikj913U8glmVR7i2o30W5/h7z7nfPZEY8x4tw3fkj27wT/jlzQ+DUoqQnkvHufYJQXPsLfsJt5BKwiALPcHOGoAJ+q3C8TT8JZQfFgbcwOGYq7avR4kQUfKJuPkUfkP5NtSKdsdccb0usZEGovG0/OgRUQ/o3yeFiSXSQOEYOTNTjcMxRJSkaqEhoiSrXsE7LUD28G/CHUYihZktCoAlOFwj/uub66kXmbXYtr1a/F+AmTI2as1Kq9iHwmuvQnbLHmwK7U/29WUx/gWY6I7zkjNjhjhp2HUYzeIPZ99L5dZaVB0Rf8CzRqDQdGks/iYKssQx7Y81Y+dGCLBpbhElWRIWUYKE+p8Aaz/6kn6XDC9hqZ1YYvMBKW3UQwE70cQcnxhFea+E76e9qKwT3+qVbYmxYTOEiJIPGszviX3srhN1RqNkmC4SZEjhZIulXhlo3B3+Tka2MdWQAib3FSf2TFAYk9J4ssTOLGHYyTgGTzxVv95CILlcsRredRiHIRzGVD0OicPMHJKLybpElt3tEifPVR5Eq+jHZcPCT8EtpLFpGHyiMdm/i/rqesIAnSaG5XiFYQCLfq2pCiKzcJROHiCO70pLNPga9r5ESTKRE8BF4r/jx8xj9x6TcpsMHsQa2zAWPFcmxzcX09yJPOSsnWHE7z5aq8bDcq0U56hGtBHIx2TzRyQnF5eJZpz9iIfweDiNXnEMxna8/R/cR7wP1mK3YZTv3hlBRAmiJpkYOcpjxEt27wwb8ZLnylwi4NBB7BPddF5nFlJchY/THsveUWai2kA890lc12yYqP3X98PgoVpwaW6S265zEhdxjb+Ob6t63SgT106F6GPeqKTjKtcfPqH+b/3zboooQno4HSekzr6PSsP1J1pcR+1x2+izqDwtv9gPl8g/3MOGKwPQ+/2X8O5J8Z9blJ1tVsIpjGWIpjWzWdFfMULYgdUHUpXiOlHWoqFJv3UQRNP7+q1GJWWIy0XPYFUxHipaocQahszWySbc8VErMUKmHz/yB1fbNZD5BbL7G/53kqZ6Z72KuXiiKDyb1LBMCuUACqaEBUzOlBHIjlNsOohLgCXY/0So/qI4E82Y8cDnuiC9uO+VyspbQ4Jr7mApgE7hA+PeVPg9cDh5xBBb59Dse42lBmkAt54WA60Mcm38KZEQxBl3X0+dUYb92DklMQ2lxA17QUMQH+u3DjwB6sJgM5IoKKNclLmTQVgJNrIwUPY1CcERNcmE7uvg4u/h0ZFWkRdLiHmTKViB95l9bL9fjRK0BtL4NhIC7N55UIyDU2hGOvaYxDUe8ff/+Glp2I/CnfMv94gYL9GTTCQtAMQ1e/KMfuvC/VBAijz5wKBNM0+RiOM+ieuaNYje/3psEQIMeXmGAIt07mIT1/hHim/Tx550XOWzP0ZpaSnd+ggh3SXZRBQjzn7S3hEUteLga3WoXQg8MT0P01br8nTjyaDnjBNKD2ux7RqdaKIsPEN1w2LrUxTnCpEjBMf4pY5+3bfDiM9KCGv2LDzLtgCFwwNo3vtK4i52l/YXffOKSgcp77/BjkyMEtfHtv4nUSuul4PtJKgi4nnYECbVM03xEcDA3paRZhl2LTgpjSf1RF2/N1GGvZyNkEbi9/DqXfKVfLpo6RpktRFuK5kZAjUbIo1zR1viZbtEJYWVZKK16mAEY1uKuXI1AyLFlLVPl+GsZ60yC93HKd2mrCqJ4Z7Zi9XHKOhZE49YNkmg/8qwl7MRUkzZ9UojjL8ywuux3ZjlCmNdkx5R6Yd0hXP0S7rK6c86kjjuk1Rfs9bspRBPtqiPOsbRiG/81Uy24/j0a447/pAQQpKj+2fti2IUph1tIOevAe4QBvL2Rbo8CT5qlH9oCjDCFiaR0HE82a7Mfluly157oWaopMsbkD9tgyV0hPHSLP6T8Vhmv0Ivd0xTHFTtF4LNdu9Ts0pBVO8Ku93FzfuNhttgBNLQ/xBacI89INeVysOoB76gP+h8nGsWFnJHo2d+LCMpjJqxCmHNBqm1pqThrIzBxMWUFV8RUHEd1rpV8mW5FCaKmg0R/doSasd8udy/4kW7N0XPKBdOIz1ro+WW6JiF0LNWyi3L0y/xcrjUxcdzcgbJdu8zZxETJZ6Zg0T7f+iN0Gdb5OWcN9FHTNkuhZGyIOpZpd5CJFoF/uh4okzpmmj0Se23UxD9Pkn5NasybAqBpt371KxSUpkm4xt/a+ZMuv/59T9CTB4hhCRAlxRSyv3Idg1ULkcZGDrUHeN0PS6X2cTq9jqz+8VFHZrPpvDp+47zcVj8nheMTn7RVStGSAiTMZFjkCSWe1sQ72xqg2HvouHDRvFvf+S0KcV6Clzg3KjYL8u9Tx13y2FUmbFh8aJFUvSxTUP/NQsmnRNmWzb2tdeMZRQ2HBcWXq9LMcFtuCoX2nM4diyNLrDJoEWVfHLuu/aURBrOykj0uiJFR6cUjxQjkyCR3KEcaFEQiqtSaKPeh4Tdy+QshBZTYXESwYWvLag4IMu9z4ozSsYFTmC7JmrD25/k+y/XsFKixm2Qx+FSaLkJumLBXFgzqMKQr4zcTqLEdR0pZDyhNQMT2a3TwOc+iX9f8SJE/ZtiH8q9T8f2JeNeK4hn/NvswheJKffi+bIylD17LybpIkJIz6TrCalhD6p0y7VVdiZAK/lExogbcY/xYzm3RGYyqwsHwyfEXnwg/34MnOJos0OpmItNe8UfDhmD5ErokLO8IrSOlCV6zNghmcmuja59esZm3LV+QmMlbtisZ50McpZbmeRqt9vxVjopheh/6hYQtpJOZA+/DsXDA8a+EmUJKvTYOvsms/bZx5yO/ndCjm7D/rMZGFN8lxFbeD1WyGx/J3elOKV5kqjgdSt+xUIaZOE4DjmL5DYcleDwcwOMin7qbRpryk0rOdc+W1yMnRNtZky7xRmB/DLr21jRl1a9HcJOBOCXZMJm5ET82pUswjbuw+5ytnHrrZs8VqKBzCGjcLUQo1H7GBU7rsbdN5m1zxZX8fZfCgv32FvGvNtFzE5eEU1A27Fg7vMps8bZs32WEDHjxSxx0ybXPju2aUI0cSnQYlDiJ0Tjuk/iumYTRCWdEONemofBbXhIEc/4ywcH28X9NLg4drxkIkwa/1XLNTDwNVx9syoihPRQUp7+PNpaTPY6TI606I70465UzP3ca0NJ/Neo8ezXs9aUO81zLOw00HpT0LHrSGls1z29KfFfIypsUMjMfIfHCDHVN5wu3L3eUkzs9OAhjJTfPn1yfG7iWzdo9MM/BXtEQu357c9Mpe7Gp360Y7SJ2f/Ead91pNyp/v2Ide3rz/UyBda9B31fepcnSAUyBfO00zLdcpZOwS3ddQ6itzCipKhxp1S2UjbrDYkw2BzpuLXLlTuttfqeI424NHzNWBvp5lSHkaIP4TTpuo4n5bc/nr5JHFnpnPtUabKP5or+5uM9R5rn+NJg2+6JYeQx+HzHdkPTmxZmVrQE00aH2vPbn5lK3Y1PfTO9tsKnTsz+S7z7VePriNGx6jjT4EfCfX1423OPv7xW1dpl5nUWKTV4JOIZD6NvkdqNeZ9oYl6zCfbfbs879gLf86jx9C/2+Eu894AgwrHGxzz8ouw7GCTecS0pQno2aV1Hqs3EMgy7DCkUUqTbkTIh1Y1RhpC9ThQRWAbkZTXxGPskIZQogL/YJERjrSXVij/96kY8vEsXEkJ6HN0/2USn4Auo/0S/JYQkzG6Z7asN6750O+JKMkESRwjUqEkmCBFMuRdFynd9B0UUIT0cCql2oroxAxgcxMYiXUCI4jPM/sY54Pj5nI2Khop18IuH8MZ59AhU5rkkM/2RKOgMh5z5JL5Il74ylP3wa2jcWorSu9frckJIT4Wufe2I5cIljGZkYM/P+2HODquc9EQ+w/bXGqAislr64uHZmUgicXuPI96YDkIIIYSQdNO5hRQhhBBCCCGEdELo2kcIIYQQQgghCUIhRQghhBBCCCEJQiFFCCGEEEIIIQlCIUUIIYQQQgghCUIhRQghhBBCCCEJQiFFCCGEEEIIIQmSvvTneg2oDNShfPX92KCLezLdZR2pwjUnMLPvHqy9Zi64Hmhk1DgNAZr3rsATyzrDKlHG2lXHc5C/+DxV2nbG4545t2BML70pOHf4Gcyv3Ku3Ojf22lTHK17E3Yd0oZucy/HrOaOQqTdbq8rx/Z1BvRUnuo2Po+2nMzFyIl4tzsK+jdEW/g1g2fwSjD3zRpdaxNY+50mdx/ai014vXfOcd1pCvy312PLYG3hOF6cVe59ch4+QNsMZKV+ux4pF67Fuwni9nQIWtQgRBSGg8pA/nYvxxkKKkPs2b0CO3iap4DxMmy6vvxxUD25A7arPdHlbsEWUfGAyD3P0q6uIqLiQgmJOPt7b+CJmPSZf5XhvSAl+PTWgK/RgcnJxWSCIfZU0qFPN5GH5ytDd0hVEdxqQYvfV+Zdjst4mhJDOSPqE1KnHMF8ZVZyNkvxsdDNwPJC8gCregDt2CHHhfq1ZqSv0QDxjcgAzivVnnYCqhYPwUNGgTjIbZXIeXv5jBnDh37FAlyRNv/EY2kvOQG3rsvf58dNyRiKIM6esbQfyya1nViaI5VsPCrU/Cct6uNK/aYJ8ql2L3V1savq5MksUd9rZKOTi6sIAWmvqOVvQ3Wl4F99XD2jaaTZK0hDEx/L/M0FeX4S0Ec5ItQufI/dC/baN1JZZxrl6rdyD5iGzhYCoQKH+vMewuAL3LbkK2LsiPB5FTwK39sCxSJasv1tufimg8XQ3moEyUEKh7qDXta2hHu8FA+jdT2/3SHIxUrrH0dhPPWJgBwvB/t7Rzir0CCGESFIfIxWKjdKcPYCnNj6GSr0pmVuyHiXYhqeap+C2EaLmyW2Y89aA0Pdqd8/D0qPijWrrUhzbfCs+uEJ8Z6D6um+bnv16YrO0C1KLc18SO55jwoSnrf5EIPm4j8+x8eWTuOqTNsSlyNkXIRyahZB6YZUuk0hBUVpgxOGsxA07ZiNbbn94nfrMRoowx3d1m9l6E6jG1qJiVOktm5zlB7BgvMuNqSUcI2V93uj6rtEP14yMu71Q3z39cRHa5wLM2LwU4xBnnJYeoxA1L+OhhUv0hiSOMdNteMZQYMVChcfOjo2y8ftOiJh9k1j9y9dbkc5TIljxel/Cy9Oz8FNdlhT6vmu071kX1j11StyL23CJGUflcw977j/5u1D+kvU+9FuwC9nXzBBjcQ77zd8Fv9+ENpOLR+8ahTMRYoRUnA3CcSKTp5bgzkLjPqlzxZAYMS+HhloxOgq/OAUVn5SrNyTu+AkjTqUyoGMsLLxxP7puqGtB/7inUKyGSYS6Aut4WyLEdcixmyjEgE2EdtzH6R4z3c5F8piaRjnqhmLadBt+MW5WLFR47OzYKJuocXEx+yZxH6d/nIt7v9FjsyLFIFn7gujzlr7mtebap+q3NYt6coK5X5++ec55fP1XGOPhfy0Y5y7e69H3GjRIMqYn5r2piH2fhI/zIAaadUP90m3Ap5/62GCPh/tYox5bfPew+zjbGgM479EyfCe/FX/61Y14eJcuJIQ4SP2MVMilbx7KT+oyP7Km4ObsXZizuw4YOAXriqWR9Az2nwXyB1+vK0kyMOYaS3hZ8RfbUNtrNG4rCdeRBthGbczZMRrlJ/NQsuhp3ON+Yjxwhqgr96Xriv1njLgFK4YBlZW3hvchqkrhZLcnX50y7uP9RjTrtybZ45cKAx3C4LZma9buDSK/NOz6JsWMnNGRwsye0dlaU4CZLvc4KQoskWTW0x8mjBRAsj3gnZXh9jbhOmufFXPxhLkPKZz0tnq5RVNWf1ys30ZCHWdpf2N/L6NWzuL5uERGHbNV+9Q1kT/G/b2VGKESSrwSEja2S5+aMdRlfqg4MC3OQse4fyxuWKwrSJT7oiXy7DrWeerImTcrhnCjfOkHEvmT9bZ6PYi5VkWNvBdvwdA6+35y38PyIcd6Lbjs+03UkffqnLswQdeSDC2egmb1O5Eh3j9t/S7I35Bel2JCqmeH5KxAyG1NGoXfw6v6JeOjLJdAC8uAgTBu7DiqF/H46VF4dKSuYDC4WBilUoBpd57jgVFYaMZbSQNraF2oHRmTtS+Yi6uFUXqTrhIiTxjNZvxWRT0yC0uM/cp+CwNMGuW6vcfFhTp2TonTLVEa38KokyIvtF/RVmQCmDxE9LmuzmN0h8SFNFbttoTh2XumM95Fjpll8Nt1xFjI4yk1BaSFPKZXxX24Rbf3eFVQjKM+hkN1OC7+GzzU/T09Y1Z1MNRH26Vv1saDaNVlfkjhYIuz0DEcy3OeT3metFCw62yp856nsJgLt7W9TxS3UBV3JkTeMf/xl9fPnUNq8bhqS18bnliigDjH5nXmrafG33XOrf6b14Y04EU7vYWRr+tYbemPE0WNmRYaofZeF3/Edb9Cbm6yL2JbiotQPfFKWkTFujfjvE8U1hhdVmOfd+sevlNdt0HsrhGDE8jHZNf3VMybEKrbbWHjPtZIxBozjbzOLJGn64hrHOK+ST6Wcx5Gqqd3mfjq+EmqhBDipeNc+3oBx97ST5ulKVb3PB6xYxSyBjiMJ8eTabyE8sPnhCAaro2161EyIkOJHvOJ+IZyKYaECLvCFGUSOVN1a3hfR48oA7l/nxQmlmhPLu2vZnCaP3TF4SgREp61aNh1WBj1AfS9VG6tRPH4gJoJMmdKqhYKkSHqjLtWiwVhxE8UIqG2rG2zHyEWX4dxWUEhakZjW4UuEzQsK3Zsx2Yttm2vFv9LQREtTsw+zieN9pfghTLx3SEzvPFUUcdsCQ5LcTdkrFPALB6LfPHHs3pXgnFQobF1zVatKnZsF157FbJFvzYZs3rWeSrAxOXJRzit/ehL+l0yvISltuDZfAAyD6WcRbYfOMzxiYuUn4cfRLyEd+VDFvs+HzYDY3rJGSbze2IfSiCNRskwXSTu54yWXaF7N6OXEF6h34UMZPfVb1PE5L5ZOoZAGpO2wSyMJvHZx01OS3JwH2GsuGKFdu8s95/tcDwNr5c6AJlDcsNGkTSwHE/Lg1j+ptwWwsAjzKSBbjyZ1qLior6W8TR56igMlnWM9nbvfF0YwsLQnmALD3F8V4r3ol9xZ4eLlmQiJ4CLxH9OIVCPux1GsDBGZQxQ1evGU3VRR4q3vFFe41UZ1OHZjt1Ha4UQsl0rrTFEXp5TaCbrHicM12lCgHlmqw45x8eKDzuINcYT/+fK5PWRi2kh4zWAgb3Ffy7B+VyZz+ycJmaSCcfMhb42fAx3ORsRvs5sA7+3nj2zx995jVr9N66NkaMwVp7nrYkLGD/sMXPOvIhjKEtN+37Ec2/Gd5+EkddGeKZHX3+9A+oetq/Ny4aZAibag4foxDVmoWvWmBEUvyNrqoLILBzlfQATF+txSBpH4mj+vFcIN0KILx0npM6+j0ojuDtajEXtcdtYsqg8Lb/YD5fIP6LDhiuXJ+/3XcaazdlmJZzCWEZhWmebiv6KEcImqz6QqnTTGjlbId3Cal72uo411Ttnb/Rsj6qnjH8f8WWLhb65KltezpQRQqRV47C77SQpHCP62nIYVQmJpggIwfFQ0Qq80yLeqzgxmWzCNUsTSeSoWTxbIBlEGzNB1SY5w1SAEcaMUbLHFN/Y6tmuI39wuS/WoEkcd3Z/w38wUaq/KEamGTMe+FwXpJNzaG7SbzUbyoXg0q54cwdLn6FT+MD4PVD4PORw/BZ47uXUIg2w1tNioLVoUAa5EgnexBRqdko+lY4jy1ikmYaonDrjP4MSPKOEUxghRh6zjbxIxlsQJ8+I/7ThF2sGxI+oSSZ0ILucOfGbkVNEEjnqOH1iz9xB8fppvm0MP1cpZ5icQvMmOUOVRCIMe+bgUCQho4gUH9Yiu4rMPuIHX6HHOsJMmxctcKLEnXk+izBmbrEvxUMooYEaf28dtyhIdgz96ZiYutj3Zpz3SQjv/a9mOm2hI67N7e6HI0ncYxbxjVmka3a3/EOBLAz0zKrFx/q7S1FaSrc+QqLRTZJNeA21EL2ylWjoEIpacfC1OtQuBJ6Ynodpq3V5G8gvtTPUiZftmueJqYmHIJre12/dxOEylzgLkCNnDNxipU2sxbZrtEucnGXSM1S2a1zOgP7i3wDGLTHGTI9bxDisaFT8AdXi71LYvc8SOrXbE19P6+L+4q9qSyM+0tu+FOeqfiqXQ7P/O5ZinG2nJcuOTIwS1+S2/idRK67Rg+0iqKIQRRRlZEuh1d5YMwnS0LSMlBaclCe5X+/wewNlpMrZFGmw2S6AcRnO/ijXMsOVULpgRYwbiUiWtAEtI95sS7w88S4JYRl3x9+MNIsgxZzl/iXFlLVPp4uUmu0TYyzdzxx9S+o4BSr5h9hfyL0vVh8jY81guAWqCz3rplwOzf5LFyw55gbSyJauiOZ5iOhupQSO4f6VViJkqpSEZq5SiB4zr3hLL7HvzdTfJ89JwWTMEsacZYxEnGOmrlkpwl39d8T4EULSQvfP2pfmp9ZR0cZq/hrgDmGsbl+ky9uAI57GmC1JKbEM/KRYiwYpdvVsV8pRM1TS5U0InWnW+lMNHzaKf6UroXPMkh+7tag6Iv6g2e59asYruRm7jxpFO7EEq/jjL2OspAumX/+TE9AaLfLHHpDrSuVh1ANf0B90Ps41y0fkHYw2rC0BEEbNWNkcCsdXqJiHuGchnFgxNTKYXMc6yFeMmB5/rNkR5Upot2O+HK5C8WO7QUWfsQli+Tq9H9V3KZrCYsp6Uu46RuPlcKmLC+26Zrv3aUESvY/+WDMYMYSEnnVT7nM+/XcnMrBmg+RnlsCUAswrpmwXy8Tdv1JOLCGZDHrMbLfTdiXqvZmG+0S52NrufdaMV1IzcXGOmRWv6YzDC78iu5ESQtpOlxRSyhXIdg1U7j8ZGDrUHeN0PS4fKIywur1JZPKqQ/PZFD4J33E+Dgu7oWB0KhZATQEqcUIABVPcMTZOVzJLiPRHjhlLpGN7YqLdB00s8TAChe7YJB/iEhqxiOTC1wYalsnYO8u9T7n11exLKn7MGlunm6CXFLjwRWDBpHNiZLKxLwWzpG1lw3Fh2fgli1Buu+dw7FgnS/KijUz5FDjSk2I5C6EMNo9bUCysmRT4pVxPmEiuSS58jTVt1HuI5AYVBemGp8VUyP0skgtfG9i986A4L2L8RmqXtCQFiSXyrHYi43bhixcpMLWYcn83Sfev+FwRXTgMfRPr+rONfl9RqeKm9PtoKDFrosfMdHmLQlyCViITpcjZlzgX7/Xem3HeJwkhRI2MT5LHaroGJ0x8Y9ZWF75ITFryPMrKyvD8EiabICQSXU9IDXtQpTuurbJTHVvJJzJG3OjI0De3RKZIrsPOpGKf9uID+bs0cIo361+3YAkq9gaRPf52V4Y+mWK7Gm/YiQ204AolnxBC64YlV4nfducfBI8ocKf01lgiRLraOWOZcpZXeBI/2G36J1QQ/dhszTqZ5CyX59xwtauYizdqpDtkKhfqteLI8sdUCNEZxDubkpwVWvWKiu/y9E2MXThrn06qMWQ27mhDYolOz9FtKgvfmGIzQ9/1WDFZWHQnw8klOhRl0FnxKxbS4LSNVysZhTOgWwsiYQUl9hRaPx03EyfojHrJuLyp2KFQRrFIiOMQhqUZlH5TqcwSFvTOgtnJB/ySTNiI/rpnWyxj33Al03Ekocx7KcE6jsFDJ4qxj9HHaBw6qN0SXX0TxxWO+dJJHvK8x+okF4+6DXwtmByzmQI7qUBC7l85l2OhShoRzkwYH9rQdy0qfVOpTOUedi20EicYyTNkBrniLLQ6/wR4xae8Zj1uZXrMPNejuH9KvSLIbjOcuMMfJZolPgk34r0347tPEkONnejT1RPEtZ/0g5E4x0xds3LW1yezZ9JMwuSvWr86mV+/GvPUO0KIm5SvIxVtLSZ7HSa1jlSWXvdFCKONwmCy1o7Saz1Bf9bPvTaUxFo/xm1cefbrWVfG1bYujYyub697I+iU60h50GsO+a5H5MSzPlRonSYDvV8rpsjKuFc1RXxv+GFHXWdbcp2jV5CzeSkKjrjXkdJrQBkPY8NrYDmJ2j9Hv2z811fytCNxHGv8Y6awhaLfeNlt6S0n3v6515zyXUfK91i92Q8ToX3XkYLvPeskxv3m2I/rXnb8hljVU4F0sZt2Wq7DkmWl8xZjvm/jQfQWxop8Su7M6qZTfustiWcNF2mE6nTTpuuacuWT6aVDLkSutmTGrq3AQsd3pYGoUyLHdD3y9k3i7L9uT98mqu9Hc0V/ZWr1sGuQt6/+uNezsdyOvOsTeesJHBnKdN8dmQ6jYBvwnixnEv9xsPD2z3Kx1BsSvz7oc+oUufI6MdypfOp4MgLqvnnXXDKJ5zwK9Bh49+HFM/5+4+YQRdY4QY6NsYaaxNmWrGettSTThPvdB+HxcI2XQUL98z3nEu+4ee5NRezxtfojU6nH4y4Xvqf8zoXvta+J9NsRa8w816wk3nvHj5t/gbKZg8QbriVFSCRSvyBvKolhpHUdUiCkCEkhKRNS3Rhl6PQ5mLwR0u2wDE25IGwsA50kiBIDcp0sr9gME4/YIiSVzMMvyr6DQcE/4Zc3PwwmQSfES/dPNtEp+ALqP9FvCSFdAuWa47emUQ8lviQTJHECnSfJBCEGk5YUQc5HndhNEUVIJCik2onqxgxgcBAbi3QBIR3GZ5j9jXPA8fM5GxUNFcfjjTuQM1UR10fqxjjWISIpRGc45Mwn6SxIl76yMvzz1xvx29JS/PhZXU4I8UDXvnbEcqcSBiwysOfn/TBnh1VOSPvwGba/1gCVBqSlLx6enQlvZBpx44k7iBiLQUg6oWsfIYR0Njq3kCKEEEIIIYSQTghd+wghhBBCCCEkQSikCCGEEEIIISRBKKQIIYQQQgghJEEopAghhBBCCCEkQSikCCGEEEIIISRBKKQIIYQQQgghJEEopAghhBBCCCEkQSikCCGEEEIIISRBKKQIIYQQQgghJEEopAghhBBCCCEkQSikCCGEEEIIISRBKKQIIYQQQgghJEEopAghhBBCCCEkQSikCCGEEEIIISRBKKQIIYQQQgghJEEopAghhBBCCCEkQSikCCGEEEIIISRBKKQIIYQQQgghJEEopAghhBBCCCEkQSikCCGEEEIIISRBKKQIIYQQQgghJEEopAghhBBCCCEkQSikCCGEEEIIISRBKKQIIYQQQgghJEEopAghhBBCCCEkQf4hLy/vv/T7NvPfsi7R7wghhBBCCCGk+8IZKUIIIYQQQghJEAopQgghhBBCCEkQCilCCCGEEEIISZD0xUiNvwXPLRiOTL3Zuv953PSrd/QWaU/m3/NnLB16IVbM74t1uszJtXjqW99GgXzb+Dt8+/AmVUoIIYQQQgjxx5iRykSmrXrayvX3YNOCQTi29oe49n/K1/M4VnAjnvvhOF2BJMu3li5AxebZWKS3Y3LjSSwd+wmqd0cSUd/A8iuFiJIC6vfzKaIIIYQQQgiJg5CQ+uoN/wdPr/4F5g3VBckiZ6L+8UJUrf0pVuzVZXgHK148Aoy5FkvH6yLNosf+WQgD47V+Or6lPyNtZFIT9pf8J4L7vo5/fF6Xucm8EsMy/4K3T1BAEUIIIYQQEi8hIfXnF9bitfr++M79bRNTN04fjsz6vYaI0ux9B8c+/TKy8/Q2rsDTQjh9N/8j/OaaX6LYfv1f4NqluboOaQsr/+kYAmeH4slH/rsu8SEjCxfot4QQQgghhJD4cMVIfRVz/uVelF5yEmXLl2LjMV0cJ/8t6zY88n/Ho9kxGxXmxv/zK/wTfo9r//f/p2aiLBH1MlbrzyNh1dUbgk/fKcOsFfXWxs2zUfFPwG/+tQXTf3SZEAWyzT34yvpSXNFLfF67B8V3vSXeSOF2FfDvv8Smixfgf42z/Rj9+mDVVTFDila89a9rce8uvSlQfYJoe0sfvKr2a1Et2r/1Wb2hke544f25+i9Qn3+1Hv8y7zSuNfYbrufujxufY5CzUbcfQ2P5VZFnoyT97sfvRvbD22/egWWtuowQQgghhBASFVfWvj9j4/96GGUfDETpshWYk+jM1PVDMejTE9itRNT/EKLqV9ikXzI+6vgnf1HVpDAYI4VR7YkYIkrPWl34Hv7FnrH61/eAcaWoeOwKXUcSwPT/mYXXhICqxsWYvn46hv+5DP/yjlAG+YMc8UQF//TPlmhR7ZXhrbMX47umO6EUZkK05AgRY8+S/cs7oic/+mc8fbOuY5N/FSp+JPdr12sV7S/Aw1P05wIpuP7XuGB41k33/1X3rFuvy/C/No/G6X/V9f79I1wg6ln7fAu3GvuwhJOup15eMTp//CdiVL6CP0UTUYQQQgghhJCk8El/boipnz6A7yQgpib2vxA404A3MA5Lf/Ut9N//PK79n7/HCfFZY6ORse/mQWp2pfqQnCmKzLeWjhb1hGiY9xp+r8uw6zU8oQTSaEOwZIpu7wmJiQtQjydCMz5CThjCBmeFKAu1V497//CREDG5KFJ1cvHwNy9Ws1jmjNHvV7wmBJcQYd90x2/JmaqwiPl9ZT0+FX3pM1gXTJmO6UIwVv+7IXR0/y8Yd5UnYUT1vxuzXs+eEKIQyLk4GTfH/4epQz8B6rKwRJcQQgghhBBCUoePkJJYYmr9yVzM++lPMEmXxmLwhV9G6ycngfHjMPSCv+DY20I8jc9Bf/wFzXW6UtwIcfNVIZDOtuB9XWLjESxC0BwRZSE+OR0WXi4+/fO7zs+Ot4TbmnI5hvcSdZqEuHJQjx1/FuKtVxYu1SWKs6LcFj4+fGtCrnI13O9y9fv9R0Hxr0vg+dRLnr+inziOYNP5ejsyCy/6ihi+auyIw63vwtGTMO+af8S3B+kCyaBxquya0QFdIOh9Ga4RZfMmGOnwCSGEEEII6UZEEFIG52UKIRQfA3tbM08Tvz5ISJNPcFK6+OUFwu+TIYooSm62JjYNHxmizIFb/ETn0r4yLupifNfMSihf/3SxVaEDWThiHX73rXUY/fF8fPvNf8VOXU4IIYQQQgiJTQQh9VV85//cg3lfPYPfPvgAynRpQnwaxHHxn3L3M1AzVmoWCCgYacY5JU5kwZMugvjPKDNQbt5v8otnsl/O5BXtzZrDQkD9fj4OXCQE1ZU/wlRdHo1PDryO9Zv/A7+Tvpo2J95RZZsPyFk2zZn3sFmUra/8QBcQQgghhBDSvfARUoaIuv/HWJ9g5j5ftKiSrn8qVmrXuzhyVhS4EkE40e50PnUiucwlg6Mt3S+vwNNuhjGTYzjxd+FrG/G1eT5OieMI9P2r3o7Mmo//E8gsQFE4qSAhhBBCCCEkBi4hlUIRdUEAg/E/8J0xX9YF/wMjck/i8EvyfT3u/b/v4VPl9jbbKZSmTMfTOqPd71ccUFn4vmtm6BOf3zEuE5++E04ukTSetnTyifyrHBn6vrV0Oq7o1Yq3tkRPjuHh2T1462wmrviR6xjbgo7puuLqaLN5/x07j10I5LVgpS4hhBBCCCGEpA5DSLVdRJ08A/TvPw5v/GovTmAg/kmtKfV7nLhgOH70f78F/McjCGXj3vUaZtnpx834of8JbAplzJNpv/egWqYZtz//0WVo+PdfOrLqJYJMKR61rWdfVqnHZZp0u56VvjwZVzwhzOb9Er+p9YmTcqRvTwA5bqJ/KvV6qD2vUFu390LpiIiv3agLCCGEEEIIISkjtCBv/5v/FU9/+/9h2/L/jXWH40jh5sPk+36NH124Vy242/mwFrWV60MlK8K6Gisf2YPr8r6CV2YPjJwGnQvyEkIIIYQQkjChGanGZ5fiB7clL6Ikb7x9Aq2547F0vC4gHcqSfx+qZqWue0QGpEXgnJX4gxBCCCGEEBI/hmtfK5o/aeOUxN5n8Pv6L6NwwT0wPcom/vBneOR6vUHaj9f7Ykz5V4C8Q9h/z//ThS5aP0QDvoyvD7pWFxBCCCGEEEJi4ZO1r208/79/iH+vl/FRv8Im/fpRwQn8ViWZIO3O8wOxYt+FCAxtwXxd5GQTbvv971Dd/9tqXanfjaCgIoQQQgghJBahGKlU8N+yLtHvCCGEEEIIIaT7kvIZKUIIIYQQQgjp7lBIEUIIIYQQQkiCpNS1jxBCCCGEEEJ6ApyRIoQQQgghhJAEoZAihBBCCCGEkAShkCKEEEIIIYSQBEmDkJqPp2dtQ4V8XeG/cpHF59j4ch0OPvC53iaEEEIIIYSQrkEak01IQVWKgg/KUPzWOl3mYlELamc1o/rVPExbrcsIIYQQQgghpJOTRte+ddh0tBUIfAXf0iUeVmfh4T9moGDWKWws0mWEEEIIIYQQ0slJf4xUrz64VL/1Y+0DfbCn5RyuWtiKBbqMEEIIIYQQQjoznSDZxBcw5/fZQFYTZi/SRYQQQgghhBDSiekcWftWn49q8V/B6M+sbUIIIYQQQgjpxKRVSP0+2KDfxeI87Dsu/rvw73TvI4QQQgghhHR60jsjdfY0PsUQTL9sqi6ITHVjBpD1dxTobUIIIYQQQgjprKRZSN2PWa/OwGuBe9S6Uq/GIagIIYQQQgghpLOTXiHV60G8KgTUmJMzUCwE1az3duoPCCGEEEIIIaTrklYh9a1LhuMC1GD/h7ogCgX9zwEtX1RJJwghhBBCCCGkM5PeGam4+QxjB4v/Pvki1loFhBBCCCGEENJp6RxCatFfUYAM7Ck7TxcQQgghhBBCSOelEwipz7HxW83A8QDm7NBFhBBCCCGEENKJ6XAhteCB07gqi7NRhBBCCCGEkK5DGoXUfFw7LBP4YD9W6xIPi1pw7zfOofrVfpyNIoQQQgghhHQZ0iCk5uPpWdtQMasUBWffxr+8tU6Xu7Fc+oJ/HIhpEZUWIYQQQgghhHQ+/iEvL++/9HtCCCGEEEIIIXHQObL2EUIIIYQQQkgXgkKKEEIIIYQQQhKEQooQQgghhBBCEoRCihBCCCGEEEIShEKKEEIIIYQQQhKEQooQQgghhBBCEoTpzzsDAx7E5T/4Oi7Qm2h+G/ufuB+f6c1ux7w7MbokHwjuw9H5z+Nvuph0dz7D9tcaUCDfHs9B/uLzVCkhhBBCSFeEM1K+XI8Vi9Zj3YTxejvNfHg/3n1oBt4Ur6PHdRmJg3/EJa/8Ky69Z6jeJqniS/c8hNGv3BkW923mc2x8WYgoKaCm51FEEUIIIaTLQyFFUoAlaEY/8o96OwbrH8eB636EA+02G6X7Z7wovtqZor9iRFYG9pRRQBFCCCGke0AhRbo30o3wlRL0rS23xJt+1UGUTdZ1SPop+DsC+i0hhBBCSHcgTTFS43HPnFswppfexDns33wrHjllbU2Y8DRuG5EBnNyGOeUvWYUCT3m/u7DumktxTHz3gyvWo2Sgrnj2AJ7a+Bgq9aZC1R0N8W1NHcpX348NeivUpxbR9lsDHHXPHX4G8yv3hvcfAbte4sxH/n2luEhvATU4+tDtCOotk8DcbRjWJ3KMlPp8sN6QHC/DmxvW6Y0w7nqfvvUI3v3dTr2lccdmRelXdOSMjxYr9/yHLvPBjo2yiVL/gkf+FUOMqufeeQrvP3JMvZduZ8PGRTbLw3Xj7Jcm2j6tvosRevITXHz7WHHt1KLmunKcv+42XCK7EtqHtU+U/winLjL7Kes/jk/1loXun96CGPkPnrwPTbv1pkD1CaLtrTm4VO3Xokm0/8F6vaFxj4uj/wL1+dD3cXR+A/oZ+/WMl1Xsg98xxMmiFtTO+hv2/Lwf5uzQZYQQQgghXZg0CCkZXzQD+YZIsgQKHGJqbokURobAsoWQKa5McRQqj9S+MG13z8PSo6rI275D3Bnlwx7Exsl5ju/a++iftHAy+NqTuLJkiEvwCGE1V5ilkQRQBCF13rd/g4tPfRe1f9IFthByiSlLRDlFUWDub/Dlnd/Fxx/qAv1dmAJLlk39T7zr06/oJCZYgKHoKwXIaf/6lqBxGu0XPPIQzt/qFBn2fjNcgiGEFm5+osOJ7r+Z/GLyjZZwsY9JtdUH54Kn8dH8d5El9xsUo3vsBSHZbxAC5rTuryFGQu3p44XRvu6bn0A0+xsWd+HxsOrBIbo8Y6b7D5/2HYItwhhZde1jSgEUUoQQQgjpZqTctW/ChCnIl7NBthgSVFY+j/1nMzDmiut1CbCh/BmrrPguTJAip1gIJjnTZHwvhCmu8BLKD58DBg6H0CKC61EiRJScLQoLIdn+NmF6OvdpIWeqwoIOR4+IekD/PulILDEVF01wiyjJOl8RFYvPfmeIKMmH96NeJqcYPMZwm5qKL/cR/x3f75hZCm4wRJQkpw8uQCuaDhmzVDLpRRL9Si1Dcb7sf+27DgP+03vcIio2F1wuFUgtWqKKKCkaJgnhI0SIGbO1+3nUvSNGMF98FnIBFKN8rDzUrwy8j7qQgOuD801XQUdGwmNoel1cZYFLEVB1hLCaJPomRJopAP/2yAv4QOyy76Qb8SVdZiGFT1jQ/O2P7+Oc6Mt5g3SBEE0Xi+aayg3Ro/ufMa7EkzCiqdwYy/Xvokn8l3ERY8YIIYQQQhIhxUJqPCbkZQjhc8RwqZPsxQct4r+sAUI02ezFIxUHcK7XaNy2SM4UncP+Cpe7nqb2uFNcVZ5WU1i4pJ/4b9hwIdyAxtPumaOX8O5J8Z9jn4KzzUo4hXkJS1fPa/vMkx8DpqJvNvDx0fSJk8+aWvU7m534y2nx3+BSXDl3vlXkR8NpYXRnIv8Hv8FFA3RZp+AY/ir7n18Sf/KKNjEUgaFCIAU/CYsojUewCEFz5o/GzNfpBs93bM4d+6PzsxOfhNua/A30Frs81+S8EuWxB48JJRW40Cmkgu8jGEVEfukblypXQ7dg/NvHciBdAi8OYZkOfja6GWjJwE7ORhFCCCGkm5BiIZWHbOk6N3AGNi5a73iF4ptMTj2GZ+XskuDc4efDs0QJcw7N8rG6H72yldDqEPSsz18a9HabkbFW23Cl8RpzRab+LExwwwzsf0sILCmmdL3Lvz1Vf6pRKdfL8LESU3Z7TxozWx3Hp/f8CEfVbJAQU+2VZS+KKErXbM25jw1R5sAtfqLzpb7yrOVjiJGVUL3MeLQO4mer6lD7Wh3GHshD/uxMrNXlhBBCCCFdnRQLqTo0nxX/SVe81fO8L3eCiGEPWrFNJ+uQMeIWrBimy1OJZwaqHdGzPl/O0dttQieskIv16jWn5EsJJh+kG6BV5xHUNgMXXHGPV0xJF0O7rfIasT0EwzqJmPrbI/fpDHtPKXe3jHG3JSym/tYkvigERtY8aztZIguedHEaf03AjdE6ThkfFc5KGH4l7hKZSn66WAio6XnYN1oIqpdbsUCXE0IIIYR0dVIspPxc+CJxPVZMzlOia2n5NuwXAix/8oM67ik6cweL7519H5VyBkvFOGVg6FB3jNP1uHygMILr9vq6C0bHEoQZ2WI/beHD/4SUORcNi+JiFy9fG6Oy/n1c6Z/NLzI78fETWkz1HaLLfPjT7VpM5eDLnczVr2m+FlN93TMstfjMt9zCcs0D+l4ezUVQu9PlX+6JJYrkMpcMjrZ2/xFnxC69/dJuhq74sFj4u/C1jVS3+dMD2eJ34RymFukCQgghhJAuToqFFLDhLR33VOJO8mAiM+jNMJJS6Hgp5KEk6vcEwx5UboK1VfbslpV8ImPEjbhHxkxp5pZY7e9MKvZJC8KBUxxtJs46fKRd7JyzQTJrX4LiSs1uOUWZzM7nde0Tbd/xIBzLnupYrU+bpFCykBkA87+mNzSBYVJoNeAvZlKKducfcck6V7KFKDFFVjyVmRDCIJQwwhtv9aV77gx952+PvI4m6Rpn1pl8I/LGBXDunXByiaTxtKWTT4h+XWLMln3pnhtwSSCID7bGk/nQYH25EJoBXHL7nR4xmDQ6puuSme0Rp0YIIYQQ0vVI0zpSOkW53rKxU4xbqcmFYexKL+6/jpS5NpTEuSaVjWcNKM9aUzr9OXzWoPLFTJdukfQ6UnYK9BDO1ORS1PjFOkkc6z+52pGfVeM28d0G5/pPnvWhgI/LZzgz/gk8a1JJt8EI61dFx0j57cZIie5ep8nEkX7bTj2uNyWRU5jr1OKGP6J7/SS/9jx1fI7BsU+d/txKG67r6mNzpiP3Hwvf/uvU42GcKd8lasz6mBkABfp4zrna9B1fY/z9U5pb/fVNIR9H/+KG6c8JIYQQ0s1Ik5BKEVpINTrWeCKkMxNFmPRkKKQIIYQQ0s1IuWsfIYR4qP6iY10zQgghhJCuDoUUIST97PgiGnEOV5Um7jhKCCGEENIZoZAihLQD52Ha9BxUD25Q60rVrqKgIoQQQkjXpnPHSBFCCCGEEEJIJ4QzUoQQQgghhBCSICkVUrNmzULfvr5JsAkhhBBCCCGk28AZKUIIIYQQQghJEAopQgghhBBCCEkQCilCCCGEEEIISRAKKUIIIYQQQghJEAopQgghhBBCCEkQCilCCCGEEEIISRAKKUIIIYQQQghJEAopQgghhBBCCEkQCilCCCGEEEIISRAKKUIIIYQQQghJEAopQgghhBBCCEkQCilCCCGEEEIISRAKKUIIIYQQQghJEAopQgghhBBCCEkQCilCCCGEEEIISRAKKUIIIYQQQghJEAopQgghhBBCCEkQCilCCCGEEEIISRAKKUIIIYQQQghJEAopQgghhBBCCEkQCilCCCGEEEIISRAKKUIIIYQQQghJEAopQgghhBBCCEkQCilCCCGEEEIISRAKKUIIIYQQQghJEAopQgghhBBCCEkQCilCCCGEEEIISZB/yMvL+y/9vs3MmjULr7/+OpqamnRJN6F4A+5YchWaywbhhVW6jCTP4tuxozQPaKnCims2Yocu7jgKsGLzIlyZpTdxFm+ufBBLK/Rml2Qo+q67DZecLseBe/5Dl3UQAzbi/y28Cp/rTSCI/75mFL7wod5U/Ax/f2A2/q63JF/893x8cZ/eaBPz8fSsUuDNGbjVsU/g/3dDLf42RG9Ial7G+S/8VG9Y/NeMg/jsyoDeEjTvwXm/nIN/0JuKXg/i1WnDcWT7d3HvWV1GCCGEkG4NZ6Q6DStxw44TuGP5Ar1N2o9qLL3mJygqEq+yOl1G4uGCR/4Vo9fdiC/p7WhIYXT+A/LlFlGSn+KL6jPxWrMHX9ClbWcqHp5WioKzb2OTZ58aKYzsfbtElOQfto3S/c7Hl2p0oZuz9+O1DzJxxbQnsUgXEUIIIaR7QyFF2p9VT1qipVPMRqWYyTfi0leEuHC/HvlHXYG0J4uuuAdX9KrBb7bfj9/rsnSx+q1H8NbZIfjutAfxLV1GCCGEkO4LhRQhbWDRFdtQccV8vRWmqfxHOHCdfj25D+fyS4SguhMX6M9JMkgXvW149bKpejsGvR7E9EuA6jdvx2pdlF524t4338anvb6OO+LtIyGEEEK6LJ07RkrFJo1A9crRaLj2BGbasQwte7D2mrlo0Js5yw9gwfhGbC16BTmbl2KcHeviqiex6hrxDjUv46GFS/SGjXSzm418vWVTa8RIFa4R/enraj9iLJW7vWrR12JUiXee/rho3rsCTyxbq7fi7X9HUITVO6ajQG/5xhnZsVE2Na+haKHfnJQ7ZinMp3tX4+pl1Shafj+WDq/Gims+xnXGfu3PTW5Z83Nc64iDibRfgepjnzhipKTLmJztkIa6EXsjZ6RuH4tzQkh9sF6XSebdidEl+Tj3zlN4/5FjersPPnjyPvx15r9iSOjiqEXNdY/jU72l0G1m6E3fOgLpZhduR1MbjpH60j0PYdi4067v/iMueaUEGXa/QugYq9ClFlR9bdot3nr64yK4D0fnP4+/6U07Ruof4o15ilL/W5f9Bv9rWCbwQRmK31qnS/2RIve7gbfxL1Fmo1SM1IU+MU8RiKe+2u8lNfjNq5EE3CTc++w/42uBE/ht6Y9hXiaEEEII6Tp0gRmpAMYtEaIFQjAUDRKvl1GbdRUWrFmpP7cpwMwdS1FwZEWEegswY/MJLbjk57rOkNm4b/MG5OhaSgwJ0ZMtBIxVR7xW7kGz/jhhFlfgPimipOAJ7XcfRuh+NSwbrctEX8S2FE7heoN8RBTwzsrw52sbZ+CGxbpCh6FFlBQo0mVPvSpx4a1zxCcGtktf0Wq82aLLPGgRJWTmCt3Wir1W9H512U+cIimrEEt3TMAnK/U+y+pwwfhFWG2MhxRchfv15/K1sgqfDpmOHWscPUsQOTMiRVQr3truTWDgy4lPcE6/DRPAJbcL8QMhdtTs1VP4IJiPIUbMkRQ/o7Uws2e4ampFnVceQt/JupISPaKdPkLA2LNgqi39caIo90QhomC29wIwU/dr9/N4X5fXyItWCqdQPfEyRVSK+f1730XxmzXAJaWoiOpCNx9jLhHC+uTOtLv0uVl9UgZSDcGYAda2hymT8VUlUAdh5M2qhBBCCCFdkK7h2ueYdVmCir3CQhwyFoW6xEbOGIWFxxIclvZM31xLJC2+DuOygkKEWDNBFkvwQpkwzIXgKtbGd+G1VyG7ZQ82GQImeYR4m1bgM2sk9pvELNLF/YX11XIYVcZMiRRiiWcS/AF+VV6O8kivJ36g68VJ8UVqjKv3m7M8O7AomRio4itweZZoa3v4uzuWVULKp4IxXvFTXWbMHK06qurlDAjPi+1Y9iAWmeNTsRHblJ07DLdYJYkhs7PNspIX/MurCWRoG3ShmsE597E56yO233nKyKp3DMFj4toOXKiF1D+i37iAqmPObn16TzmapAibqeOu5pXgkkAQHzyfGgFzwcyxyHDPKom+Nd2TPoGUEB/ejuLtlgvd/5oVIbnDgDFCkrfiyAc7dUE78uF+6zoMRHDv27Ubf1Yi9wQOPatKCCGEENIF6RJCqna/U3Q0fNgo/u2PnGJr2yKIpvf1W03VwkF4SLveFY6RxnUjGtzuWqv2qZmg7AEyW95KjBgCNB/5g8MdMGmKv4kCIQrc/U+WjxqF9SVn2cwZtKT4N/ywpAQlkV53/JuuFycVH6vxKij9uWM2KCku7RMxjujTRndGvTpUJZGO/v3GJPNTD3gSFdO+jgukW1kiyQvkDE9JvnKzc7j7CdzC6m+P3IcDtuvdvMvRV/znrgP8B1rkRdsnRwmuCy4XbQffR1C63bWZf0SWaO7csT92DtEUibP3Y9arZUKwDMF3Z/0GD/fS5ZpvBeQd0oD/7JBU5DU4LfZ7QcD0JzV5HQ/fXIpSuvURQgghXZqelWyipREf6bdusvtHMnrawKX9ke0j8JJFuQHqGbQFO07gPvnyuDh2BDuwSLvrSTG1Y4d83Y8VDqEbJ6tes9qZFnYLLFo+AQU4i3d3yef8iSLdDu0+Wa+l411Wd1xMxcPD479G+pYYGfts17yk1nMK4rMT+q2b0MxVCpmc4ztz1rnJxBXDvAk/CCGEEELSCbP2aZobIy0Q0wbeb0QzAuh7qd5OBauKQ/FRW5WL2uwkxFSKXfsUxlpMMg4JvXDlkmTEVB4ulEkmVPyTLXyQ5AK5OnZLLvxrx0iJlx1zlRg7ce/2GZZLmYzPieRSpnFk7RMv90xUSgh+kvpZo90NKpYr46Kh1nZnxXaxhEzqIM5LjMQThBBCCCGppksKKeWm54oVikXVfjmTMwKFbsN+8VjkI4jqXTImqgZNLd7ZKRU3pd9HI2fKCGe9inqVpCJ/TDxCx3/f0ZCui0pM2XFgcZNi1z43FRtxtRZTFyYoIq3ZpzpsMoRPUVEyIkqweJhoyxlv1WZiuJSllPXvqlio3t9wixqn+93fmsy4Ko2Km9Lvo6HdB8PU4jPRXMbQb8Q12+W773Rju1iqODX/zHi/D0pn0xx8JZ3nJyJD0Efs99Ng5Icz8x4tQ1lZGX7BZBOEEEJIl6XrCanFFSoNeu12Z1rzmKx6Be+0BDDuVjO+aCVuKJXJILZhmzLU16LqiDAMh8zADC24ZKa8mX2Dnqx9VrxSWJj5pzG3E2PMxh3LZQyWjdivZxZpLRpk1nhj305k1sEKV4INK6YLTfWpielKlsW3Y8vycIIHSdGUAlyAs/gkQbfGHR+eFv/2wVcSnsny4f3TKtbITFIhU6En59pnsg63vioXX83EFdO24elI2dnazH/g1DtBZIy7wcjQJ9OclwjxU4uPdLryv/3xfZxDPi6+RwsuFZPVB+fEpWfyt4/l2OYja561badkd3IMTa/XCnE0FsMciwgPRd9HwtkEbew2Q/tOMzL9ecWV4qKPFaemEj5kYvglHbCek0p0ATQEIyW6mIeRetgHTb4Xk6y3hBBCCOlidIF1pNyzQTLz3mgtfCzCacGd5V6kGDHWmRK412mSqDWi7IkhlXEPah0ouNaHctRTa1bVo9innkqBLgVbiPA6Uk5i9c+7vpVf/zsCta6TQ6DIWaUn8YzeknjWczKQqc3t7HoR6xnrP1n7O+3ah+XKl2OuJeVau0quM/UrzHF+t3gOtiwp9E9yId0Co2QfVGsGwVjTSK+x5FlHyo0WMdIFMJbbn7X+kyHSPRn1BA5RZK0zBbmulEytbsRmOduS9cpx/rrb0PuYax0pz1pRxjpSLmL2L2XrSMm086XIOfoIZr0XOxtfh64jFWO/k5Y8j3/+eqZ4x7WkCCGEkK5KlxBS3gVuSXfFElGRF/P1W3CXdHJSuCBvQsg4qmlfB6IIr5QLKb3PBnORZj+m3Ivnf/g1ZNb+FqV3U0YRQgghXREmmyCdiAJ8RQbstFRjh3tmUbvpERI3Z+/Hax8AFwy7Lb2xbCGm4uErrditTTEWaZ73HSGi0Io//ZYiihBCCOmqUEiRTkQ1/lNOZmYVoMgRI1WAFbdK17tkU6CTnsrqt+xYtuhZFlPBoivuwRW9avCbGC59MsnEd/r8Cb8svREP79IfEEIIIaTLQdc+0unwjZGKEatEOjHaVe9zvSnjrf77mlH4gmPW5mf4+wOz8Xe9JfliW137QlixVfBxt1Oueua1VvMyzn/hp3rD4r9mHMRnVxoxYM0+rn3KpW84jmz/Lu7tkEWACSGEENLedG4hRQghhBBCCCGdELr2EUIIIYQQQkiCUEgRQgghhBBCSIJQSBFCCCGEEEJIglBIEUIIIYQQQkiCUEgRQgghhBBCSIJQSBFCCCGEEEJIgvRIIRWYuw1X3rcNl397qi4hRLIAMzafwH07TuCGxbqoO1I8B1t2/Bw7dtyOW3RRm1l8u2hPtLl5Dop0UedBriO1DU8P0JukjbTzfTLgSVTMSv+CyoQQQkiicEaqHVDC7Y4HcZ7e7p6sxA3CsLpj+QK9TUg6KMJqIdi2LC/Q27GYioenlaLg7NvY5FqMt6MoXCNEyOYNyNHbJAYfluGts0Pw3WkP4lu6iBBCCOkMcEHedkAKqWF93sb+J+7HZ7qs+yGF1Gxk712BJ5at1WU+LK7AfaWmEVyNrUXFqNJbhERHCqnpyNm7Glcvq9ZlkVl0xTZ895Ia/ObV27Falzko3oA7llyFbL0pqS0bhBdW6Y00IIXUzL57sPaauWjQZR54n7iQs4pCEH9QhuK31ukyQgghpGPhjBRpN3KWH1DGoTRUHyqyX/swgk/nSTro9SCmXyIkyJv+Ikpdj0JEQYj/8PU4CIfHVKBQ1+kIeJ/4sQ63vlkDXFJKF01CCCGdhs49IzXgQVz+g+Fo+rfv4i9Tt2HYYF3e7JzdOe/bv8GYKxpw9KEyfPmOe5BvP1521VMzQ3Ybgo/LZ6D2T3pDovb3deCtR/Du73bqQgtrH0Ct6MvHtovQ157ElSVD9IakRvThdgTlW93WBarcB1ffpAvSRWbf0ercV8JYM0T5esv3iXbMp94yFmIpxjW9jIc25Tqe3DfrmSdp9C0YH9ClXux6of7UiLYWLrE+jIK73XA7GtX3/nhn5Wg0XHsCM0OnIXwM6sn/EL8n+e6+6OPMsj6FOIOy3W0VetNFzL5J3GMb53GnFRkbtaQwfE22VGHFNRuxQ29aWDM+KPsJXhlwP5aO76XL67Cp6Ek8o7c8bdnUvIaihc4W7TbDo+FqK0QBVmxehCtD5+Es3lz5IJaK81C03OyLl099ZqjUbFTgbfzL9vvxe10WQs9ESREVdQZV4pm1cl8fse8Tv5kvBy32DFVi90nM6yyO+8Ruw28mznkPJXafxHUPJHSfSDfNe3AFIpxTyc2/QNnMQWh9+5e4ceXrupAQQghJD11gRioT+T8QAghlePOhGeJVho+zv44xc+frz22GYNh996DvsUci1gtukOXi9W9v41Nd5uDDnWhqBi4YOtUVzzQV2UMzgeOvhYWNFErD9ut9ydcjqG2WfXgSysT+8H68qz87elxsS+EUqiteDhE1H/mi7/mn7WOcgf1vQRz3b3BRMk9fpXFiG2PmE+01K3UFgTTsxuwzPl+Bd1oKMHOHz9P4IbNx35IRqF6p65ZVI3v8UhVo3rBstP7+y6gVVaXhGG5zkNdI7Zsb86m6NN4WjG8UxptuZ+UeQOzPG38VwLglwtCDfZz6GPST+6r90rAuwAh3QPzisUJgCiNwk22wrcW2a/S+xLFFxgqyXzAewoDU9cVrE67DjGJdRWDNKEjj1a4jxkaOoTn+HUHFRlxd9BMUidemGl0WgYLSn2Np/0pVt6hoNd5sycO1ZiIJo61wHf2ZiUpsYbni2XU31Yi23IkuVD0hooS5viLU5kbgWmufO5Y9qMteExLAEk52e/LldfObjzGXiHond/oa3DlTRghRE0T1rhgiSgqbWyGEX/h8b62R190BxzlXRLlPUDEXT4S+L7alcNLb6uV284vjPon/Oot+n2DVPnXv5o9xf28lRgjh1bz3Ff0gIt77RMeBaXEWOsb9Yx3JKRK/T3Zix8lWoNdwFEXQ1PNGDFL/Z351Miapd4QQQkj66BqufceFwNhg+8Wvw0dviT+mg8dYgsVAzjCFZ5LW4bQUMH2+kkCSh51oPibazh6ObFPADJiKvtmi/aOGb74USqE+SXbi40ppIQ1Bn69ZJfFy3ren4yI5m2W099nvnhLCTIjIqW7BGAth7E8r8HmyuwQvmNvSsHN8Loyk7RGEh3p6bTx51oZX9oBEEkssQcXeIJB1FRZES0ohBN5EYbzVlhmzSKKvm8R3s8df5xF5SriFjmMtqo7IffTHxXIzgoFYOEaMT8thVEV6kh6JxddhXJb3KXzDsmJjeyWKxwdEv540ysTYS8NzyAyv8R2VH+BX5eUoj/R64ge6XhqQs1WhmaVq7DhyVoxrH1yqS+LllmsLcYFo61eG0HlmoRRDeZhhJIyw6zlnyKqxdKF7xixOBowRV3IrjnzgnFm2WIDC4eLXI65rQJw7l8ip2rQHzeLXp2CK+xpux/skwess6n0ivndY/XSNdd5f+oFDbLHpInQPu2a4VhUb28ndJ7//4Ag+RSb6RBBS6w+fUP+3/nk3OB9FCCEk3XQJIeUQMILPTkmzJgdfdszWtOIvrshtNQPlmPmJzWe/ew0fiz/UfUeGU6OfN3I4LhBC57TpBuhHw2n/ma6o2LNd+4XJYrITfzkt/ktICAqKv4mCLGHE7DdFUpy83ygMRB9aGvGRfmshDJ4in9mmGFizV9bMlXxSL9Mnu7OXWTMF1TjscjFq+LBR/NsfOW4D8UNnH6x92CJMG6UOA1E/ZT/yh8iB/hGIS4BFMj7V2AbQNyEl8m/4YUkJSiK97vg3XS/1fHrkreQEjIMiFIqx9rZVh09agAv65+ntSPWS51sBeVU14D+F/ks5FfUdfp8kep1Fv09sceh8iJLsA4dI97CDZO+Ts/+p7tucQISlK579MUpLS+nWRwghpF3oGjNS7Yo1kxV277OEzqdvlbmEjk5rfp/xihYTFZEh+LIMnBhc6mxLvMx4rri5tL9yWWp6X29HQbnfSCPNfkWL4UgZlnEpXXnWhp68h92kLu4v5xmli6Grb2YcRQI07DrsNBCVAVeNNxI0buUsRk5f8V9TfVQBljOgv/jXcqVy9L9dxraTUXyRMv4vGL/IWmMq9DLjoAS6XsOH4VmrzoRyQTPPpSP2MF1Ev09Sfp1V/AHVQtyGZ2+tBw6126NkFoyAuoc9otIJ7xNCCCHdAQopH4JHa8LufcqtrxVNh5wuQlbiCpkQwoh7ihR7FZUa/EU+3pbui3Y75ivBGbV4Zz6sIHLppmbHJ4jXSvlUuv1QT8XVPoVBda1lwH3UKOWqdJEy+hV6RQlsj4TLQFRP2Wv2hd0G42YtGmQOlRixK9bMmWtcjVdiabU70LUvFVR8rIxwdzxT6GW7Dup6OQOSE8uJo89l1ggURnAhs7ETizgz6FmzRe2F332S2utMot397Nlb/cAh6qxSBNQ9HHIb9Cf1/SeEEELany4ppALDlG8WmtO1wOafylR8knTvU259nn3NRx85W2Qmn4jCZ00y7qpPBBe9JF34IqHdjryB4ybW02bUbEtcmESkBk1CsGT3lw0nTyQXvuTRsV/KQNRP2ZNxexRYBmIM4zspF75IdJxrX2pwu/BFQtcbfkU4mUVE4mvz90ElzfCVCLE0ViISvzgnEzuWag8qUmjYxyM0YpLS68yiYdk2IRCt2dvkHzjY97BfrKVBsv3v9RVr9jLoF/smmHIvni8rQ9mz9zLZBCGEkLTT9YTU155ULm8fVyY4U5MQVtKJC4aW4uKhmT770rNIZsILmQo9gmufFdM1BLnf9vfrD+58G5/6ZiJMBjsuaLYrUH0lbghlw7JEjyN2SGb6a5NbjX7KHylQXGYJ9MnGVXit3GcwnEFv1St4p0W6/KRwLR8V9C8MuzVjkd8Go9gyNL19y1leET7mirl4o0YI2VKfrG49jmos3V4nronp2GIklvCi62UVYukaU0oVYMUaI1Ogohr/qa6zCVgRbXw/3C9qZmL4JRFiaVYVq+x5MgbJndChcI19fn1mruR13EbXPltoTPRLJBHvfZKW68xKOpE/pgIj5Gx1KKtlgqh72Kdv4jcmlLUvyf5/6xIZr9qK0xFi3yaN/6o464LA13D1zaqIEEIISRtdYB0ptzjxrq/ku8aTB5livBQX6S0nxvpPNqF9+3ymcLUn05uXCfNIfKfVvT6VwOqj+hNv4VlHyr9/nrWu4sW9PoswK53rKen1avSWSsf8NHCtEFPNoWxbet0Y2GvcxMK9zow4THOdHk+fBKH1c5xYrod6w8bMRKjb8lv7xg+7PUd/bKTxGklEevoX4xg1tkuYgwjH2l5EW4spvA6TteaTTFduphS3vns6wvpPEr0GVJPPOlK+a06F14gK4annU0fhXm/K7H+YqOtI2fhck85ryn2+5X20DyPEvZMdOu+J3ic+14d5bSRwn8S8zhK8T0L79ttfQveJzz3ss0ZUYveJXkcqWIbit5wJiMLMwy/KvgOZBJ1rSRFCCEk3XUJI+QkTQkhnIoqQ6ih6PYhXp30dOPoIZr0XwRWMdB0GPImKK3Pw1vbv4t4o2RjnPVqG7+S34k+/uhEP79KFhBBCSBrokjFShJBORvEVuDwL+LSxThd0As7ej9c+AC4YdhsejhArRboK8/H0lUOAD16LKqJkjFSRnGav3UERRQghJO1QSBFCEqZo+e2OGCW1oC7qsM3lXtfRrH7rEbx1NhNXTHsSi3QZ6WpIl75SFJx9G/8S1aWvDGU//Boat5ai9O71upwQQghJH3TtI4QkgTtOqS5K/FRHMx9PzyoF3pyBW9OV6ZOkD+XSB/zm1duxWhcRQgghnYHOLaQIIYQQQgghpBNC1z5CCCGEEEIISRAKKUIIIYQQQghJEAopQgghhBBCCEkQCilCCCGEEEIISRAKKUIIIYQQQghJEAopQgghhBBCCEmQHimkAnO34cr7tuHyb0/VJSTlFG/AHTtO4IbFepv4o8fpvh0VKNRF3ZLFt2PHjp9jx+Y5KNJFbeWWNaI90eaW5QW6pBMh1z6a1UkXAea9GR/tfG8uumIbKq6Yr7cIIYR0BTgj1Q4o4XbHgzhPb5NUsRI3CEPnjuUL9DYh6aAIqxMRbL0exKtXDsGnR8t68AKyvDcTZfXRt/HpJaV49TI+4COEkK5CjxRSwQ0z8OZDM/Du73bqEtKdKVwjnyobrzUr9SedgIq5eKJoEB4qKkaVLuqWrHoSRUU/QdE1G7FDF7WVZxaK9kSbVy+r1iWdgfl4etrXccEHZZj1nuv3ZXGF8zrUr54sNnhvGpy9H7PerMEFw+7B0wN0GSGEkE4NZ6RIN2YBZmw+gZlDqrFVGUT6tX8sn5STtPCty6ajADX4zVvrdImbIN5ZaVyLZdXIHr8U923egBxdo2fAe9OXD2/Hbz4ACq7spG6hhBBCHPxDXl7ef+n3bWbWrFl4/fXX0dTUpEvayIAHcfkPhqPp376Lv0zdhmGDdXnz29j/xP34TG+e9+3fYMwVDTj6UBm+fMc9yM/WH7jqSRe7UBuCj8tnoPZPekOi9vd14K1HPLNV1j6AWtGXjz/UhV97EleWDNEbkhrRh9uFqSTQbV2gyn1w9Q2YiovMvqPVua94kX79S0ageuVoNFwrDRVd3rIHa6+Ziwa9mbP8ABaMbxRGzCvI2bwU47L0B656EqtuQG8Jal7GQwuX6A0b6cozG/l6y6a2bBBeWGW9l0+fZ/Z1ta/6exWajXoW7vakwWU9Gfb0x0Xz3hV4YtlaawagtMDRh2i42w21o4lnzNQxKuPQ/RRbH489dvq4Q6fbZ9xNYvVNEk+ddkfGRpXm6Q1BzWsoWuiek5Kuc9OBsp/glQH3Y+n4Xrq8DpuKnsQzeqtouflZmGrxvUWe82u1GXbGc7YVJnK9SPuz+XTvatds2Hw8PasUOUcf8c5GSdT12F8IqdHYVqHLBPZ5s6/TeK4zG/c5573ZDe5N6Ro6TfwdinQdCeY9Wobv5LfiT7+6EQ/v0oWEEELanS4wI5WJ/B8IAYQy5Y73phBLH2d/HWPmuoNyh2DYffeg77FHItazXfre/Le38akuc/DhTjQ1AxcMneqKZ5qK7KGZwPHXwsJGCqVh+/W+5OsR1DbLPjwJ9efyw/vxrv7s6HGxLYVTqK54OUTUfOSLvuefto9xBva/BXHcv8FFSbl4BDBuiTAaIAwD9aT3ZdRmXYUFHreZAszcsRQFR1ZEqGc9NbYMFPupsagzZLbzCbo0PIQhki2Mg9CT5ZV7IIYyOZQLlDZsQvvdhxG6Xw3LRusy0RexLY2ScL1BHgMle0DsJ9zSyHIcp+g/xi/1eToefcyq9kvDugAj3IH8i8cKwzOIdzZpIzfkNjQIW2usIn/scwDHTMYmXIcZxbqKIP7+tzO2S1/RarzZossiUFD6cyztX2nUz8O1RnKKHcse1J/p18oq//u4eA62CHGUI4SOXXdTjWhrx+24RVdRqAQYQkRJcRdq96gYS2uP4f29JqSCJZzC9XxcCgeMEWe+FUc+SMxluOHDRv3OhPemTY+7N8/uxJGz4u/QwKn4li5yMg8jlYrNxFfHT1IlhBBCOoau4dp3XAiMDbarzDp89FYrMHiMJVgM5AxTeCZpHU5LAdPnKwkkediJ5mOi7ezh4g+8LpIMmIq+2aL9o4a7jhRKoT5JduLjSvlXdwj6fM0qiZfzvj0dF8nZLKO9z373lBBmQkROTTKLk+PJ9BJU7A2Kro31ZJ+ST4TDxs0SHJaH0DfXMsQWX4dxWdIVyXyCuwQvlAmDRBgoxdogKbz2KmS37MGmSE9YE0IYJ9MKfJ6si/16nrTHYNUreEcY78p1ascBh3HjQBibE4fIsTCOUxhTm8SYZY+/LrExW7VPGZD5Y2yD16JwjDimlsOoMmYi4iJ0DpyzGA3LisPbCfY/Kgt+hfLy8oivX6VTl7VUYUVotqoaO6Q1mdUHl+qSeLnl2kJcINr6lSF0nlkoxVAeZoQSRhRgxbQ8nxmyHVjkmTGLj0UDxUk4ewQ7RLcTIWdAf/FvEE3vW9s2vDcFPfLe3IkdJ8XfoV6Rrv31OCQPRIj2P+99XZUQQgjpGLqEkHIIGMFnp6STRQ6+7JitacX/v727AY6qzPM9/kN0dC9J4CKLmegYMO2OMMwVRJPFua6DTWpIjbtWDGgVljt3aoUgA1NTtaMTeSuLt0GdW2WNLBpwa2rGkiqFQLkzW2EqtIyXHbnBUXAvgnPpLC8qBCZSIQl3cFW4zznn6XT36e6kT6chb99PVZM+T5+cPt2d6PnleZ7/82ff2Au3Byqp56d3n/12p05rlMZ9M1456dpvTlaBCTpnE4cBptN6Nv1fyHsU6+064A0J7LZbfz5rvgQKgnHHDiRf2Hh/9R6v4qQLltSLt/0LJmp1bCiMc4GhM2r1X2DYCxLvr8nrNcVcKLQf+l3GoS+BVH5bodGp55+bzWp80Lwe5+LS9tKlm9xffO8UjTGX2Qd9Q4xyec+ci7fU0Jr7e5TNRV6w8+/F5h/qu9/9bsbbD/NxPZ5B16F9eShEEdY0816nHuu4PjUX7gXj7TDDynJ9w/ycRQ/0/Rk9M3Wz85edjhN602vIzqImOUO+2vduSLoY53fTM1x/N9/scM6mWDdnGFn6y3+sUU0Nw/oAoL8Njh6pK8rryYoP7/OCTte+Bl/QsWXNVyTcepoTlVGZ/sIZjH9LTfKxzC1xPle/OXdGp+xdvzHjzRVIvt063lx4pF4Q9cnGSjvsZl38r+AJw5++Ot65AnaGBSVUD3NuNc7FanCtbx1Ue+IQInfoUFT/FrhXYL6Kx5kvbR/1eJGX7/Mf1CpvcD/Xghm13rpV3bdaVcTmzThuHWt+Vzv1aT5/zrISDw3eZ+TMmUod8pYVfjcD43cTAJBPBKk0Og63mP+j2+F97rC+82r7P8nzHrzCFU5BiIR5T5nmXvWoRX92Jiw4wxdjx0m8BexRu5LazzjjZvLsyBlzoVOkcUHHc2XF+yv4Zuev0gnDn06dcSKyr3pY9y152E5Wmn6nqLkojA0hcv9y3fJuwhCsbG1Wq1O3JTY0KYO8nn9/Du3Lh6bT7oWtfz5T9y02bO+I03tcqOsvy89ZT5yhYH34fLLE72YGg/l3EwAw4AzKIFU0yR2LofagFe2y9V6DOz/JGd7nDutLea7HNNbpLUosPtGDz9qceVdjMwzR69sQvmxlMwzFz52cPXqKpvmHn9jJ2dG3nL/itqjN+Uuy7y/g7twMe78n3tCXBE0fuRPh/fMY0kv/3EHlNASuR+aicJd579whRN7QoVyHQ7kXYuk+gwR5Pf9+HNqXH74hfJnYwBWaGitl0ZNsjrlbJ5xr5qKbMxQIyC9+N3M1OH437yty4lmrTmSYb3dP3a/U0NCgX9VRbAIA+tPgC1J3bHCHvJ3+/eXsqfGKThT8VY2++lej0jyX7UVKLHjhlELPMLTPm9NVpq99J/2K9R2731FX2kqEebKoyS2DfmxX5hK+abkTwot05+OJa9ys16POsJSWRvvX1M3af8hcUJRVdU8Yd0r93j+uw73oSuS/8PCXBPbE5jE87JsvYZ63u2JZjP2rcMJzJ3KO/2hsCE+39ap0nvPc22qKzVuIvc66pgyTv3PgzlUJacomc2Gb+FwBtS5vNMdJPbfiNU3x13w5zn/QimrpruPmZ2K23uguLJFORK/vNVepKfuFVW+r9sVFdcL9OfuW1vVwQVz/cYtUOFnhzBXT84ffzdwN+N/NmQrfNErqPKv0oyjv0d983TxujLrrAX3PvQcA6A+DYB0pfzhJXV8p7RpPKZwS4zW6wW4lS1j/Kab7udM85vIdzylv3iCFzPec969PZXjn6P3Pz5WyjlT680tZ66o3TrnjxDVQXKmVpbwLJadsb2/DS5wSvwnrshjp1kDx1mixG25VL7lrs8i3TkzSfuYiZvODH6kyzX6xdWbi0q3/4uj5/JKez8q0hku6fRMrlGX/nnlix0v3fOkvVD2p++fwGcSkVFi7shZuek5z/edkxdd/8tZycsqVJ5YU99ZxOpth/SfDKXNeN02t6daRso8l/7ejU83rV2lp4mfnX+cq43pTIa3bnjzPKl/rSPnxu5l8/o7efraH1O+mXUeqtblKj2f6/9n3f6aG+yeaO6wlBQD9aVAEqXTBBBnYIJW6iCYwxPQUpPrJfbdt01OTpH275mhZwDLogKO2vFFzit7RT3et7KEC5Pf0s4a/08SO9/T899eKIugA0D8G5RwpAAjfG+qnynuZvfmhs17VKJVXrLoic6UwxJRs0JwbpeihnkKUM0cqLKc/6uj/IkQBQH8iSAEYBEJat2me4rOXwnpoRqHU8vvkoXr97mU9vusddRXepafKL9OcRwxNzpC+ijJ1HX625yF9DQ360V1n9C81NfrxL2w7AKBfEKQADAJRLd0q/bB7XajZCrXsjJczH0g6V6q6uUW6capqbRPQm9pJd6ngk4b08+tifvFj1ZgAVVPzY/3SNgEA+s/AniMFAAAAAAMQPVIAAAAAEBBBCgAAAAACIkgBAAAAQEAEKQAAAAAIiCAFAAAAAAERpAAAAAAgIIIUAAAAAAREkAIAAACAgAhSAAAAABAQQQoAAAAAAiJIAQAAAEBABCkAAAAACIggBQAAAAABEaQAAAAAICCCFAAAAAAERJACAAAAgIAIUgAAAAAQEEEKAAAAAAIiSAEAAABAQAQpAAAAAAiIIAUAAAAAARGkAAAAACAgghQAAAAABESQAgAAAICACFIAAAAAEBBBCgAAAAACIkgBAAAAQEAEKQAAAAAIiCAFAAAAAAERpAaSynl6I/KcIpHFWmib8uG+27apadYq3We3PTO1dlajdtw2027ni3fcpmpzS3lOAAAAYGggSA0y4TUrgwWtkg16atIoRQ+t1Ju2ybNbyw61qGDSk3qxxDblQW35kyrXO/rpjipV7vI/JwAAADA0jCgtLb1k7/dZdXW19uzZo7a2Ntsy8DhBZOmMQrtltOxUeEHEbmRv4abnNLfMbiTpVPP6VVraZDfzzDv/s9oa3qCXbFtGhau0Y9Zd0uFnVf3hbtuYzOmtemqStG/XHC3rtI05e0wvVtdIzVV6/KRtAgAAAIagYdQjFdK67c/ZEPKEwu5tp6JlsxXZPk9hu1e2XlqQcAyz3bW33m5fvhAVVO2ku1TQ+Y5eyBCiHG9++E/a1zlK5RV5GIZXeLOK7V0AAABgKBvYPVLOnKG6kD5Yv0on5ib0AJ3br3UPblFSP9KixYrUlNqNRMe93hv38bGpvUXuc0yTTBB6YHnU6/GZHDXHP62HIrNN/PI4Qcl5PFVY9Wa/4nSPZ3v+9hwK7Gbq6/OeI3YuqexrtFsu2xvVmk3vUMkGNVWUKdrXnqQgzwkAAAAMYoOgR6pQFXXPqepMrMdnp6Kjp2nppoQ+JBuiog3JvURuIHEDRkjrZpmQdS6qiL+3qGmfPjgnFUwuj/dKOcePfEufrrfHaziughm1ql9kHw8ki/Nv2qIH3Mee0NYW25Ykolr7+Lq9zvg7JzjZc3NvqcP87rtxsglmLTqQTaA5ecB9v0I3PeZtAwAAAOjR4Bja17Izobcnov1O2Bh3Q3fwWTjVCUn79fpG22D2ed0JHKNDClc626W6frTUdWhfQi9PTFQn0nSgRRsSeq42HnaDRnFJ5j6hHvVy/vk3U+GbRkmfHFC9benZyzrwiflSdDNV9gAAAIAsDIogFT3QUzGIkG4eZ++mOKsT2c5XGj1Wt9q7To/P/u5Q1nc9n//lUKaxhSY4dqTt3krrSMd5qTDxPQguUC8YAAAAMIgNgWITUS3dddwdjvdQ99C7sB5yKvO1HO69sl3MubM6Yu8iGHedqupGLdE/qXLH4ix7wQAAAIDBa0hU7QuXjHW/hmqcxWyd22yFksqaH9enzjyo8emKUdgerbbTaYb9IRtvfjjHBKgqvaAfmEC1QbW2HQAAABiqhkCQ8nqf4uXH7S1pbaioIoc6pbJvaZ07ZypBZbm+Mbo/ht/lJnLyrPl3rG72v44kLTprXm5BUdqFrtK6tWiU1Nm3Xrk3PzmkLpVpah4X+AUAAAAGoiEQpHrqbYqLLP+9iVOFqng8cc2osOqdsuMtO1WbxzlRl9WRsyasmNcxt6dSFbsV+fi8dOPULHuHHtPUG82XjhN602sAAAAA0IOhMUfqxf3qchbWdYf1Jd5WJvRAOSXE69Usp7R57HFv/afk3qvsLNwUP4ZTy88pj576nNlx1q6KnbO71pRbft3bfmONr1KgUyq94biU9HoXa6F9OCZQ71DJVPMazmvf4ZdtAwAAAICeDOwFebMRW8w2aU6UI6R122tVMTrNYrXDRG15o+bc2KJtPRaAmKm1s55UeUeDKvf1MUixIC8AAACGicHfI3XrWBWYL6lznNKvDzWc1B9+x+2VmlOeeaHd+277gcoL89Qb1XlCrfYuAAAAMJQN/iDlzhmSQlN9c4YWLfaGyQUpgT7UdK5UdXOLdGONdtw20zYmKNmgpyaNUrR5jpZ12rY+8YpchCavYmFfAAAADGmDf2ifIza8z27GRBueGDxFJC4jZ52np246pJ/uWplQTMIb0jf542dV/eFu25YPdqhgobnb+Y7vOQEAAIChYWgEKQAAAAC4goZA1T4AAAAAuLIIUgAAAAAQ0IANUhMnTtR1111ntwAAAABg4KBHCgAAAAACIkgBAAAAQEAEKQAAAAAIiCDlc+13tqlixQYV2e1e3bHB7N+oiiWrdK1tGuqmbTqqFdtfVbHdRnru+xQ5qiVr5tsW9JtFixWJrNS6Srs9qDyjL54+pi+m282Yki36/Ol/15cldhsAAFxRwy5IBQ5K6BeEtcFh4abnFNk+T2G7PZyF16w0YW2xFtrt/JivL3/0sL5of1sj37VNMSfnaWRLkT5fsEsXbRMAALhy6JHqq/cWq3l1lZpfWKnPbBOukMpXtSTi9fp4t/dVNYB6HPYvmKjV4Yl6Yflm2zLchLRuuwlaEf8t32Fj6Lr46DJ9Piaqrzw/TyNsW6KrXlmra9pD+s8fbVHeVlYHAABZIUhhcFrUpBV1d0t717lhxbttkB5v0jS7CwaIlp0Kh5+wt3o1nyvVXBOo6hfZx5FeyRZ9WSZd/etZPfyHerNGvv62Ro65W19UMYQUAIAraURpaWne/pBZXV2tPXv2qK2tzbbkzllH6tSpU7pw4YJt6YvHNGFFjW6wW6ladHj1YnWYe87Qv6nlrWb7gMYmfE/Xvmf1wW932y3DmRv1XXOVE/MfDWp+9WW7kazokUZNusVuGCnHypIz3O1+vabVW7+mJSZEjLHtxxom6pWNdkPr9WjkYY0xAeOFkw9pRU3Itvv3M5wenYTjSFH9Jlyp/XYrpnjN+5o/wzcY8tzb2vzgI2o1d73Hz/i+N+E8fD0y/uO1x/ZJOR+f7uecr6rtS3Wn4ufQIyd0JbwPajHv4YI6u+HI4j2zx0h5Dw33cymLv3fetveYI933dOv13Bze+U2wW5k+p6xUztMbddNUYDfjOtW8fpWWNtlNZ05RTandMJwwtCDi3c94DOvcfq17cIsibo9UrSraEr7XFVZ9ZLZC6fbbekPSsbv21uuB5VG75bDfa7dSzjsm7Tkm7Gsfb214QrUJn40zVHHuuNh5Jcj4fvjPx++4tpqA/5LdcrjPkfDzkfoaPRcfPab/vP5tXZuhNyqRu6/5GfzK0z2FLgAAkE/D5P+5L+uYM/zO3A7sO2+2neDkbXs3L0TFlWmSCVH6V/v4v7aooPwHuiFxUndsSN/qZ3Ws3bal4YWo5Of7aJzvWEGUPawVdVMUXe/1wmze26EJNalD2sbMWGou0GUuuNPv54QZp0en3Vzkx3p0ftMS0v2+4XFOKPBCUuJ+9sHAnADkHE/6gz1/57ZVD3nP2fSIXkh8Dic42W335g9No8frq/ZuJu7rrBmf8Hyv6ZjzHm5ab/eI6/E92/iujpkvE6b6v2+9ppiL4va9r3cHm9iQvtXr31YPPxrePDAbzrpf44HpejSxp8YdvuiFvNg+3ueUQ8+bDQ8yF+7x3iHnAediPx5G3Lk+NWNN6Ij1Iu1UtGy2IpvsTKimLXrA9jBtdT8nEzzstnvzh5AUx/Wp+7w+znPUhfRB7HkbjqtgRm2858otGDFbxd3n/4TW7ZUq6ny9W85+NiR1n5M5Vq7ceWAmREUTj3dgkn3OiGpt27q9nWbbeS8T9ksbopL3aRw/L00RjGd00fxcjfzj7l5DlOOqQ04QC+mivyAFAAC4bPjjZQanTYg69p7deO+ATmuUxn1zpm3I1kz9xVjz5T8OJAW1jlfn6PRJuxFYhwkFt6vRXvS2Lm80F/hFCt3rG9bjhpB4r0XrWwfNRX2Rxt3qbK1X5Ywitycosadk/wITMsw+d861YcFcxP93czF3rCHH3g+/RQ/pztHJ5+9oXV6ZtN27zWrc5V043u/MjUoTijyx17kh4fh1eqXBfG9ZVUr47Pk9q9NBJzSUTU8OMIuma4L5TKJvBZwH1f3e+nqrNlYmbU+be7fGmPPamtCr531OIf33gNUAw/eGVGAu9Bu7ez+iWrrLCRilmtYdRMJ6aEahuvZuSejlMWHBCSJl38pT1btSXT/afGk77QtcyYFOGw+bMzRhuMTp7wlp3axStycosfcmsnyLGwZDs2IFL+L7JfY05cyEzyrzOTkhKul4GzfkcPyQbh5nvrQcTgpXLy1I06M2fbq+MD9XV72f5c/Vu+/qavPl0niG9wEAcKUQpNJq0dlYiOqT3frzWfPllhpVPPKY19RX5w5qf9JFV4vazIXkmPHmai9R20fJvTe2t8e9SHcv/qX2k/6LNBsWxn3NrZZXfO8UjTGXsgfzcUFqTJtqLohTzj9HJnCsDq/TH5yeDaeHyS024eulyRRyjpxJCEgJenrPjP1bnR6mkKYk9H7k+pqye29tb9eh3/mGL2b4zHtx6/hCe8+vU58esXcXTTKvsFMfvBUPK64jZ9WlQl3vf88Cc4bxOUPhTGhKGu5nnDur2Gl4vN4eNzhVlusbJnx1nfH3LEUVOdQpjR4r99TsftEDPfeJZSsWPvfn5XcgqhPOqOfE3r0MLo0fb/49oxFZ/8ElqhHt0pfjMg8yBAAA+UWQusw6XrXDCZ0w5aw3ZW7f+E7Qnq3LoUNtyVetcVkMmQtuvoqdv8b7w0qfbFbjg3ZInNPLZC7PnR6q2NC44hLnYrRId9bFqvrZW0/zsHrS9DtFTYCJD+/zgs6xXVnM0/L56vgiExzO6JTdTqvya+55ukMOE88/slR3Oj06Ab20db8JQ6WqWhO72La9N+dMGLFBMFzidKEWusPlkirtpcw3CsAJDt3HsnOhfEPestV60hfwuo3VzXnpLUvmhs+UgJe7lxbYIYAJ78kb3Z8HAAAYTAhSV8Bnv52TNJ+qoPzJARKmMujtAj8nm9Xq/DXe9nblndtD5Qx5M0Fnlrf+VOvJM+ZfZyihDVu+W9KQuqxs1v5DHeYi2A7vc3u8cuuxO3XGHKe3wNr0kTvHyhmCme78U4tS9OLWsW4YcuYddYcaJRdWiJx0ulCdogyJ83zit5yGyyVV7TM3f09UXpzViXz0dPocOZPQ25UnkeWr7HvhzVFzPg/CFAAAg8+wC1Kf/cnpOyjWX+Ra7KFPduv0CzZMjUszLOveZfpVQ4MaGn6m79mmXlV+W6HR0rEDAS6q3cIJaeZV+YaSeUFkvIoT/9Jv5/b0yg4fTOSFhymalkXPQVZBozeZhvD1gTcnzRve5w7ra3k3p/lj3nubPEwwVdAhfPdo2S+cn58G/ez7tqlbfO5QUqjxF4YIOITvcgSNtJr26QPzXoSm+ofEhRSeXGhel5131HTa/dn15lXF2Nfeq7Cm+d5qL1gmziHLzNs3SM9YVEsftGFqfPL5jTjj/e5dyvq/UyFdGiONbMvUYwcAAPJt+PVItToXiqM0YWae5iz16DFNWLJK19otV8lMjTMXPF1tqaXv7pnxdXNmjon6ZsqFcDrzVfW4V4ygKVBPQZ2a9nZozIzFvgp9TontqP4tVtjABq7u4hMmaD1ad7d0LrF0RppQ4C/pbcUKY9xZlzyXqXhNU0rhh9gx0xdUMOex3et1SlS8psoNb91D7Zoe0b+ZtzldVcPcefPIJkxtMqGzQ3/YGrBXKGbj6+78rpRzM+9dvGqfLapR9rCWZFNY4t6/0ddtVfmJU/xR3M7PGXeDLcqQQdMWNZrXF6pZmVVhiVjQiA8XvFxsYYyy2UkV+sJr5qlidKeat3b3qWm/Of+CGbO7F/1duMnpees0v/cJbOCKB7MMZcw37vSKWfjfj0WLU9fBsiG0Ym6md9g8x/ZYUQwr09wvt3hEkS7enmXxCLc4hRPAsixOAQAA+myYrCPl418Dyi2H7l9HKrEkurcO1aiE9Z/8a0MlSqr4V7JK3/iHu5LmlyQ9nsjpkfrhHSZMHdW/1PxYv7TNMf71iVwZ1kSakHY9omQp60M5Vev8JcaT1nbyKu7tv9d83+SDSfsmH8tZ5+h1FW9fqtAh/zpSdg2ohDk+3etI+fR4fknnFZPbOlhB3jNXLCime79ix7JbyVLPL+UzTXcOaV9ravVDr0fqR7rDvNSjv6nRj39hm7tlXvPIX5XOKYG+dIavOEX3uk/JUvbtdR0pP7ufb5hhWv71nNxKf/75VvZ49mfMXafprXK94ZZWT6iQ51trynkPXi8xr2VyNOU8/Gs/xdeR8unt/NKsb5VSEdAKvI5UlvsCAID8GJ5BapByL7rHpbt4B3pjQ1SaMOSFhAwL26L/lGzR5wvulprX6prGHnqa7H4jfj1BV79r2wAAwGVHsQlgOKi8wR0K2XVoX0qPjzvPCQPPyXka2SJ9WbFEX2acKzVfXz50t75sf1sjCVEAAFxRBClgOLBzggoml/vm6MzTD51heQkl0DFwXPXKWl3TXqTPF+zSRduW6OKjy/T5mKi+wpA+AACuOIIUMCw4i9vuVHT0NC3tXtPJ3OqmSXvrU6v3YYDYrJHPv6arFdLF6bYppmSLvizr0DWbZvEfcgAA+gFzpAAAAAAgIP6QCQAAAAABEaQAAAAAICCCFAAAAAAERJACAAAAgIAIUgAAAAAQEEEKAAAAAAIiSF1OlfP0RuQ51S+y2wPRosXeekLb5yUv1OoKq9489saakN3Ot2f0xdPH9IV/fZwE85/+k47tPG5uf9KW1BMEAAAA+gVBCv1kvr780cP6ov1tjXzXNvnVntOyv5befq5UE2b/peaxYiwAAAAGCILUcLdxg8LhJxR+cIuuZE65+OgyfT4mqq88P08jbJvfM7e3S/9RRIACAADAgEOQwpVXskVflklX/3pWDz+AX+pr19u7AAAAwAAzorS09JK932fV1dXas2eP2trabEvuJk6cqFOnTunChQu25Upy5gbNVnxmUKea16/S0ia7aSzc9JzmjtuvdYk9Oc6cqLppam14QrUbk7f3TzX7m/DgOuf7Plfvz+kJad32WlWMtpsp+3nHKd5brwdOzlakptS2S9HYeTmcuVEJj6llp8IL/F0/8WP9XPO0dEahbT+ureENeslueXo7r7iLjx7Tf17/tq7toTfKCVJbXvtYd39arAmLrrVtAAAAwMBAj1QKG2icYOEMeXNvv9f1j6crxpCNThXPMiFKsePtVHT0NC3dlHi0LJ/TLV5hwopMEOveb4s0N/XcCmbUmqAkE3i8/dbt7VSoZqXWVdodYkP6wvVqPmfbMplsQtTkqH1OZ/9SzU0qTuGcvzmvtvj5r9srVdQlPF+3Z3TRBMqRf9zdQ4gCAAAABjaClF/lDSo2X6IHEntnIqrNeQ5RoQqcgNHd2xPR6ybUqOxb8ZCR5XMunDtNBSm9WVEtXZDm3Jz9EnqNIm9F1WXO5fpbbUMABeY54s9pnm/XccmEwYdsNcLwmm8p5PRSJfRoRZZvMYGrUBVzfRFv+nR9oQ5d9f5m2wAAAAAMPgQpv6bTajVfQjX5K1ueHJBMyDh51vybEGqyes6wppVJXYf2pYamdNpOJ+/XtEUPhBOG9gWQ8pxHzppQJhWXOAMRQwpPLpRaDvuG+kV1whnhOe6GpN6yS+PHm3/PaMRJbzuj8AVNGW2O8j7D+gAAADDwEKRSRFRrh7s5wcZdYymSbohaH9ggEpfFc9peq9aTUW+7P9ng5ynV9c68qLLZ9rzjt+45YUGEz+vfnXWjFkgvzC7VrHrbDgAAAAwgBKm0olr6oDfXJ7x+vzskLv18nxzdOlYF6tSnR+y2q5fntOHF6wXqZ0mh7rg+deZYJc3vSrgFHRIZGaX/ZgLUhE3SEhOodtXadgAAAGAAGZZB6nv/s0ENDQ36Vd09tqUHzpA4G2x6m18UvjdkAlLvFk51quWd1Yk0Fe1caZ/TCywFk8tTCktcad7rjAXB9EP4Mhlx5oz5d7wulXjbGUWu00Gnh+72z2wDAAAAMHAMwyD1PX1zgndv1Nf/RilRatFivbEmudcnOTh4jpzplEaHFLY9RuE1KxPKg/fAHN8Z8hZtSCgfntVzxos8JFf8C2ndplwrCuagcp5+aF5n194t3aXNX9pqQl/KeWXw7ru6WkW6ePt82wAAAAAMPsNyHSmnR+rvTJg6/87z+vv1e2xrXGooSrdukl1LKmltqNN6KDJb6l6vyb+2kiP9+krZPmdsbap4z1f6daTcUuop60LFJZ27T+J6U+n2S1qPqpt9XrsVk25f1pECAADAYMeCvLjySrbo8wV3S81rdU1jpjLoBCkAAAAMXBSbwJV3cp5GtpioVLFEX2acKzVSH31q7wIAAAADDEEK/eKqV9bqmvYifb5gly7aNr/omf8i3dKhLf1dXQMAAADwIUihn2zWyOdf09UK6eJ02+Sz+em/1Nr/Ld39xHEd2/knAhUAAAAGDOZIAQAAAEBA9EgBAAAAQEDDIkg5vVvXXXed3QIAAACAvqFHCgAAAAACIkgBAAAAQEAEKQAAAAAIiCCFYEo2qKl6g2rt5oBS+aqWRI7q0UV2e4CrLW9UU/ljdmtwu++2bebnwrye6m1aW2gbAQAAhjCC1CATXrNSkchiLbTbV1ThKu2oKFPX4QbV26ZhJ49hrf7wO+q6sUY7bptpWwYpE66fmiTt21Wlyh1ztKzTtgMAAAxhBClk6TG9OOsuFXzSoOoPd9s29EnnSlU3t6hg0pN6scS2DUK1N5VJn+wkQAEAgGGFIIWs3HfbbIXUom37XrYtyIuTi7XtEylUcSWGSz6mCSsa9Y3v5LMHbKZuLrJ3AQAAhpERpaWll+z9PquurtaePXvU1tZmW3LnrP106tQpXbhwwbbkLp/Hilm46TnN1U6Ft96gN+qmqcC2RxueUO1Gu2E5w/GWzohPHOnaW68HlkftVlj1ESekdKp5/SotbbLNSe2/1/V1zv1MjmtreINeslsx0zYd1f1lHfrD+tvV2H3cXDymF6trVHz42bS9UcVr3tf8yQe1+cGPVBl5WBNse/vedXph+Wa7ZfebcUa/Cb+u4u1Ldedo+8C5t833PqJWu+nwzt1uGP5jedbr0YTniznWMFGvuJ+B9/iYjOdRqf22zeM/XrR7H//5+MWf0+M9R0LCaHlNqxfU2Q0fZ8jkrLukDO9vPl37nW2aWj5K+o8GNb+aj1A8U2tnPanyjgZVErIBAMAwQo9UX5TNVqRurBrDTyhsbuv2dipUs1LrKu3jhhO4ls44a4KOt094vbksn1GrN9bEYlFEtaatS4WqmBu2bc73JYYrs0/Cc3jByR7PvaWGKCcUTHEv/IsUune+25KzkqnmXM7r0Cc9XOSPvlvzTQiRCRSrw+bWENWYGUvTzCUK6f7IUoUOrfP2C7+mY873blpvH3fCjAkt40y4ch83t/Vvm/dsqVZ072O4c5W8kOQdx9uv3T4c2KImrXBClBN4YscLv6sp9jn3L0h+Dic4xfdLF6JkAmz88c1nqjLPq+rcrUPmYy24aabus02Xy2e/naPmf22RbqlRxZJVuta2AwAAIBiCVJ84QSceYiJvRd1AdP2ttqFynqpMmIk2JASdpi36uQlDBTNmxwtGmLYHGo67wazeudhetFhz3e9L7KEKqk4HzfWy1KHoW/6enGDcOTCdhxTpZQ5MUq/Mxtf1h3PShKkJ4cdy9ov3ENnzHPc1FZsvxWuqNMHpCUrsoWp6RFv3dpj3p0pVNqROm3u3xpx7W1tTeqlyMV9Vs0ywTek1qtMrmXqRevDV8UXSuYPan/DZtS6/PSlsJdutyMfnpcKxiv3oBOH0MlWsaMxw26Yb/POv3lus5n9+R11j7tLUFRtM1AYAAEBQBKm+OBdVpIegE743pAId137fBXTk5Fnz71jdnNBzpY0btNUEilDNc4rUlJqL+p0pQwSD8npR+jqsz86B6TihN72GDKI6mHS+m9XqjPC0ASmuQ21H7F3LPU83OM3XtMlOCDmjU/axmNa3DqrdXPKPc5OG19vWfuh3ScMBc1b5bYVGm4B3IHhoSufUGRP6nF627a/6Xntmb3Y4r6RYN+dQOtztZVpdleE2R6dP2h0TnVypD1Y36LTKNCld2MpW4UxNNucc/ZhhfQAAYHghSF1Gt453ropLNTdiwlHizQlKaby0YKeJI47j2rog4t4blto+yhiQxpT0cZhiOreO15g0AS9XTu+TM7TRG+54VCucW+KwxAFnlCbMDLielTOvy1k3qkJ6YUeVHk8X1gAAAIYwgtRldORMuvlMsZt/2F5I67bPVujccUXPmfC1fZ7iM6YQ034yH0P5fI6cSejtypONld3zo37jDF0se/iyhanAQ/scJav0jRU1ukEtOuz0XAUtPOGUbjcBqrJZWmIC1WAu3w4AAJALgtRllHYIXwbhNfNUMbpTzS9uUO2u49Loafphd0GKuCDHdCrNrYi83z2vKDe7daLDfCm6OWAhhFyG323W/kPOXKjpmmZbYorvnaIx3cMHW9R2Thoz3jxBAnfelL2fmR0+mKjpI7eARLr5XCnsvkF6xpyhi26YShnmGHdfkfNIq07ksBZT4KF9d2xQxT/cpYL2d3Rg9WI5H2/ObKGM0E0Be7QAAAAGOYLU5bRxp5rPFaqibnG8sEQ6ixa75dG79m7xeqnsfKmCGfOSKgC6jpxNqfCXXv6q9tV/bE6mcLLCAebvTNvklBGP6t8CFoNoXd6oY05lP1+FvrkzitS+93VbrjwWuOLFJ5xKefeP63BDTpwNXJO/bQPMfFUlll3vVqcmt5jFw1qyJvG9Wq9HU3qR7DFnPJQS9jzOczT5HrOfRcYhizMVvmmUCSVnlafRhRm5vVffNSfjlD9/YaU+s+0AAAAIhiB1WUW19MEnTChKM09qkw1ClfP0hjtn6rgau9eWis2XckJYcjn1xAp/8eOlC2r5q9qnkwfMuYzS5Bt7WsjVKWtu5wN1ly/3r9OUjTq94pREd4bCxY5Xd7fakyr9efOQftNSpDvrvH3mj2/U6gcbfUFqsxoftOXV3WPZsuvO/CWf2Lwmp2R79/NGputgStU+e0zf642XNncef1dTEh5zyqq7ZdozriNlCzYcWtlLQY++ekxfLR+lrn3P5mkNKQAAgOGLBXmRlftu26anJkn7ds3RMt/ws8wL3CIbteWNmlP0jn6663IHqcuBBXkBAMDwRI8UsvLmh04P2SiVV6y67IvGDislGzTnxivRG3W52Dl0AAAAwwxBCll6WY/vekddhXfpqXIKC+SFU0K8okxdh58d1OXDj3Scl26crbU5rIEFAAAwWBGkkD2n5HVzi7lonqpa24Tc1U66SwWfNKj6w922ZXB688M5+ulhqXxWo5qqtxGoAADAsMAcKQAAAAAIiB4pAAAAAAiIIAUAAAAAARGkcuAMFbzuuuvsFgAAAIDhhiAFAAAAAAERpAAAAAAgIIIUAAAAAAREkBo0HtOEFY36xndm2u3ezNQNSxpVYb5nwh22aairfFVLIkf16CK7jfyYvksXnt6li3ZzQBlsn/lAfi8BAEAgBKkBI2hQQr8Y9GEtrPrIc3pjTchu96Jkiz7/25BGNr82jP9jsV6Pms98yZr5drsP3n1N17SH9J8/2qK8LeAHAAD6BUFqyNqt0y9UqXl1lY69Z5uAQJ7RFwvu1pct5uK/cbNtQ99s1sjnX9PVY+7WZ48+Y9sAAMBgRJACkNalqip9oai+8spPbAvy4ye6+tdRqexhfTHdNgEAgEFnRGlpad5GmFRXV2vPnj1qa2uzLblz1mo6deqULly4YFtyl89jOfJ5vGu/s01Ty0fZrVRd+57VB7/dbe45Q/9qNMpsR/WDhO9p0eHVi9Vht7y5UU9qwhi7qfM69s9zdPqk3UxUskrf+Ie7VGA3U4+VneI172v+5IPa/OBHqow8rAm2vX3vOr2wPN6T4e4344x+E35dxduX6s7R9oFzb5vvfUStdtMxbdNR3V9mNwz/sTzOkKv488Uca5ioVzY697zHx2Q8j0rtt20e//Gi3fv4z8cv/pwe7zmK7JbR8ppWL6izGwFVztMbddMSPqfj2hreoJfsVkx4zUotnVFot8zPzt56PbDcXLAb/sf8Evf1PKMvnn5Yl5rXpu+NcoY41k1RdP3tap2b8N74Pssgn3l271lvn7n9rMb5ju+e791q931OPX3mKefjk/7nO9vPfL6+/NEyfa63de3z8zTCtib5/s/UcP9EnX/nef39+j22EQAADBT0SPWzz347xx1+17y6QafNthOcvG3v5oWouILyJzX1rw7pgPv4szrWXqZJjzxmH3XEh/Q1/2uLbUvDhiglPt8/n9XXko4VwOi7Nd9ckMpcqK4Om1tDVGNmLE0zlyik+yNLFTq0ztsv/JqOOd+7ab193LmwtRfC7uPmtv5tyRxrRfc+hjtXyQtJ3nG8/drtw4EtatIK54LaufiNHS/8rqbY59y/IPk5nAv3+H7pQpT0h/XxxzefqcptXpUNUTJBJxx+wrutP6uqTWG7g2fhpudMUDprAlZsHxMFZtR2z4WKLF9lv3+niQpecOo+nrklhyhj+nR9YSL1Ve+nCVHdinRnnfmsFHvP/J9lTG+f+XxVbT9qA1fsPTP7lD2sFdtfVbHd60p/5q3Lb7dt5lzMthOc4vtNTBOignzmm3XVHzukMVN0scQ2+XxvykT366iv/43uce8BAICBhCA12LS/owMvrNRn7sZutf/f89ItU80lbUDFY1Wg82r7PwlB7eRKffDqy3YjuKRemY2v6w/npAlT/RfV3n7xi9A6HXTy3rivuRfMxWuqNMHpFUjsTWh6RFv3movOsipVVXpN0+berTHn3tbWlF6qXJgL+VkmcKT0INTplRx6kb463nwa5w5qf5NtMJyL8uSekCzd6nxOnfrgrYSg07RFDyyI2A3DhK2qMinakNBLZfb5+d5OFcyYrYW2KYiLk8370X5QV6XryUyU9J7Vqcn9nKbLRL8kPX3mWvSQ7hzdYUJIYg+hee9NGHcCeqUNI0PtMx/x/kGNNL+5l75qG3x+efCo+/X8H/+X6I8CAGDgIUgNMl3/d7cNUX3UelZdGqUJ/7BNN2T4i3gwUR1MumjcrFZnhGfsYrlbh9qO2LuW29vjBqf5mjbZuSA9o1P2sZjWtw6q3Vx0jrvV2VqvKSY4tB/6XdLQsJxVfluh0eZi/0DwC+h0Tp0xYcLpcUnsTcnVEedzKlRF3UqtsyHSL3xvyISt49rvu2iPnDxr/h2rmzN8X2bzdel68+XTj9IPOUvgf89aT54x/45XcdJz9vSZm4A01ek1O6PWhBDi2viu2xM0psSpljcEP/OT3vt7aXyGaoC/+LFqamoY1gcAwABFkBqunN4ndzihE6a89aYqVmwI3rN1ObR9lPFi2buozrNbx2tMmov9XLlDwmxvyvzIUa1wbinD3bLk9D65w/GcMPWcIhHntjipl+nW8c7cp1LNdR9LuNWUejsMBmnCc8yY8T1MTsvVQP7MAQDAoECQGtZe1rHY/Ch3PlWZJg2UMJVB+8l8DOvyOXImobcrTzZWds+V+Y371j7chwvriGpj85kajpttJzTFw9SRM53mX6cARXzOU/y2Skv9PT2DTPuZHub65WrAf+YAAGCgI0gNGC36c7tUMO4y/PU9G+8ttmGqWH+RZqjf9/5ngxoaGvSrumynvecyFGuz9h9KP8em+N4pGtM9fLBFbedSeyrcOTT2fmZ2+GCipo/cggXp5nOlsPsG6RlzhrG5F9YpwxyNe5fpV+Z9bWj4mb5nm3q0cYMNU/Ehe8GG8B3Xp+a9KxjfU2/VZo341Hy5/muBF411h+n55gr1Zv8Bpydniqb5z3/RdE1Qh6JvOeG5L5957OcnQZDPPMNz96THzzymxHt/R5zJ8MeB2M/GL5ZRbAIAgAGIIDVg7NafnevhW2bnac5Sz5yy6xPusBtW0STnQrFVf04pMPA9fdPWh862gti0TU5J6aj+LWBhgNbljTrmVHlL/Et+5auaO6NI7Xtft8UIYoErXnzCqZp2/7gO9+I4zl4AT/62vZh1qsMllODuFiuS8LCWrEkMSOv1aEqPgj3mjIdSwp7HeY4m32NeqEw3ZPGeGV+XV8h+or75ffdOEqdseb2v8tvCqU4IOqsTsbCycaeazzlD/5KH/KUX1Qln7lrZtzLOuXJcdciEmx4qyqW1qMktg35sV0KhkGy4hUmKdOfjifOLzHtf4xSDaFSj+zqz/cxj85XiwSylLLkryGdu5/slPHeyYJ95zKXbp+hLExRHZBjT2P2zUXSHHkjzswEAAPoX60jlIN/Hi/OvAeWVQ/evI5VYEt1bh6o1vv5TytpQCZIq/pnrs0caNekWu+HwPZ7I6ZH6OxOm0q1pk/ZCNeM6QU6J6NvtxXEm/rV9vKpv/gpoSWs7udXX5H6fU4I9vm/ysdy1f04+JPNWpq4j5ZTDdi7eu8XXFErW2/mlPp5+HSzD6XX44R3mgvmo/qXmx/qlbU7klDafG3udjnP7te7BLUqo2+dK2c/RslPhxAp/rpDWba9VRUKgzG0dKX9vkFN5L/mzzf4zTw256d6z7D5z337uz6K3xpl/v+w/897OL8Bn7rLrSH36mq7LuODx9/Szhr8zETv97x0AAOhfBKkcXL4gNTh5F8vpFrjFYHap6t/1WYV0zab/ppH+XsqMC9wiK9N36cLfjk//3ibw/oBxXu/9/O+19i3bCAAABgSG9gFIa0Rjo65WkT5/aEvguVLoyTP64m+9YYs9hSintzLsdHEdixCiAAAYgAhSADL4ia7e9LZGjrlbnz36jG1D3zhD+h7WF+1v69oeh/Q1qOGHd+jMb2pU84/pBnwCAID+RpACkNnJebrm11E5lRQv2ib0wfSH9fmYqL7y/LweFjv+pX5cYwKUuf34F7YJAAAMOMyRygFzpAAAAIDhjR4pAAAAAAiIIAUAAAAAARGkcnD06FGG9QEAAADDGEEKAAAAAAIiSAEAAABAQAQpAAAAAAiIIJWrwlXaUd2oJnPbcdtM2wgAAABgOCBI5apzpap3VKly1zvSpCcJUwAAAMAwQpDqKxOodn4iFRSV2QYAAAAAQx1BKl+KbtZ99i4AAACAoY0gBQAAAAABEaQAAAAAICCCVB4c6Thv7wEAAAAYDghSefBmR6tUeJfmltgGAAAAAEMaQSofTi5W5Y5ndXayt67UiwQqAAAAYEgjSOVDyQYToH4gNVeZQFWlx0/adgAAAABDEkEqD2pvKpM6DynSaRtS3KNlv2hQQ0ODfvZ92wQAAABg0CJIXRG36L8Wefcm/s0yE6sAAAAADGYEqSvil3rjHSr7AQAAAEMFQeoK2bP3j3Kj1NmPtcdtAQAAADBYEaSuiHu07H/coVE6qn/5x1/aNgAAAACDFUGqrwpXafaNUtfHu/WmbUp0T92v1NDwI92h9/R8zY9FjAIAAAAGvxGlpaWX7P0+q66u1p49e9TW1mZbcjdx4kSdOnVKFy5csC25y+exupkAtWPWXSpw7n/SoMp9L7vNAAAAAIY+eqRy1blS1Tu8daMIUQAAAMDwQpACAAAAgIAIUgAAAAAQEEEKAAAAAAIiSAEAAABAQAQpAAAAAAiIIAUAAAAAARGkcBnM1NpZjdpx20y7HZOpfTB6TC9WN6rJuZU/ZtsAAAAwXBCkkHe15U+qvLBFOz/cbVtidmvZoRYVTHpSL5bYpkHJCYQ1CjkLMbOOGAAAwLBEkEJe3XfbNs258bz27VqsetuW5ORi/fTweYUqtmltoW0bbApnanKheY2HCVAAAADDFUEKefSY5k4apa7D/6RlnbYpjTc//Cft6xyl8opVus+2XS7XfmebKlZsUJHdzovCsSqwdwEAADA8EaT6JKz6yHOKdN8Wa6F9xOM9/saakLRoccJ+z6l+kd3F4T62UusqpYWbejqeOeKalQmPm9umsH0kJsvnjKl8VUsiR7Vi03rbkLv7bputkNIN6fPzhvip8C7NvcxD/D777U6dVpkmrdimGwb1cEIAAAAMJASpXFXO0xuR2SreW69w+An3trWlVHPThJ+CGbWK1Ehb7X7r9nYqVOMFp7hCVdQ9p7naaY9Xr+Zz5njb55lo5Ahp3fbntHTG2e7jhMM7FS2brUj3PnHZPadUfO8UjXHulE3XNLclVzMVvmmU9MmB9EP6/E4eUNR8Cd10uQs1vKxjq5/VsfZRmvAPjZpwh20GAAAA+oAglaOFc6ep4Nx+/Xy5Ewc8Ly0wwUalqnJ6gxKZ/daFN+gluxl5K6ouE5yuv9U2WF1OKFsQsVtRRQ51SqPHyt1t0WxVjO5U8/r4ccyRVNtw3OwzTQ/5e5uyfM7Wtw6q3bnT8q72uy05cucNmbP+ONt5Qy/rwCfmS9HNOQzvm6kbljSqYkWG25JVutbu6dmt0y9U6fB/SDd8t1Hf+M5QqBoIAACA/kSQyklY08pM8Dm0z0SZRMf16TmpYHyp3bbaTifv17RFD4SfUO1Gu221noyHMkdk+SqFbRhaONU55lmdaHIfitt42O3ZKS7xhbcsn1NNj+iF8EStXlBnG3Lkzhs6r7M9zI3yO9Jx3v0+X7bLgheMmldnuL2wUp/ZPRN1vFqlA/vOq6D8SVU8kntPWO1N5sPvPKRIgNcKAACAoYUglYvKG1RsvrjD5xLmIEUitaoY7e1yWZw7qyP2rl9KeEPPbpkdeM5Ubbm3btTUj6tUuWul3rTtAAAAGH4IUrloOq1W88UdimfnICXduofnXTldZ47be8NB0KF9nqJHTAgqH6Wufc+qefUcnT5pH8hS/T4ToHZU6cBNJlDNuvwVBwEAADBwEaRykmEI32X00gFnLlRIYV+xCC2apJA69cFbycMCs5avqn2dZ9WlURobYG2oW4tGud+XqZcts6BD+7zgNekW6fS/VumD3/ZWVbBn9R87FQcnKzxY18ECAABAnxGkchLV0l0m2JTN9sqMXwkbd6r5XKEqHk+s0BdWfY0Jcy2/11L/3Kks5a1qX+duObUxsq/C95im3mi+dJy4zEPkHtOEFU9qwpjzOvbPVTr2nm0GAAAA+oAglauNGxRev19KmSeVWmI8P0x4e7BezSbuLO1+Llt+vQ9DCfNWtU+7Ffn4vHTjVNXalh6VTFVI57XvcLZV/nJz7Xdm6wa16HAOQ/kAAACATEaUlpZesvf7rLq6Wnv27FFbW5ttyd3EiRN16tQpXbhwwbbkLp/HQk8e04vVNQp90qDKfT0FpJlaO+tJlXf0tt8AVbJBTRXF2rdrjpZRuQ8AAGBYokcKefSyth52eqVq9GIPFfHuu+0HKi+8/L1Rl407HwwAAADDGUEKefXmh3O07RMpVLFNa9MVYyjZoKcmjVK0eRD35nSeUKtGqXxS7mtRAQAAYHAjSCHv6vc9q32dozT5xpm2JWam1k4uU9fhZ/X4oJ6v9LIe39Gg6I017rpSTeUEKgAAgOGGOVIAAAAAEBA9UgAAAAAQEEEKAAAAAAIiSAEAAABAQAQpAAAAAAiIIAUAAAAAARGkAAAAACAgghQAAAAABESQAgAAAICACFIAAAAAEBBBCgAAAAACIkgBAAAAQEAEKQAAAAAIiCAFAAAAAAERpAAAAAAgIIIUAAAAAAREkAIAAACAgAhSAAAAABAQQQoAAAAAAiJIAQAAAEBABCkAAAAACIggBQAAAAABEaQAAAAAICCCFAAAAAAERJACAAAAgIAIUgAAAAAQEEEKAAAAAAIiSAEAAABAQAQpAAAAAAiIIAUAAAAAARGkclW4SjuqG9Vkbjtum2kbAQAAAAwHBKlcda5U9Y4qVe56R5r0JGEKAAAAGEYIUn1lAtXOT6SCojLbAAAAAGCoI0jlS9HNus/eBQAAADC0EaQAAAAAICCCFAAAAAAERJDKgyMd5+09AAAAAMMBQSoP3uxolQrv0twS2wAAAABgSCNI5cPJxarc8azOTvbWlXqRQAUAAAAMaQSpfCjZYALUD6TmKhOoqvT4SdsOAAAAYEgiSOVB7U1lUuchRTptAwAAAIAhjSAFAAAAAAERpAAAAAAgIIIUAAAAAAREkAIAAACAgAhSfVW4SrNvlLo+3q03bRMAAACAoY0glSsToHZUN6pp1l0q+KRB1R/utg8AAAAAGOoIUrnqXKnqHd66UZX7XraNAAAAAIYDghQAAAAABESQAgAAAICAhkWQOnr0qC5cuGC3AAAAAKBv6JECAAAAgIAIUgAAAAAQEEEKAAAAAAIaVkFq/tN/0rGdx83tT9oSto3pTN+lC0/v0kW7CQAAAACJhlWQ2vz0X2rC7FKt/d/S3U/0EKbefU3XtIf0nz/aoku2CQAAAABihuXQvs1PFymq/6fxIduQYrNGPv+arh5ztz579BnbBgAAAACeYT1HavxXv7T30vmJrv51VCp7WF9Mt00AAAAAYFBsoifuED/pi3sY4gcAAAAgjiDVo8266o8d0pgpulhimwAAAAAMe8M0SF2tM+fs3V6MeP+gRqpIl75qGwAAAAAMe8M0SI3UR59KRX/dpV5LSZz8SCPMl0vj53vbAAAAAIa9YTu07yeLSjXhuatV5a4rda73QAUAAAAA1rANUs9sNAFqgfTCbBOoZo/WT2w7AAAAAPRmmAapzzT9Fqnj8HXabFsyKvmaW7FvxJle9wQAAAAwTAzbHqlsXbp9ir5Uh0acsg0AAAAAhj2CVI/m6+LXi6SWRo08aZsAAAAADHsEqZ5Mf1ifj+nQNRFmUAEAAACII0hl9Iy++NsQvVEAAAAAUgzLIDX/6Q6F9F90cM9I2+I3X1/+6GF90f62rn2F3igAAAAAyYZVkJr/9J90bOdxLfvr/6fojr/UvIh9wM8d0hfVV56f5y7GCwAAAACJRpSWljrVvfOiurpae/bsUVtbm23J3cSJE3Xq1ClduHDBtgAAAADAwMAcKQAAAAAIiCAFAAAAAAEN2CB19OhRhvUBAAAAGJDokQIAAACAgAhSAAAAABAQQQoAAAAAAhrwQaq2vFFN1c5tg2ptGwAAAAD0pwEfpOr3ValyR5W2fVKmOYQpAAAAAAPAoBnaV3/4HXWpWDcX2gYAAAAA6CeDbI7UKI0lSAEAAADoZxSbAAAAAICACFIAAAAAENDgCVKdJ9Rq7wIAAABAfxpEPVItOtsphSav0n22BQAAAAD6wyAKUru1bFeVKg+N1VPOulKzCFQAAAAA+scgClIztXaWCVA3HXDXlarctVJv2kcAAAAA4EoaPEGqcKYmF0rRj1+2DQAAAADQPwZRjxQAAAAADAwEKQAAAAAIiCAFAAAAAAERpAAAAAAgoEETpGon3aUCtejASdsAAAAAAP1kwAep2vJGNVU3as6N57Vv12LV23YAAAAA6C8jSktLL9n7fVZdXa09e/aora3NtgAAAADA0MMcKQAAAAAIiCAFAAAAAAERpAAAAAAgIIIUAAAAAAREkAIAAACAgAhSAAAAABAQQQoAAAAAAiJIAQAAAEBABCkAAAAACIggBQAAAAABEaQAAAAAICCCFAAAAAAERJACAAAAgIAIUgAAAAAQEEEKAAAAAAIiSAEAAABAQAQpAAAAAAiIIAUAAAAAARGkAAAAACAgghQAAAAABESQAgAAAIBApP8PNXGV/CXQsmIAAAAASUVORK5CYII=;" vertex="1" parent="1">
                    <mxGeometry x="1425" y="1622" width="850" height="663" as="geometry"/>
                </mxCell>
                <mxCell id="27" style="edgeStyle=orthogonalEdgeStyle;shape=link;html=1;entryX=1.006;entryY=0.458;entryDx=0;entryDy=0;entryPerimeter=0;strokeWidth=2;fontSize=22;exitX=1;exitY=0.473;exitDx=0;exitDy=0;exitPerimeter=0;strokeColor=#33FF33;" edge="1" parent="1" source="25" target="26">
                    <mxGeometry relative="1" as="geometry">
                        <Array as="points">
                            <mxPoint x="2172" y="1779"/>
                            <mxPoint x="2172" y="2124"/>
                        </Array>
                    </mxGeometry>
                </mxCell>
                <mxCell id="25" value="" style="rounded=0;whiteSpace=wrap;html=1;fontSize=22;fillColor=none;strokeWidth=2;strokeColor=#33FF33;" vertex="1" parent="1">
                    <mxGeometry x="1428" y="1763" width="678" height="33" as="geometry"/>
                </mxCell>
                <mxCell id="26" value="" style="rounded=0;whiteSpace=wrap;html=1;fontSize=22;fillColor=none;strokeWidth=2;strokeColor=#33FF33;" vertex="1" parent="1">
                    <mxGeometry x="1447" y="2003" width="389" height="265" as="geometry"/>
                </mxCell>
                <mxCell id="29" style="edgeStyle=orthogonalEdgeStyle;shape=link;html=1;entryX=0.105;entryY=1.04;entryDx=0;entryDy=0;entryPerimeter=0;strokeColor=#FF0080;strokeWidth=2;fontSize=22;" edge="1" parent="1" source="28" target="21">
                    <mxGeometry relative="1" as="geometry">
                        <Array as="points">
                            <mxPoint x="1180" y="2039"/>
                            <mxPoint x="1180" y="1685"/>
                            <mxPoint x="997" y="1685"/>
                        </Array>
                    </mxGeometry>
                </mxCell>
                <mxCell id="28" value="" style="rounded=1;whiteSpace=wrap;html=1;strokeColor=#FF0080;strokeWidth=2;fontSize=22;fillColor=none;" vertex="1" parent="1">
                    <mxGeometry x="1474" y="2027" width="332" height="25" as="geometry"/>
                </mxCell>
            </root>
        </mxGraphModel>
    </diagram>
</mxfile>